G04 EAGLE Gerber RS-274X export*
G75*
%MOMM*%
%FSLAX34Y34*%
%LPD*%
%INSoldermask Top*%
%IPPOS*%
%AMOC8*
5,1,8,0,0,1.08239X$1,22.5*%
G01*
G04 Define Apertures*
%ADD10R,1.473200X0.762000*%
%ADD11R,0.762000X1.473200*%
%ADD12R,1.403200X1.603200*%
%ADD13R,1.203200X1.303200*%
%ADD14R,1.303200X1.203200*%
%ADD15R,1.403200X1.653200*%
%ADD16R,1.403200X0.803200*%
%ADD17R,1.753200X0.903200*%
%ADD18R,1.023200X0.623200*%
%ADD19R,0.803200X1.403200*%
%ADD20R,2.403200X0.803200*%
%ADD21R,1.728200X0.903200*%
%ADD22R,2.716200X3.605200*%
%ADD23R,1.403200X1.403200*%
%ADD24C,1.727200*%
%ADD25R,1.128200X0.503200*%
%ADD26R,0.503200X1.003200*%
%ADD27R,1.453200X0.803200*%
%ADD28C,1.473200*%
%ADD29P,1.8695X8X22.5*%
%ADD30R,2.703200X0.838200*%
%ADD31C,1.203200*%
%ADD32C,0.909600*%
%ADD33C,0.959600*%
D10*
X576326Y95800D03*
X576326Y103800D03*
X576326Y111800D03*
X576326Y119800D03*
X576326Y127800D03*
X576326Y135800D03*
X576326Y143800D03*
X576326Y151800D03*
D11*
X561400Y166726D03*
X553400Y166726D03*
X545400Y166726D03*
X537400Y166726D03*
X529400Y166726D03*
X521400Y166726D03*
X513400Y166726D03*
X505400Y166726D03*
D10*
X490474Y151800D03*
X490474Y143800D03*
X490474Y135800D03*
X490474Y127800D03*
X490474Y119800D03*
X490474Y111800D03*
X490474Y103800D03*
X490474Y95800D03*
D11*
X505400Y80874D03*
X513400Y80874D03*
X521400Y80874D03*
X529400Y80874D03*
X537400Y80874D03*
X545400Y80874D03*
X553400Y80874D03*
X561400Y80874D03*
D12*
X624450Y147750D03*
X624450Y169750D03*
X607450Y169750D03*
X607450Y147750D03*
D13*
X642620Y147710D03*
X642620Y164710D03*
D14*
X607450Y190500D03*
X624450Y190500D03*
X599830Y116205D03*
X616830Y116205D03*
D13*
X454025Y121675D03*
X454025Y138675D03*
X473710Y121675D03*
X473710Y138675D03*
D15*
X455185Y156210D03*
X473185Y156210D03*
D13*
X599830Y56515D03*
X616830Y56515D03*
D14*
X616830Y36830D03*
X599830Y36830D03*
D13*
X616830Y95885D03*
X599830Y95885D03*
X616830Y76200D03*
X599830Y76200D03*
X293760Y161900D03*
X310760Y161900D03*
X325510Y149200D03*
X342510Y149200D03*
X293760Y136500D03*
X310760Y136500D03*
X325510Y123800D03*
X342510Y123800D03*
X293760Y111100D03*
X310760Y111100D03*
X325510Y98400D03*
X342510Y98400D03*
X293760Y85700D03*
X310760Y85700D03*
X325510Y73000D03*
X342510Y73000D03*
D16*
X444300Y187350D03*
X444300Y206350D03*
X419300Y196850D03*
X368100Y15900D03*
X368100Y34900D03*
X343100Y25400D03*
D17*
X363910Y149200D03*
X363910Y136500D03*
X363910Y123800D03*
X363910Y111100D03*
X363910Y98400D03*
X363910Y85700D03*
X363910Y73000D03*
X363910Y60300D03*
X418410Y60300D03*
X418410Y73000D03*
X418410Y85700D03*
X418410Y98400D03*
X418410Y111100D03*
X418410Y123800D03*
X418410Y136500D03*
X418410Y149200D03*
D14*
X404105Y168275D03*
X387105Y168275D03*
X230750Y89535D03*
X213750Y89535D03*
D16*
X736300Y53950D03*
X736300Y44450D03*
X736300Y34950D03*
X762300Y34950D03*
X762300Y53950D03*
D14*
X728100Y76200D03*
X745100Y76200D03*
X774945Y76200D03*
X757945Y76200D03*
X728100Y95250D03*
X745100Y95250D03*
X774310Y95250D03*
X757310Y95250D03*
D18*
X756990Y16510D03*
X733990Y16510D03*
D19*
X561950Y44250D03*
X542950Y44250D03*
X552450Y19250D03*
D20*
X649005Y95885D03*
X701005Y70485D03*
X649005Y108585D03*
X649005Y83185D03*
X649005Y70485D03*
X701005Y83185D03*
X701005Y57785D03*
X701005Y45085D03*
X649005Y45085D03*
X701005Y19685D03*
X649005Y57785D03*
X649005Y32385D03*
X701005Y32385D03*
X649005Y19685D03*
X701005Y95885D03*
X701005Y108585D03*
D14*
X684140Y125730D03*
X667140Y125730D03*
D21*
X764355Y161925D03*
X764355Y174625D03*
X764355Y187325D03*
X764355Y200025D03*
X710115Y200025D03*
X710115Y187325D03*
X710115Y174625D03*
X710115Y161925D03*
D22*
X737235Y180975D03*
D13*
X728735Y142875D03*
X745735Y142875D03*
D23*
X686435Y216875D03*
X686435Y195875D03*
D14*
X686435Y176775D03*
X686435Y159775D03*
X400050Y224400D03*
X400050Y207400D03*
X380365Y207400D03*
X380365Y224400D03*
X582930Y23250D03*
X582930Y40250D03*
D13*
X407915Y17145D03*
X390915Y17145D03*
X475225Y177165D03*
X458225Y177165D03*
D24*
X830580Y85700D02*
X845820Y85700D01*
X845820Y111100D02*
X830580Y111100D01*
X830580Y136500D02*
X845820Y136500D01*
X845820Y161900D02*
X830580Y161900D01*
X622300Y214630D02*
X622300Y229870D01*
X596900Y229870D02*
X596900Y214630D01*
D25*
X488775Y213200D03*
X488775Y208200D03*
X488775Y203200D03*
X488775Y198200D03*
X488775Y193200D03*
D26*
X496650Y190450D03*
X501650Y190450D03*
X506650Y190450D03*
D25*
X514525Y193200D03*
X514525Y198200D03*
X514525Y203200D03*
X514525Y208200D03*
X514525Y213200D03*
D26*
X506650Y215950D03*
X501650Y215950D03*
X496650Y215950D03*
D13*
X469900Y194700D03*
X469900Y211700D03*
D14*
X213750Y69850D03*
X230750Y69850D03*
X709685Y219075D03*
X726685Y219075D03*
X764785Y219075D03*
X747785Y219075D03*
D18*
X782250Y16510D03*
X805250Y16510D03*
D14*
X787400Y52950D03*
X787400Y35950D03*
X806450Y35950D03*
X806450Y52950D03*
D27*
X120500Y200920D03*
X120500Y219920D03*
X99500Y210420D03*
X120500Y23730D03*
X120500Y42730D03*
X99500Y33230D03*
D13*
X80645Y38980D03*
X80645Y21980D03*
X80645Y211210D03*
X80645Y228210D03*
D27*
X160500Y23730D03*
X160500Y42730D03*
X139500Y33230D03*
X160500Y200920D03*
X160500Y219920D03*
X139500Y210420D03*
D15*
X437625Y168275D03*
X419625Y168275D03*
D16*
X358575Y186715D03*
X358575Y205715D03*
X333575Y196215D03*
D13*
X464185Y80400D03*
X464185Y97400D03*
X444500Y80400D03*
X444500Y97400D03*
D14*
X464185Y49920D03*
X464185Y66920D03*
X444500Y49920D03*
X444500Y66920D03*
D13*
X804155Y95250D03*
X787155Y95250D03*
D18*
X404565Y187325D03*
X381565Y187325D03*
D28*
X523240Y59690D03*
D29*
X490220Y29210D03*
X515620Y29210D03*
D30*
X181530Y168300D03*
X181530Y155600D03*
X181530Y142900D03*
X181530Y130200D03*
X181530Y117500D03*
X181530Y104800D03*
X181530Y92100D03*
X181530Y79400D03*
D31*
X58830Y51850D03*
X78830Y195850D03*
D32*
X725170Y53975D03*
D33*
X608330Y16510D03*
X445770Y152400D03*
X412750Y213388D03*
D32*
X501650Y203200D03*
X597290Y151560D03*
X390525Y61595D03*
X382270Y127000D03*
X642620Y177165D03*
X292735Y208915D03*
X262255Y199390D03*
X306070Y198755D03*
X729615Y193675D03*
X744855Y193675D03*
X744855Y168910D03*
X729615Y168275D03*
X737235Y180340D03*
X751205Y103505D03*
X749300Y37465D03*
X673100Y103505D03*
X652780Y125730D03*
X464185Y121285D03*
X631825Y118110D03*
X737235Y226695D03*
X473075Y186055D03*
X455295Y205740D03*
X468630Y11430D03*
X600075Y24765D03*
X566420Y24130D03*
X675640Y34925D03*
X745490Y12065D03*
X551815Y44450D03*
X417830Y184150D03*
X402590Y150495D03*
X563245Y123190D03*
X556260Y186055D03*
X577215Y170180D03*
X533400Y191135D03*
X535940Y203835D03*
X593725Y194945D03*
X584200Y195580D03*
X563245Y139700D03*
X782320Y118110D03*
X796925Y133985D03*
X796925Y179705D03*
X791845Y110490D03*
X735330Y122555D03*
X756285Y121920D03*
X739775Y104775D03*
X761365Y104775D03*
X749300Y52070D03*
X803910Y155575D03*
X789940Y227965D03*
X574040Y232410D03*
X645160Y202565D03*
X805180Y73660D03*
X811530Y181610D03*
X830580Y219710D03*
X849630Y200660D03*
X855980Y232410D03*
X830580Y16510D03*
X843280Y35560D03*
X365760Y214630D03*
X374015Y172720D03*
X419735Y15240D03*
X297180Y61595D03*
X339090Y59055D03*
X384175Y77470D03*
X381635Y104140D03*
X96520Y237490D03*
X164465Y237490D03*
X234315Y238760D03*
X311150Y238760D03*
X367665Y238760D03*
X424815Y239395D03*
X494030Y239395D03*
X560070Y239395D03*
X532765Y11430D03*
X682625Y40005D03*
X174625Y194945D03*
X209550Y196215D03*
X129540Y189230D03*
X108585Y189865D03*
X95885Y12065D03*
X148590Y11430D03*
X96520Y53975D03*
X85090Y60960D03*
X222250Y11430D03*
X433070Y73660D03*
X433705Y108585D03*
X443865Y122555D03*
X752475Y238760D03*
X644525Y238125D03*
X769620Y10795D03*
X589280Y106045D03*
X503555Y11430D03*
X8890Y22860D03*
X8890Y219710D03*
X40640Y207010D03*
X40640Y41910D03*
X27940Y124460D03*
X768350Y114300D03*
X698500Y120650D03*
X478790Y213200D03*
D33*
X107315Y60960D03*
X213360Y57785D03*
X184150Y205105D03*
X401955Y78105D03*
X428625Y155575D03*
X282575Y161925D03*
X282575Y149225D03*
X282575Y136525D03*
X282575Y123825D03*
X282575Y111125D03*
X282575Y98425D03*
X282575Y85725D03*
X282575Y73025D03*
X282575Y184150D03*
X282575Y58420D03*
X541020Y95885D03*
X533083Y47943D03*
X403860Y123190D03*
X507365Y127635D03*
X401955Y90805D03*
X513715Y118745D03*
D32*
X505400Y177860D03*
D33*
X257175Y29845D03*
D32*
X537845Y128270D03*
D33*
X257175Y47625D03*
D32*
X513080Y153035D03*
D33*
X257175Y38735D03*
X257175Y65405D03*
X521335Y143510D03*
X257175Y56515D03*
X528955Y135255D03*
D32*
X561975Y111760D03*
X717550Y38100D03*
D33*
X551180Y95885D03*
X579120Y49530D03*
D32*
X629920Y60325D03*
X629920Y48895D03*
X421640Y206375D03*
X501015Y135890D03*
X523875Y203200D03*
D33*
X561975Y99060D03*
X179070Y26035D03*
X134620Y58420D03*
X433705Y24765D03*
X290830Y20320D03*
X504825Y62865D03*
X257175Y20955D03*
X570230Y71120D03*
M02*
