M48
;GenerationSoftware,Autodesk,EAGLE,9.7.0*%
;CreationDate,2025-11-22T22:36:54Z*%
FMAT,2
ICI,OFF
METRIC,TZ,000.000
T3C0.300
T2C0.350
T1C1.016
%
G90
M71
T1
X49022Y2921
X51562Y2921
X83820Y8570
X83820Y11110
X83820Y13650
X83820Y16190
X62230Y22225
X59690Y22225
T2
X40196Y7810
X42863Y15557
X28257Y16192
X28257Y14922
X28257Y13652
X28257Y12382
X28257Y11112
X28257Y9843
X28257Y8573
X28257Y7302
X28257Y18415
X28257Y5842
X53308Y4794
X40386Y12319
X50736Y12763
X40196Y9081
X18415Y20511
X25717Y2984
X25717Y4763
X25717Y3873
X25717Y6540
X52133Y14351
X25717Y5651
X52895Y13525
X55118Y9589
X57912Y4953
X56197Y9906
X17907Y2604
X54102Y9589
X43371Y2477
X29083Y2032
X50482Y6286
X25717Y2096
X57023Y7112
X51371Y11874
X60833Y1651
X44577Y15240
X41275Y21339
X10732Y6096
X21336Y5778
X13462Y5842
T3
X76137Y10478
X74930Y5207
X80391Y15557
X78994Y22796
X57404Y23241
X64516Y20257
X80518Y7366
X81153Y18161
X83058Y21971
X84963Y20066
X85598Y23241
X83058Y1651
X84328Y3556
X36576Y21463
X37402Y17272
X41974Y1524
X29718Y6159
X33909Y5905
X38418Y7747
X38164Y10414
X9652Y23749
X16447Y23749
X23431Y23876
X31115Y23876
X36767Y23876
X42482Y23939
X49403Y23939
X56007Y23939
X53276Y1143
X68263Y4000
X17463Y19495
X65278Y12573
X12954Y18923
X10859Y18987
X9589Y1207
X14859Y1143
X9652Y5398
X8509Y6096
X22225Y1143
X43307Y7366
X43371Y10859
X44386Y12255
X75248Y23876
X64452Y23812
X76962Y1080
X58928Y10605
X50355Y1143
X889Y2286
X889Y21971
X4064Y20701
X4064Y4191
X2794Y12446
X76835Y11430
X69850Y12065
X47879Y21320
X72517Y5398
X50165Y20320
X59729Y15156
X39053Y6159
X38227Y12700
X64262Y17717
X29273Y20892
X26225Y19939
X30607Y19876
X72962Y19368
X74486Y19368
X74486Y16891
X72962Y16828
X73724Y18034
X75121Y10351
X74930Y3746
X67310Y10351
X46418Y12128
X63182Y11811
X73724Y22669
X47307Y18606
X50540Y17786
X45529Y20574
X53784Y12827
X46863Y1143
X51308Y15303
X60007Y2477
X56642Y2413
X67564Y3492
X74549Y1207
X55181Y4445
X56197Y11176
X71755Y3810
X41783Y18415
X40259Y15049
X20955Y19622
X62992Y4890
X42164Y20638
X50101Y13589
X52387Y20320
X56324Y12319
X55626Y18606
X57721Y17018
X53340Y19114
X53594Y20384
X59372Y19495
X58420Y19558
X56324Y13970
X78232Y11811
X79693Y13398
X79693Y17971
X79185Y11049
X73533Y12255
X75629Y12192
X73978Y10478
X62992Y6032
M30