G04 EAGLE Gerber RS-274X export*
G75*
%MOMM*%
%FSLAX34Y34*%
%LPD*%
%INBottom Copper*%
%IPPOS*%
%AMOC8*
5,1,8,0,0,1.08239X$1,22.5*%
G01*
G04 Define Apertures*
%ADD10C,1.524000*%
%ADD11R,3.300000X0.850000*%
%ADD12P,1.64956X8X22.5*%
%ADD13C,0.706400*%
%ADD14C,0.508000*%
%ADD15C,0.756400*%
%ADD16C,0.200000*%
%ADD17C,0.304800*%
G36*
X16342Y8127D02*
X15952Y8048D01*
X4048Y8048D01*
X3688Y8115D01*
X3352Y8330D01*
X3127Y8658D01*
X3048Y9048D01*
X3048Y240952D01*
X3115Y241313D01*
X3330Y241648D01*
X3658Y241873D01*
X4048Y241952D01*
X15952Y241952D01*
X16313Y241885D01*
X16648Y241670D01*
X16873Y241342D01*
X16952Y240952D01*
X16952Y228737D01*
X18737Y226952D01*
X47263Y226952D01*
X49048Y228737D01*
X49048Y240952D01*
X49115Y241313D01*
X49330Y241648D01*
X49658Y241873D01*
X50048Y241952D01*
X594492Y241952D01*
X594830Y241893D01*
X595170Y241687D01*
X595403Y241364D01*
X595492Y240976D01*
X595422Y240584D01*
X595205Y240251D01*
X594875Y240028D01*
X591145Y238483D01*
X588287Y235625D01*
X586740Y231891D01*
X586740Y223250D01*
X607060Y223250D01*
X607060Y231891D01*
X605513Y235625D01*
X602655Y238483D01*
X598926Y240028D01*
X598636Y240212D01*
X598400Y240533D01*
X598309Y240920D01*
X598375Y241313D01*
X598590Y241648D01*
X598918Y241873D01*
X599308Y241952D01*
X618564Y241952D01*
X618902Y241893D01*
X619243Y241687D01*
X619476Y241364D01*
X619564Y240976D01*
X619494Y240584D01*
X619277Y240251D01*
X618947Y240028D01*
X616257Y238914D01*
X613256Y235913D01*
X611632Y231992D01*
X611632Y212508D01*
X613256Y208587D01*
X616257Y205586D01*
X620178Y203962D01*
X624422Y203962D01*
X628343Y205586D01*
X631344Y208587D01*
X632968Y212508D01*
X632968Y231992D01*
X631344Y235913D01*
X628343Y238914D01*
X625653Y240028D01*
X625363Y240212D01*
X625128Y240533D01*
X625036Y240920D01*
X625103Y241313D01*
X625317Y241648D01*
X625646Y241873D01*
X626036Y241952D01*
X865777Y241952D01*
X866138Y241885D01*
X866473Y241670D01*
X866698Y241342D01*
X866777Y240952D01*
X866777Y9048D01*
X866710Y8688D01*
X866495Y8352D01*
X866167Y8127D01*
X865777Y8048D01*
X610776Y8048D01*
X610438Y8107D01*
X610098Y8313D01*
X609865Y8636D01*
X609776Y9024D01*
X609846Y9416D01*
X610063Y9749D01*
X610393Y9972D01*
X612313Y10767D01*
X612425Y10843D01*
X612815Y10922D01*
X728822Y10922D01*
X730875Y11773D01*
X741337Y22235D01*
X742188Y24288D01*
X742188Y43657D01*
X741337Y45710D01*
X731881Y55167D01*
X731664Y55491D01*
X730748Y57702D01*
X728897Y59553D01*
X726479Y60555D01*
X723861Y60555D01*
X721443Y59553D01*
X719592Y57702D01*
X718590Y55284D01*
X718590Y52666D01*
X719592Y50248D01*
X721443Y48397D01*
X723654Y47481D01*
X723978Y47264D01*
X730719Y40523D01*
X730933Y40206D01*
X731012Y39816D01*
X731012Y28129D01*
X730939Y27754D01*
X730719Y27422D01*
X725688Y22391D01*
X725371Y22177D01*
X724981Y22098D01*
X709687Y22098D01*
X709341Y22160D01*
X709003Y22369D01*
X708772Y22693D01*
X708687Y23082D01*
X708760Y23473D01*
X708980Y23805D01*
X716402Y31227D01*
X716719Y31441D01*
X717109Y31520D01*
X718859Y31520D01*
X721277Y32522D01*
X723128Y34373D01*
X724130Y36791D01*
X724130Y39409D01*
X723128Y41827D01*
X721277Y43678D01*
X718859Y44680D01*
X716241Y44680D01*
X713823Y43678D01*
X711972Y41827D01*
X710970Y39409D01*
X710970Y37659D01*
X710897Y37284D01*
X710677Y36952D01*
X704831Y31106D01*
X704514Y30892D01*
X704124Y30813D01*
X616041Y30813D01*
X615666Y30886D01*
X615334Y31106D01*
X592986Y53454D01*
X592772Y53771D01*
X592693Y54161D01*
X592693Y86767D01*
X568848Y110612D01*
X568634Y110929D01*
X568555Y111319D01*
X568555Y113069D01*
X567553Y115487D01*
X565702Y117338D01*
X563284Y118340D01*
X560666Y118340D01*
X560421Y118238D01*
X560070Y118163D01*
X559678Y118229D01*
X559342Y118444D01*
X559117Y118772D01*
X559038Y119162D01*
X559038Y147727D01*
X528216Y178549D01*
X528002Y178866D01*
X527923Y179256D01*
X527923Y197528D01*
X527996Y197904D01*
X528216Y198235D01*
X529453Y199473D01*
X530455Y201891D01*
X530455Y204509D01*
X529453Y206927D01*
X527602Y208778D01*
X525184Y209780D01*
X522566Y209780D01*
X520148Y208778D01*
X518297Y206927D01*
X517295Y204509D01*
X517295Y201891D01*
X518297Y199473D01*
X519534Y198235D01*
X519748Y197918D01*
X519827Y197528D01*
X519827Y180462D01*
X519765Y180116D01*
X519556Y179778D01*
X519232Y179547D01*
X518843Y179462D01*
X518452Y179535D01*
X518120Y179755D01*
X516027Y181848D01*
X511132Y181848D01*
X510756Y181921D01*
X510425Y182141D01*
X509127Y183438D01*
X506709Y184440D01*
X504091Y184440D01*
X501673Y183438D01*
X499822Y181587D01*
X498820Y179169D01*
X498820Y176551D01*
X499822Y174133D01*
X501673Y172282D01*
X504091Y171280D01*
X506709Y171280D01*
X509127Y172282D01*
X510305Y173459D01*
X510622Y173673D01*
X511012Y173752D01*
X512259Y173752D01*
X512634Y173679D01*
X512966Y173459D01*
X527635Y158790D01*
X527836Y158502D01*
X527928Y158115D01*
X527861Y157723D01*
X527646Y157387D01*
X527318Y157162D01*
X526928Y157083D01*
X518752Y157083D01*
X518376Y157156D01*
X518045Y157376D01*
X516807Y158613D01*
X514389Y159615D01*
X511771Y159615D01*
X509353Y158613D01*
X507502Y156762D01*
X506500Y154344D01*
X506500Y151726D01*
X507502Y149308D01*
X509353Y147457D01*
X511771Y146455D01*
X513666Y146455D01*
X514019Y146391D01*
X514356Y146179D01*
X514583Y145852D01*
X514666Y145463D01*
X514589Y145072D01*
X514505Y144869D01*
X514505Y142151D01*
X515545Y139641D01*
X516994Y138192D01*
X517208Y137875D01*
X517287Y137485D01*
X517287Y126155D01*
X517223Y125802D01*
X517011Y125465D01*
X516684Y125237D01*
X516295Y125155D01*
X515904Y125231D01*
X514974Y125616D01*
X514835Y125642D01*
X514499Y125857D01*
X514274Y126185D01*
X514195Y126575D01*
X514195Y128994D01*
X513155Y131504D01*
X511234Y133425D01*
X508724Y134465D01*
X508595Y134465D01*
X508235Y134532D01*
X507899Y134747D01*
X507674Y135075D01*
X507595Y135465D01*
X507595Y137199D01*
X506593Y139617D01*
X505356Y140855D01*
X505142Y141172D01*
X505063Y141562D01*
X505063Y142012D01*
X436652Y210423D01*
X427312Y210423D01*
X426936Y210496D01*
X426605Y210716D01*
X425367Y211953D01*
X422949Y212955D01*
X420580Y212955D01*
X420220Y213022D01*
X419884Y213237D01*
X419659Y213565D01*
X419580Y213955D01*
X419580Y214747D01*
X419359Y215279D01*
X419284Y215630D01*
X419350Y216023D01*
X419565Y216358D01*
X419893Y216583D01*
X420283Y216662D01*
X471605Y216662D01*
X471958Y216598D01*
X472295Y216386D01*
X472523Y216059D01*
X472605Y215670D01*
X472529Y215279D01*
X472210Y214509D01*
X472210Y211891D01*
X473212Y209473D01*
X475063Y207622D01*
X477481Y206620D01*
X480099Y206620D01*
X482517Y207622D01*
X484368Y209473D01*
X485370Y211891D01*
X485370Y214509D01*
X485051Y215279D01*
X484975Y215630D01*
X485042Y216023D01*
X485256Y216358D01*
X485585Y216583D01*
X485975Y216662D01*
X537021Y216662D01*
X537396Y216589D01*
X537728Y216369D01*
X573415Y180683D01*
X575468Y179832D01*
X650051Y179832D01*
X650426Y179759D01*
X650758Y179539D01*
X695288Y135010D01*
X695495Y134707D01*
X695581Y134318D01*
X695508Y133927D01*
X695288Y133595D01*
X693763Y132070D01*
X692912Y130017D01*
X692912Y124553D01*
X692836Y124170D01*
X691920Y121959D01*
X691920Y119341D01*
X692922Y116923D01*
X694773Y115072D01*
X697191Y114070D01*
X699809Y114070D01*
X702227Y115072D01*
X704078Y116923D01*
X705080Y119341D01*
X705080Y121959D01*
X704700Y122877D01*
X704625Y123212D01*
X704685Y123605D01*
X704894Y123944D01*
X705219Y124174D01*
X705608Y124259D01*
X705999Y124186D01*
X706331Y123967D01*
X720735Y109563D01*
X722788Y108712D01*
X764447Y108712D01*
X764830Y108636D01*
X767041Y107720D01*
X769659Y107720D01*
X772077Y108722D01*
X773928Y110573D01*
X774930Y112991D01*
X774930Y115609D01*
X773928Y118027D01*
X772077Y119878D01*
X769659Y120880D01*
X767041Y120880D01*
X764830Y119964D01*
X764447Y119888D01*
X726629Y119888D01*
X726254Y119961D01*
X725922Y120181D01*
X655945Y190157D01*
X653892Y191008D01*
X579309Y191008D01*
X578934Y191081D01*
X578602Y191301D01*
X542915Y226987D01*
X540862Y227838D01*
X200183Y227838D01*
X198130Y226987D01*
X183370Y212228D01*
X183053Y212014D01*
X182915Y211986D01*
X180281Y210895D01*
X178360Y208974D01*
X177320Y206464D01*
X177320Y203746D01*
X178360Y201236D01*
X180281Y199315D01*
X182791Y198275D01*
X185509Y198275D01*
X188019Y199315D01*
X189940Y201236D01*
X191027Y203860D01*
X191053Y203993D01*
X191273Y204325D01*
X203317Y216369D01*
X203634Y216583D01*
X204024Y216662D01*
X395002Y216662D01*
X395363Y216595D01*
X395698Y216380D01*
X395923Y216052D01*
X396002Y215662D01*
X396002Y205420D01*
X412978Y188444D01*
X422002Y188444D01*
X422377Y188371D01*
X422709Y188151D01*
X424284Y186576D01*
X424498Y186259D01*
X424577Y185869D01*
X424577Y161600D01*
X424504Y161225D01*
X424284Y160893D01*
X422835Y159444D01*
X421795Y156934D01*
X421795Y154884D01*
X421722Y154509D01*
X421502Y154177D01*
X410731Y143406D01*
X410414Y143192D01*
X410024Y143113D01*
X404723Y143113D01*
X390287Y128677D01*
X390287Y84048D01*
X394832Y79503D01*
X395046Y79186D01*
X395125Y78796D01*
X395125Y76746D01*
X396165Y74236D01*
X398086Y72315D01*
X400596Y71275D01*
X403314Y71275D01*
X405824Y72315D01*
X407745Y74236D01*
X408785Y76746D01*
X408785Y79464D01*
X407745Y81974D01*
X405971Y83748D01*
X405764Y84050D01*
X405678Y84439D01*
X405751Y84830D01*
X405971Y85162D01*
X407273Y86464D01*
X407590Y86678D01*
X407980Y86757D01*
X485018Y86757D01*
X485364Y86695D01*
X485702Y86486D01*
X485933Y86162D01*
X486018Y85773D01*
X485945Y85382D01*
X485725Y85050D01*
X457721Y57046D01*
X457404Y56832D01*
X457014Y56753D01*
X449173Y56753D01*
X446926Y54506D01*
X446609Y54292D01*
X446219Y54213D01*
X289722Y54213D01*
X289369Y54277D01*
X289032Y54489D01*
X288804Y54816D01*
X288722Y55205D01*
X288798Y55596D01*
X289405Y57061D01*
X289405Y59779D01*
X288365Y62289D01*
X286444Y64210D01*
X285023Y64799D01*
X284728Y64988D01*
X284495Y65311D01*
X284406Y65699D01*
X284476Y66090D01*
X284693Y66424D01*
X285023Y66646D01*
X286444Y67235D01*
X288365Y69156D01*
X289405Y71666D01*
X289405Y74384D01*
X288365Y76894D01*
X286591Y78668D01*
X286384Y78970D01*
X286298Y79359D01*
X286371Y79750D01*
X286591Y80082D01*
X288365Y81856D01*
X289405Y84366D01*
X289405Y87084D01*
X288365Y89594D01*
X286591Y91368D01*
X286384Y91670D01*
X286298Y92059D01*
X286371Y92450D01*
X286591Y92782D01*
X288365Y94556D01*
X289405Y97066D01*
X289405Y99784D01*
X288365Y102294D01*
X286591Y104068D01*
X286384Y104370D01*
X286298Y104759D01*
X286371Y105150D01*
X286591Y105482D01*
X288365Y107256D01*
X289405Y109766D01*
X289405Y112484D01*
X288365Y114994D01*
X286591Y116768D01*
X286384Y117070D01*
X286298Y117459D01*
X286371Y117850D01*
X286591Y118182D01*
X288365Y119956D01*
X289405Y122466D01*
X289405Y125184D01*
X288365Y127694D01*
X286591Y129468D01*
X286384Y129770D01*
X286298Y130159D01*
X286371Y130550D01*
X286591Y130882D01*
X288365Y132656D01*
X289405Y135166D01*
X289405Y137884D01*
X288365Y140394D01*
X286591Y142168D01*
X286384Y142470D01*
X286298Y142859D01*
X286371Y143250D01*
X286591Y143582D01*
X288365Y145356D01*
X289405Y147866D01*
X289405Y150584D01*
X288365Y153094D01*
X286591Y154868D01*
X286384Y155170D01*
X286298Y155559D01*
X286371Y155950D01*
X286591Y156282D01*
X288365Y158056D01*
X289405Y160566D01*
X289405Y163284D01*
X288365Y165794D01*
X286444Y167715D01*
X283934Y168755D01*
X281216Y168755D01*
X278706Y167715D01*
X277257Y166266D01*
X276940Y166052D01*
X276550Y165973D01*
X268791Y165973D01*
X268416Y166046D01*
X268084Y166266D01*
X255955Y178395D01*
X255754Y178683D01*
X255662Y179070D01*
X255729Y179463D01*
X255944Y179798D01*
X256272Y180023D01*
X256662Y180102D01*
X276550Y180102D01*
X276925Y180029D01*
X277257Y179809D01*
X278706Y178360D01*
X281216Y177320D01*
X283934Y177320D01*
X286444Y178360D01*
X288365Y180281D01*
X289405Y182791D01*
X289405Y185509D01*
X288365Y188019D01*
X286444Y189940D01*
X283934Y190980D01*
X281216Y190980D01*
X278706Y189940D01*
X277257Y188491D01*
X276940Y188277D01*
X276550Y188198D01*
X139373Y188198D01*
X134566Y183391D01*
X134249Y183177D01*
X133859Y183098D01*
X114937Y183098D01*
X113152Y181313D01*
X113152Y180848D01*
X113085Y180488D01*
X112870Y180152D01*
X112542Y179927D01*
X112152Y179848D01*
X106248Y179848D01*
X105888Y179915D01*
X105552Y180130D01*
X105327Y180458D01*
X105248Y180848D01*
X105248Y181313D01*
X103463Y183098D01*
X67937Y183098D01*
X66152Y181313D01*
X66152Y170287D01*
X67937Y168502D01*
X103463Y168502D01*
X105248Y170287D01*
X105248Y170752D01*
X105315Y171113D01*
X105530Y171448D01*
X105858Y171673D01*
X106248Y171752D01*
X112152Y171752D01*
X112513Y171685D01*
X112848Y171470D01*
X113073Y171142D01*
X113152Y170752D01*
X113152Y170287D01*
X114937Y168502D01*
X150463Y168502D01*
X152248Y170287D01*
X152248Y179102D01*
X152315Y179463D01*
X152530Y179798D01*
X152858Y180023D01*
X153248Y180102D01*
X166752Y180102D01*
X167113Y180035D01*
X167448Y179820D01*
X167673Y179492D01*
X167752Y179102D01*
X167752Y170287D01*
X169537Y168502D01*
X205063Y168502D01*
X206848Y170287D01*
X206848Y170752D01*
X206915Y171113D01*
X207130Y171448D01*
X207458Y171673D01*
X207848Y171752D01*
X213752Y171752D01*
X214113Y171685D01*
X214448Y171470D01*
X214673Y171142D01*
X214752Y170752D01*
X214752Y170287D01*
X216537Y168502D01*
X252063Y168502D01*
X252523Y168963D01*
X252826Y169170D01*
X253214Y169256D01*
X253606Y169183D01*
X253938Y168963D01*
X255220Y167680D01*
X255421Y167392D01*
X255513Y167005D01*
X255446Y166613D01*
X255231Y166277D01*
X254903Y166052D01*
X254513Y165973D01*
X142548Y165973D01*
X134566Y157991D01*
X134249Y157777D01*
X133859Y157698D01*
X114937Y157698D01*
X113152Y155913D01*
X113152Y155448D01*
X113085Y155088D01*
X112870Y154752D01*
X112542Y154527D01*
X112152Y154448D01*
X106248Y154448D01*
X105888Y154515D01*
X105552Y154730D01*
X105327Y155058D01*
X105248Y155448D01*
X105248Y155913D01*
X103463Y157698D01*
X67937Y157698D01*
X66152Y155913D01*
X66152Y144887D01*
X67937Y143102D01*
X103463Y143102D01*
X105248Y144887D01*
X105248Y145352D01*
X105315Y145713D01*
X105530Y146048D01*
X105858Y146273D01*
X106248Y146352D01*
X112152Y146352D01*
X112513Y146285D01*
X112848Y146070D01*
X113073Y145742D01*
X113152Y145352D01*
X113152Y144887D01*
X114937Y143102D01*
X150463Y143102D01*
X152248Y144887D01*
X152248Y155913D01*
X151991Y156170D01*
X151790Y156458D01*
X151698Y156845D01*
X151765Y157238D01*
X151979Y157573D01*
X152308Y157798D01*
X152698Y157877D01*
X167302Y157877D01*
X167648Y157815D01*
X167986Y157606D01*
X168217Y157282D01*
X168302Y156893D01*
X168229Y156502D01*
X168009Y156170D01*
X167752Y155913D01*
X167752Y144887D01*
X169537Y143102D01*
X205063Y143102D01*
X206848Y144887D01*
X206848Y145352D01*
X206915Y145713D01*
X207130Y146048D01*
X207458Y146273D01*
X207848Y146352D01*
X213752Y146352D01*
X214113Y146285D01*
X214448Y146070D01*
X214673Y145742D01*
X214752Y145352D01*
X214752Y144887D01*
X216537Y143102D01*
X252063Y143102D01*
X252523Y143563D01*
X252826Y143770D01*
X253214Y143856D01*
X253606Y143783D01*
X253938Y143563D01*
X255220Y142280D01*
X255421Y141992D01*
X255513Y141605D01*
X255446Y141213D01*
X255231Y140877D01*
X254903Y140652D01*
X254513Y140573D01*
X142548Y140573D01*
X134566Y132591D01*
X134249Y132377D01*
X133859Y132298D01*
X114937Y132298D01*
X113152Y130513D01*
X113152Y130048D01*
X113085Y129688D01*
X112870Y129352D01*
X112542Y129127D01*
X112152Y129048D01*
X106248Y129048D01*
X105888Y129115D01*
X105552Y129330D01*
X105327Y129658D01*
X105248Y130048D01*
X105248Y130513D01*
X103463Y132298D01*
X67937Y132298D01*
X66152Y130513D01*
X66152Y119487D01*
X67937Y117702D01*
X103463Y117702D01*
X105248Y119487D01*
X105248Y119952D01*
X105315Y120313D01*
X105530Y120648D01*
X105858Y120873D01*
X106248Y120952D01*
X112152Y120952D01*
X112513Y120885D01*
X112848Y120670D01*
X113073Y120342D01*
X113152Y119952D01*
X113152Y119487D01*
X114937Y117702D01*
X142663Y117702D01*
X143009Y117640D01*
X143347Y117431D01*
X143578Y117107D01*
X143663Y116718D01*
X143590Y116327D01*
X143370Y115995D01*
X134566Y107191D01*
X134249Y106977D01*
X133859Y106898D01*
X114937Y106898D01*
X113152Y105113D01*
X113152Y104648D01*
X113085Y104288D01*
X112870Y103952D01*
X112542Y103727D01*
X112152Y103648D01*
X106248Y103648D01*
X105888Y103715D01*
X105552Y103930D01*
X105327Y104258D01*
X105248Y104648D01*
X105248Y105113D01*
X103463Y106898D01*
X67937Y106898D01*
X66152Y105113D01*
X66152Y94087D01*
X67937Y92302D01*
X103463Y92302D01*
X105248Y94087D01*
X105248Y94552D01*
X105315Y94913D01*
X105530Y95248D01*
X105858Y95473D01*
X106248Y95552D01*
X112152Y95552D01*
X112513Y95485D01*
X112848Y95270D01*
X113073Y94942D01*
X113152Y94552D01*
X113152Y94087D01*
X114937Y92302D01*
X142663Y92302D01*
X143009Y92240D01*
X143347Y92031D01*
X143578Y91707D01*
X143663Y91318D01*
X143590Y90927D01*
X143370Y90595D01*
X134566Y81791D01*
X134249Y81577D01*
X133859Y81498D01*
X114937Y81498D01*
X113152Y79713D01*
X113152Y79248D01*
X113085Y78888D01*
X112870Y78552D01*
X112542Y78327D01*
X112152Y78248D01*
X106248Y78248D01*
X105888Y78315D01*
X105552Y78530D01*
X105327Y78858D01*
X105248Y79248D01*
X105248Y79713D01*
X103463Y81498D01*
X67937Y81498D01*
X66152Y79713D01*
X66152Y68687D01*
X67937Y66902D01*
X101184Y66902D01*
X101529Y66840D01*
X101868Y66631D01*
X102098Y66307D01*
X102184Y65918D01*
X102111Y65527D01*
X101891Y65195D01*
X101525Y64829D01*
X100485Y62319D01*
X100485Y59601D01*
X101525Y57091D01*
X103446Y55170D01*
X105956Y54130D01*
X108674Y54130D01*
X111184Y55170D01*
X113105Y57091D01*
X114145Y59601D01*
X114145Y60992D01*
X114212Y61353D01*
X114427Y61688D01*
X114755Y61913D01*
X115145Y61992D01*
X127210Y61992D01*
X127563Y61928D01*
X127900Y61716D01*
X128128Y61389D01*
X128210Y61000D01*
X128134Y60609D01*
X127790Y59779D01*
X127790Y57061D01*
X128830Y54551D01*
X130751Y52630D01*
X133261Y51590D01*
X135979Y51590D01*
X138489Y52630D01*
X139938Y54079D01*
X140255Y54293D01*
X140645Y54372D01*
X144594Y54372D01*
X144969Y54299D01*
X145301Y54079D01*
X171947Y27433D01*
X172161Y27116D01*
X172240Y26726D01*
X172240Y24676D01*
X173280Y22166D01*
X175201Y20245D01*
X177711Y19205D01*
X180429Y19205D01*
X182939Y20245D01*
X184388Y21694D01*
X184705Y21908D01*
X185095Y21987D01*
X229049Y21987D01*
X229424Y21914D01*
X229756Y21694D01*
X241695Y9755D01*
X241896Y9467D01*
X241988Y9080D01*
X241921Y8688D01*
X241706Y8352D01*
X241378Y8127D01*
X240988Y8048D01*
X50048Y8048D01*
X49688Y8115D01*
X49352Y8330D01*
X49127Y8658D01*
X49048Y9048D01*
X49048Y21263D01*
X47263Y23048D01*
X18737Y23048D01*
X16952Y21263D01*
X16952Y9048D01*
X16885Y8688D01*
X16670Y8352D01*
X16342Y8127D01*
G37*
%LPC*%
G36*
X597900Y204470D02*
X598921Y204470D01*
X602655Y206017D01*
X605513Y208875D01*
X607060Y212609D01*
X607060Y221250D01*
X597900Y221250D01*
X597900Y204470D01*
G37*
G36*
X594879Y204470D02*
X595900Y204470D01*
X595900Y221250D01*
X586740Y221250D01*
X586740Y212609D01*
X588287Y208875D01*
X591145Y206017D01*
X594879Y204470D01*
G37*
G36*
X828458Y151232D02*
X847942Y151232D01*
X851863Y152856D01*
X854864Y155857D01*
X856488Y159778D01*
X856488Y164022D01*
X854864Y167943D01*
X851863Y170944D01*
X847942Y172568D01*
X828458Y172568D01*
X824537Y170944D01*
X821536Y167943D01*
X819912Y164022D01*
X819912Y159778D01*
X821536Y155857D01*
X824537Y152856D01*
X828458Y151232D01*
G37*
G36*
X628611Y42315D02*
X631229Y42315D01*
X633647Y43317D01*
X634885Y44554D01*
X635202Y44768D01*
X635592Y44847D01*
X691922Y44847D01*
X726554Y79479D01*
X726871Y79693D01*
X727261Y79772D01*
X787807Y79772D01*
X818205Y110170D01*
X818493Y110371D01*
X818880Y110463D01*
X819273Y110396D01*
X819608Y110181D01*
X819833Y109853D01*
X819912Y109463D01*
X819912Y108978D01*
X821536Y105057D01*
X824537Y102056D01*
X828458Y100432D01*
X847942Y100432D01*
X851863Y102056D01*
X854864Y105057D01*
X856488Y108978D01*
X856488Y113222D01*
X854864Y117143D01*
X851863Y120144D01*
X847942Y121768D01*
X833671Y121768D01*
X833296Y121841D01*
X832964Y122061D01*
X831932Y123093D01*
X831724Y123395D01*
X831639Y123784D01*
X831712Y124175D01*
X831932Y124507D01*
X832964Y125539D01*
X833281Y125753D01*
X833671Y125832D01*
X847942Y125832D01*
X851863Y127456D01*
X854864Y130457D01*
X856488Y134378D01*
X856488Y138622D01*
X854864Y142543D01*
X851863Y145544D01*
X847942Y147168D01*
X828458Y147168D01*
X824537Y145544D01*
X821536Y142543D01*
X819912Y138622D01*
X819912Y134378D01*
X820719Y132431D01*
X820794Y132080D01*
X820727Y131688D01*
X820513Y131352D01*
X820185Y131127D01*
X820069Y131104D01*
X782206Y93241D01*
X781889Y93027D01*
X781499Y92948D01*
X722223Y92948D01*
X693941Y64666D01*
X693624Y64452D01*
X693234Y64373D01*
X635592Y64373D01*
X635216Y64446D01*
X634885Y64666D01*
X633647Y65903D01*
X631229Y66905D01*
X628611Y66905D01*
X626193Y65903D01*
X624342Y64052D01*
X623340Y61634D01*
X623340Y59016D01*
X624342Y56598D01*
X625622Y55317D01*
X625830Y55015D01*
X625915Y54626D01*
X625842Y54235D01*
X625622Y53903D01*
X624342Y52622D01*
X623340Y50204D01*
X623340Y47586D01*
X624342Y45168D01*
X626193Y43317D01*
X628611Y42315D01*
G37*
G36*
X820420Y86700D02*
X837200Y86700D01*
X837200Y95860D01*
X828559Y95860D01*
X824825Y94313D01*
X821967Y91455D01*
X820420Y87721D01*
X820420Y86700D01*
G37*
G36*
X839200Y86700D02*
X855980Y86700D01*
X855980Y87721D01*
X854433Y91455D01*
X851575Y94313D01*
X847841Y95860D01*
X839200Y95860D01*
X839200Y86700D01*
G37*
G36*
X839200Y75540D02*
X847841Y75540D01*
X851575Y77087D01*
X854433Y79945D01*
X855980Y83679D01*
X855980Y84700D01*
X839200Y84700D01*
X839200Y75540D01*
G37*
G36*
X828559Y75540D02*
X837200Y75540D01*
X837200Y84700D01*
X820420Y84700D01*
X820420Y83679D01*
X821967Y79945D01*
X824825Y77087D01*
X828559Y75540D01*
G37*
%LPD*%
G36*
X483439Y98742D02*
X483049Y98663D01*
X434526Y98663D01*
X434151Y98736D01*
X433819Y98956D01*
X410983Y121792D01*
X410769Y122109D01*
X410690Y122499D01*
X410690Y124549D01*
X409650Y127059D01*
X407729Y128980D01*
X405089Y130074D01*
X404787Y130268D01*
X404557Y130593D01*
X404472Y130982D01*
X404545Y131373D01*
X404764Y131705D01*
X407784Y134724D01*
X408101Y134938D01*
X408491Y135017D01*
X413792Y135017D01*
X427227Y148452D01*
X427544Y148666D01*
X427934Y148745D01*
X429984Y148745D01*
X432494Y149785D01*
X434415Y151706D01*
X435455Y154216D01*
X435455Y156934D01*
X434415Y159444D01*
X432966Y160893D01*
X432752Y161210D01*
X432673Y161600D01*
X432673Y189637D01*
X429945Y192365D01*
X429744Y192653D01*
X429652Y193040D01*
X429719Y193433D01*
X429934Y193768D01*
X430262Y193993D01*
X430652Y194072D01*
X435424Y194072D01*
X435799Y193999D01*
X436131Y193779D01*
X454764Y175146D01*
X454978Y174829D01*
X455057Y174439D01*
X455057Y167826D01*
X454984Y167451D01*
X454764Y167119D01*
X447168Y159523D01*
X446851Y159309D01*
X446461Y159230D01*
X444411Y159230D01*
X441901Y158190D01*
X439980Y156269D01*
X438940Y153759D01*
X438940Y151041D01*
X439980Y148531D01*
X441901Y146610D01*
X444411Y145570D01*
X447129Y145570D01*
X449639Y146610D01*
X451560Y148531D01*
X452600Y151041D01*
X452600Y153091D01*
X452673Y153466D01*
X452893Y153798D01*
X463153Y164058D01*
X463153Y170058D01*
X463215Y170404D01*
X463424Y170742D01*
X463748Y170973D01*
X464137Y171058D01*
X464528Y170985D01*
X464860Y170765D01*
X495132Y140494D01*
X495342Y140184D01*
X495424Y139795D01*
X495348Y139404D01*
X494435Y137199D01*
X494435Y134581D01*
X495437Y132163D01*
X497288Y130312D01*
X499846Y129252D01*
X499896Y129243D01*
X500231Y129028D01*
X500456Y128700D01*
X500535Y128310D01*
X500535Y126276D01*
X501575Y123766D01*
X501754Y123587D01*
X501968Y123270D01*
X502047Y122880D01*
X502047Y117661D01*
X501974Y117286D01*
X501754Y116954D01*
X483756Y98956D01*
X483439Y98742D01*
G37*
G36*
X604235Y22177D02*
X603845Y22098D01*
X554544Y22098D01*
X554169Y22171D01*
X553837Y22391D01*
X535976Y40252D01*
X535772Y40547D01*
X535683Y40935D01*
X535753Y41327D01*
X535970Y41660D01*
X536300Y41883D01*
X536951Y42152D01*
X538873Y44074D01*
X539913Y46584D01*
X539913Y49269D01*
X539986Y49644D01*
X540205Y49976D01*
X544309Y54079D01*
X544626Y54293D01*
X545016Y54372D01*
X572236Y54372D01*
X572589Y54308D01*
X572926Y54096D01*
X573154Y53769D01*
X573236Y53380D01*
X573160Y52989D01*
X572290Y50889D01*
X572290Y48171D01*
X573330Y45661D01*
X575251Y43740D01*
X577761Y42700D01*
X580479Y42700D01*
X582989Y43740D01*
X584910Y45661D01*
X585632Y47403D01*
X585826Y47705D01*
X586151Y47935D01*
X586540Y48020D01*
X586931Y47947D01*
X587263Y47728D01*
X609943Y25047D01*
X610144Y24759D01*
X610236Y24372D01*
X610169Y23980D01*
X609954Y23644D01*
X609626Y23419D01*
X609236Y23340D01*
X606971Y23340D01*
X604347Y22253D01*
X604235Y22177D01*
G37*
G36*
X606274Y8127D02*
X605884Y8048D01*
X273997Y8048D01*
X273651Y8110D01*
X273313Y8319D01*
X273082Y8643D01*
X272997Y9032D01*
X273070Y9423D01*
X273290Y9755D01*
X282501Y18967D01*
X282796Y19171D01*
X283184Y19259D01*
X283576Y19189D01*
X283910Y18972D01*
X284132Y18642D01*
X285040Y16451D01*
X286961Y14530D01*
X289471Y13490D01*
X292189Y13490D01*
X294699Y14530D01*
X296620Y16451D01*
X297605Y18830D01*
X297811Y19143D01*
X298139Y19368D01*
X298529Y19447D01*
X420819Y19447D01*
X421194Y19374D01*
X421526Y19154D01*
X426948Y13732D01*
X456972Y13732D01*
X477845Y34605D01*
X478133Y34806D01*
X478520Y34898D01*
X478913Y34831D01*
X479248Y34616D01*
X479473Y34288D01*
X479552Y33898D01*
X479552Y24791D01*
X485801Y18542D01*
X494639Y18542D01*
X500888Y24791D01*
X500888Y33629D01*
X497342Y37175D01*
X497134Y37477D01*
X497049Y37866D01*
X497122Y38257D01*
X497342Y38589D01*
X498592Y39839D01*
X498909Y40053D01*
X499299Y40132D01*
X509041Y40132D01*
X509387Y40070D01*
X509725Y39861D01*
X509955Y39537D01*
X510041Y39148D01*
X509968Y38757D01*
X509748Y38425D01*
X504952Y33629D01*
X504952Y24791D01*
X511201Y18542D01*
X520039Y18542D01*
X526288Y24791D01*
X526288Y31720D01*
X526350Y32066D01*
X526559Y32404D01*
X526883Y32635D01*
X527272Y32720D01*
X527663Y32647D01*
X527995Y32427D01*
X548650Y11773D01*
X550703Y10922D01*
X603845Y10922D01*
X604220Y10849D01*
X604338Y10771D01*
X606267Y9972D01*
X606557Y9788D01*
X606792Y9467D01*
X606884Y9080D01*
X606817Y8688D01*
X606602Y8352D01*
X606274Y8127D01*
G37*
D10*
X845820Y85700D02*
X830580Y85700D01*
X830580Y111100D02*
X845820Y111100D01*
X845820Y136500D02*
X830580Y136500D01*
X830580Y161900D02*
X845820Y161900D01*
X622300Y214630D02*
X622300Y229870D01*
X596900Y229870D02*
X596900Y214630D01*
D11*
X234300Y175800D03*
X187300Y175800D03*
X187300Y150400D03*
X187300Y125000D03*
X187300Y99600D03*
X187300Y74200D03*
X234300Y150400D03*
X234300Y125000D03*
X234300Y99600D03*
X234300Y74200D03*
X132700Y175800D03*
X85700Y175800D03*
X85700Y150400D03*
X85700Y125000D03*
X85700Y99600D03*
X85700Y74200D03*
X132700Y150400D03*
X132700Y125000D03*
X132700Y99600D03*
X132700Y74200D03*
D12*
X490220Y29210D03*
X515620Y29210D03*
D13*
X725170Y53975D03*
D14*
X522605Y45720D02*
X496570Y45720D01*
X727710Y16510D02*
X736600Y25400D01*
X736600Y42545D01*
X725170Y53975D01*
X551815Y16510D02*
X522605Y45720D01*
X551815Y16510D02*
X608330Y16510D01*
X727710Y16510D01*
D15*
X608330Y16510D03*
X445770Y152400D03*
D16*
X459105Y165735D01*
X459105Y176530D01*
X437515Y198120D01*
X414655Y198120D01*
X412750Y200025D01*
X412750Y213388D01*
D15*
X412750Y213388D03*
D14*
X490220Y39370D02*
X490220Y29210D01*
X490220Y39370D02*
X496570Y45720D01*
D13*
X501650Y203200D03*
X597290Y151560D03*
X390525Y61595D03*
X382270Y127000D03*
X642620Y177165D03*
X292735Y208915D03*
X262255Y199390D03*
X306070Y198755D03*
X729615Y193675D03*
X744855Y193675D03*
X744855Y168910D03*
X729615Y168275D03*
X737235Y180340D03*
X751205Y103505D03*
X749300Y37465D03*
X673100Y103505D03*
X652780Y125730D03*
X464185Y121285D03*
X631825Y118110D03*
X737235Y226695D03*
X473075Y186055D03*
X455295Y205740D03*
X468630Y11430D03*
X600075Y24765D03*
X566420Y24130D03*
X675640Y34925D03*
X745490Y12065D03*
X551815Y44450D03*
X417830Y184150D03*
X402590Y150495D03*
X563245Y123190D03*
X556260Y186055D03*
X577215Y170180D03*
X533400Y191135D03*
X535940Y203835D03*
X593725Y194945D03*
X584200Y195580D03*
X563245Y139700D03*
X782320Y118110D03*
X796925Y133985D03*
X796925Y179705D03*
X791845Y110490D03*
X735330Y122555D03*
X756285Y121920D03*
X739775Y104775D03*
X761365Y104775D03*
X749300Y52070D03*
X803910Y155575D03*
X789940Y227965D03*
X574040Y232410D03*
X645160Y202565D03*
X805180Y73660D03*
X811530Y181610D03*
X830580Y219710D03*
X849630Y200660D03*
X855980Y232410D03*
X830580Y16510D03*
X843280Y35560D03*
X365760Y214630D03*
X374015Y172720D03*
X419735Y15240D03*
X297180Y61595D03*
X339090Y59055D03*
X384175Y77470D03*
X381635Y104140D03*
X96520Y237490D03*
X164465Y237490D03*
X234315Y238760D03*
X311150Y238760D03*
X367665Y238760D03*
X424815Y239395D03*
X494030Y239395D03*
X560070Y239395D03*
X532765Y11430D03*
X682625Y40005D03*
X174625Y194945D03*
X209550Y196215D03*
X129540Y189230D03*
X108585Y189865D03*
X95885Y12065D03*
X148590Y11430D03*
X96520Y53975D03*
X85090Y60960D03*
X222250Y11430D03*
X433070Y73660D03*
X433705Y108585D03*
X443865Y122555D03*
X752475Y238760D03*
X644525Y238125D03*
X769620Y10795D03*
X589280Y106045D03*
X503555Y11430D03*
D17*
X224155Y9525D02*
X222250Y11430D01*
X224155Y9525D02*
X280035Y9525D01*
X532765Y11430D02*
X535671Y8524D01*
X741949Y8524D02*
X745490Y12065D01*
X741949Y8524D02*
X535671Y8524D01*
D13*
X8890Y22860D03*
X8890Y219710D03*
X40640Y207010D03*
X40640Y41910D03*
X27940Y124460D03*
D14*
X539750Y222250D02*
X576580Y185420D01*
X652780Y185420D01*
X723900Y114300D02*
X768350Y114300D01*
D13*
X768350Y114300D03*
D14*
X539750Y222250D02*
X479425Y222250D01*
X652780Y185420D02*
X703898Y134303D01*
X723900Y114300D01*
X703898Y134303D02*
X698500Y128905D01*
X698500Y120650D01*
D13*
X698500Y120650D03*
D16*
X479425Y222250D02*
X478790Y221615D01*
X478790Y213200D01*
D13*
X478790Y213200D03*
D15*
X107315Y60960D03*
D16*
X112395Y66040D01*
X205105Y66040D02*
X213360Y57785D01*
D15*
X213360Y57785D03*
D16*
X205105Y66040D02*
X112395Y66040D01*
D14*
X400050Y222250D02*
X479425Y222250D01*
X400050Y222250D02*
X201295Y222250D01*
X184150Y205105D01*
D15*
X184150Y205105D03*
X401955Y78105D03*
D16*
X394335Y85725D01*
X394335Y127000D02*
X406400Y139065D01*
X412115Y139065D01*
X428625Y155575D01*
D15*
X428625Y155575D03*
D16*
X394335Y127000D02*
X394335Y85725D01*
X428625Y155575D02*
X428625Y187960D01*
X424093Y192492D02*
X414655Y192492D01*
X400050Y207097D01*
X400050Y222250D01*
X424093Y192492D02*
X428625Y187960D01*
X234300Y175800D02*
X187300Y175800D01*
X234300Y175800D02*
X252825Y175800D01*
X266700Y161925D01*
X282575Y161925D01*
D15*
X282575Y161925D03*
D16*
X132700Y150400D02*
X85700Y150400D01*
X132700Y150400D02*
X144225Y161925D01*
X254000Y161925D02*
X266700Y149225D01*
X282575Y149225D01*
D15*
X282575Y149225D03*
D16*
X254000Y161925D02*
X144225Y161925D01*
X187300Y150400D02*
X234300Y150400D01*
X252825Y150400D01*
X266700Y136525D02*
X282575Y136525D01*
D15*
X282575Y136525D03*
D16*
X266700Y136525D02*
X252825Y150400D01*
D15*
X282575Y123825D03*
D16*
X266700Y123825D01*
X144225Y136525D02*
X132700Y125000D01*
X254000Y136525D02*
X266700Y123825D01*
X254000Y136525D02*
X144225Y136525D01*
X132700Y125000D02*
X85700Y125000D01*
X187300Y125000D02*
X234300Y125000D01*
X252825Y125000D01*
X266700Y111125D02*
X282575Y111125D01*
D15*
X282575Y111125D03*
D16*
X266700Y111125D02*
X252825Y125000D01*
X132700Y99600D02*
X85700Y99600D01*
X132700Y99600D02*
X144860Y111760D01*
X266065Y98425D02*
X282575Y98425D01*
D15*
X282575Y98425D03*
D16*
X252730Y111760D02*
X144860Y111760D01*
X252730Y111760D02*
X266065Y98425D01*
X234300Y99600D02*
X187300Y99600D01*
X234300Y99600D02*
X252825Y99600D01*
D15*
X282575Y85725D03*
D16*
X266700Y85725D02*
X252825Y99600D01*
X266700Y85725D02*
X282575Y85725D01*
X132700Y74200D02*
X85700Y74200D01*
X132700Y74200D02*
X146130Y87630D01*
X266700Y73025D02*
X282575Y73025D01*
D15*
X282575Y73025D03*
D16*
X252095Y87630D02*
X146130Y87630D01*
X252095Y87630D02*
X266700Y73025D01*
X132700Y175800D02*
X85700Y175800D01*
X132700Y175800D02*
X141050Y184150D01*
D15*
X282575Y184150D03*
D16*
X141050Y184150D01*
X187300Y74200D02*
X234300Y74200D01*
X257270Y74200D01*
X273050Y58420D02*
X282575Y58420D01*
D15*
X282575Y58420D03*
D16*
X273050Y58420D02*
X257270Y74200D01*
D15*
X541020Y95885D03*
D16*
X551815Y85090D01*
X575945Y85090D02*
X579120Y81915D01*
X575945Y85090D02*
X551815Y85090D01*
X579120Y81915D02*
X579120Y60960D01*
X576580Y58420D01*
X542925Y58420D01*
X532765Y48260D01*
X533083Y47943D01*
D15*
X533083Y47943D03*
X403860Y123190D03*
D16*
X432435Y94615D01*
X485140Y94615D02*
X506095Y115570D01*
X506095Y126365D01*
D15*
X507365Y127635D03*
D16*
X485140Y94615D02*
X432435Y94615D01*
X506095Y126365D02*
X507365Y127635D01*
D15*
X401955Y90805D03*
D16*
X487045Y90805D01*
X513715Y117475D02*
X513715Y118745D01*
D15*
X513715Y118745D03*
D16*
X513715Y117475D02*
X487045Y90805D01*
X505460Y177800D02*
X514350Y177800D01*
X505460Y177800D02*
X505400Y177860D01*
D13*
X505400Y177860D03*
D16*
X514350Y177800D02*
X551180Y140970D01*
D15*
X257175Y29845D03*
D16*
X262255Y34925D01*
X461645Y34925D01*
X522605Y95885D02*
X530860Y95885D01*
X551180Y116205D01*
X522605Y95885D02*
X461645Y34925D01*
X551180Y116205D02*
X551180Y140970D01*
D13*
X537845Y128270D03*
D15*
X257175Y47625D03*
D16*
X520065Y103505D02*
X525780Y103505D01*
X537845Y115570D01*
X520065Y103505D02*
X459105Y42545D01*
X537845Y115570D02*
X537845Y128270D01*
X262255Y42545D02*
X257175Y47625D01*
X262255Y42545D02*
X459105Y42545D01*
X513080Y153035D02*
X526415Y153035D01*
D13*
X513080Y153035D03*
D16*
X526415Y153035D02*
X546100Y133350D01*
D15*
X257175Y38735D03*
D16*
X460375Y38735D01*
X521335Y99695D01*
X529590Y99695D01*
X546100Y116205D01*
X546100Y133350D01*
D15*
X257175Y65405D03*
D16*
X272415Y50165D01*
D15*
X521335Y143510D03*
D16*
X450850Y52705D02*
X448310Y50165D01*
X272415Y50165D01*
X450850Y52705D02*
X459105Y52705D01*
X521335Y114935D01*
X521335Y143510D01*
D15*
X257175Y56515D03*
D16*
X267335Y46355D01*
X527050Y133350D02*
X528955Y135255D01*
D15*
X528955Y135255D03*
D16*
X457835Y46355D02*
X267335Y46355D01*
X457835Y46355D02*
X527050Y115570D01*
X527050Y133350D01*
D13*
X561975Y111760D03*
D16*
X588645Y85090D01*
X588645Y52070D01*
D13*
X717550Y38100D03*
D16*
X706215Y26765D01*
X613950Y26765D02*
X588645Y52070D01*
X613950Y26765D02*
X706215Y26765D01*
D15*
X551180Y95885D03*
D16*
X558165Y88900D01*
X579120Y88900D02*
X582930Y85090D01*
X582930Y53340D01*
X579120Y49530D01*
D15*
X579120Y49530D03*
D16*
X579120Y88900D02*
X558165Y88900D01*
D13*
X629920Y60325D03*
D16*
X695325Y60325D01*
X723900Y88900D01*
X783590Y88900D01*
X821690Y127000D01*
X828700Y127000D02*
X838200Y136500D01*
X828700Y127000D02*
X821690Y127000D01*
D13*
X629920Y48895D03*
D16*
X690245Y48895D01*
X725170Y83820D01*
X786130Y83820D01*
X828650Y120650D02*
X838200Y111100D01*
X828650Y120650D02*
X822960Y120650D01*
X786130Y83820D01*
D13*
X421640Y206375D03*
X501015Y135890D03*
D16*
X434975Y206375D02*
X421640Y206375D01*
X501015Y140335D02*
X501015Y135890D01*
X501015Y140335D02*
X434975Y206375D01*
D13*
X523875Y203200D03*
D16*
X523875Y177165D01*
X554990Y146050D01*
D15*
X561975Y99060D03*
D16*
X554990Y106045D02*
X554990Y146050D01*
X554990Y106045D02*
X561975Y99060D01*
D15*
X179070Y26035D03*
D16*
X146685Y58420D01*
X134620Y58420D01*
D15*
X134620Y58420D03*
D16*
X179070Y26035D02*
X231140Y26035D01*
X243205Y13970D01*
X271780Y13970D01*
X285115Y27305D01*
X430530Y27305D02*
X433070Y24765D01*
X433705Y24765D01*
D15*
X433705Y24765D03*
D16*
X430530Y27305D02*
X285115Y27305D01*
D15*
X290830Y20320D03*
D16*
X294005Y23495D01*
X500380Y62865D02*
X504825Y62865D01*
D15*
X504825Y62865D03*
D16*
X422910Y23495D02*
X294005Y23495D01*
X422910Y23495D02*
X428625Y17780D01*
X455295Y17780D01*
X500380Y62865D01*
D15*
X257175Y20955D03*
D16*
X267335Y31115D01*
D15*
X570230Y71120D03*
D16*
X462915Y31115D02*
X267335Y31115D01*
X462915Y31115D02*
X504190Y72390D01*
X568960Y72390D02*
X570230Y71120D01*
X568960Y72390D02*
X504190Y72390D01*
M02*
