G04 EAGLE Gerber RS-274X export*
G75*
%MOMM*%
%FSLAX34Y34*%
%LPD*%
%INSilkscreen Top*%
%IPPOS*%
%AMOC8*
5,1,8,0,0,1.08239X$1,22.5*%
G01*
G04 Define Apertures*
%ADD10C,0.152400*%
%ADD11C,0.200000*%
%ADD12C,0.203200*%
%ADD13R,0.150000X0.300000*%
%ADD14R,0.300000X0.300000*%
G36*
X772245Y76200D02*
X770572Y76200D01*
X770572Y88541D01*
X776379Y88541D01*
X776885Y88526D01*
X777361Y88482D01*
X777808Y88410D01*
X778226Y88308D01*
X778613Y88176D01*
X778971Y88016D01*
X779299Y87827D01*
X779597Y87608D01*
X779863Y87363D01*
X780094Y87096D01*
X780289Y86806D01*
X780448Y86492D01*
X780572Y86156D01*
X780661Y85797D01*
X780714Y85416D01*
X780732Y85011D01*
X780719Y84674D01*
X780681Y84351D01*
X780619Y84041D01*
X780531Y83745D01*
X780419Y83463D01*
X780281Y83195D01*
X780118Y82940D01*
X779930Y82699D01*
X779720Y82475D01*
X779491Y82274D01*
X779244Y82093D01*
X779133Y82027D01*
X778977Y81935D01*
X778691Y81798D01*
X778386Y81682D01*
X778062Y81589D01*
X777719Y81516D01*
X779210Y79253D01*
X781222Y76200D01*
X779295Y76200D01*
X776090Y81324D01*
X772245Y81324D01*
X772245Y76200D01*
G37*
%LPC*%
G36*
X776282Y82646D02*
X776603Y82656D01*
X776906Y82685D01*
X777190Y82733D01*
X777455Y82801D01*
X777701Y82887D01*
X777929Y82994D01*
X778137Y83119D01*
X778327Y83264D01*
X778497Y83426D01*
X778643Y83603D01*
X778768Y83796D01*
X778869Y84005D01*
X778948Y84229D01*
X779005Y84468D01*
X779039Y84723D01*
X779050Y84994D01*
X779038Y85255D01*
X779004Y85500D01*
X778947Y85730D01*
X778867Y85943D01*
X778764Y86140D01*
X778639Y86321D01*
X778490Y86487D01*
X778319Y86636D01*
X778126Y86768D01*
X777913Y86883D01*
X777680Y86980D01*
X777426Y87060D01*
X777153Y87121D01*
X776859Y87165D01*
X776546Y87192D01*
X776212Y87201D01*
X772245Y87201D01*
X772245Y82646D01*
X776282Y82646D01*
G37*
%LPD*%
G36*
X801080Y76200D02*
X792909Y76200D01*
X792909Y77312D01*
X793144Y77810D01*
X793405Y78277D01*
X793689Y78714D01*
X793999Y79121D01*
X794325Y79504D01*
X794659Y79868D01*
X795002Y80213D01*
X795352Y80540D01*
X796058Y81152D01*
X796758Y81718D01*
X797420Y82261D01*
X798015Y82804D01*
X798282Y83079D01*
X798522Y83360D01*
X798735Y83648D01*
X798921Y83943D01*
X799073Y84250D01*
X799181Y84578D01*
X799246Y84925D01*
X799267Y85291D01*
X799258Y85538D01*
X799230Y85771D01*
X799184Y85989D01*
X799118Y86193D01*
X799035Y86383D01*
X798932Y86559D01*
X798811Y86721D01*
X798672Y86868D01*
X798516Y86999D01*
X798345Y87113D01*
X798160Y87209D01*
X797960Y87288D01*
X797746Y87350D01*
X797517Y87393D01*
X797274Y87420D01*
X797016Y87428D01*
X796770Y87420D01*
X796535Y87394D01*
X796311Y87351D01*
X796098Y87292D01*
X795896Y87215D01*
X795705Y87121D01*
X795525Y87009D01*
X795357Y86881D01*
X795202Y86737D01*
X795064Y86580D01*
X794943Y86408D01*
X794839Y86223D01*
X794751Y86024D01*
X794681Y85811D01*
X794627Y85584D01*
X794590Y85344D01*
X792979Y85493D01*
X793037Y85853D01*
X793123Y86195D01*
X793238Y86518D01*
X793380Y86822D01*
X793552Y87107D01*
X793751Y87373D01*
X793979Y87620D01*
X794236Y87849D01*
X794516Y88054D01*
X794815Y88232D01*
X795134Y88383D01*
X795472Y88506D01*
X795829Y88602D01*
X796205Y88670D01*
X796601Y88711D01*
X797016Y88725D01*
X797469Y88711D01*
X797895Y88670D01*
X798294Y88601D01*
X798666Y88505D01*
X799011Y88381D01*
X799329Y88230D01*
X799621Y88051D01*
X799885Y87844D01*
X800120Y87613D01*
X800324Y87358D01*
X800496Y87080D01*
X800637Y86779D01*
X800747Y86455D01*
X800825Y86108D01*
X800872Y85737D01*
X800888Y85344D01*
X800867Y84985D01*
X800806Y84628D01*
X800703Y84272D01*
X800559Y83916D01*
X800375Y83562D01*
X800151Y83207D01*
X799887Y82852D01*
X799583Y82497D01*
X799185Y82094D01*
X798639Y81593D01*
X797945Y80995D01*
X797104Y80299D01*
X796626Y79897D01*
X796200Y79516D01*
X795825Y79155D01*
X795501Y78814D01*
X795224Y78487D01*
X794989Y78165D01*
X794795Y77850D01*
X794643Y77540D01*
X801080Y77540D01*
X801080Y76200D01*
G37*
G36*
X791138Y76200D02*
X783404Y76200D01*
X783404Y77540D01*
X786548Y77540D01*
X786548Y87034D01*
X783763Y85046D01*
X783763Y86535D01*
X786680Y88541D01*
X788134Y88541D01*
X788134Y77540D01*
X791138Y77540D01*
X791138Y76200D01*
G37*
G36*
X156536Y56070D02*
X154144Y56070D01*
X154144Y58757D01*
X156536Y58757D01*
X156536Y56070D01*
G37*
D10*
X498350Y88750D02*
X498350Y158850D01*
X568450Y158850D01*
X568450Y92300D01*
X564900Y88750D02*
X498350Y88750D01*
X564900Y88750D02*
X568450Y92300D01*
X557240Y96368D02*
X557242Y96487D01*
X557248Y96607D01*
X557258Y96726D01*
X557272Y96844D01*
X557290Y96962D01*
X557311Y97080D01*
X557337Y97196D01*
X557366Y97312D01*
X557400Y97427D01*
X557437Y97540D01*
X557478Y97652D01*
X557522Y97763D01*
X557570Y97873D01*
X557622Y97980D01*
X557677Y98086D01*
X557736Y98190D01*
X557799Y98292D01*
X557864Y98391D01*
X557933Y98489D01*
X558005Y98584D01*
X558080Y98677D01*
X558159Y98767D01*
X558240Y98855D01*
X558324Y98939D01*
X558411Y99021D01*
X558500Y99100D01*
X558592Y99176D01*
X558687Y99249D01*
X558784Y99319D01*
X558883Y99385D01*
X558985Y99448D01*
X559088Y99508D01*
X559193Y99564D01*
X559300Y99617D01*
X559409Y99666D01*
X559520Y99712D01*
X559632Y99753D01*
X559745Y99791D01*
X559859Y99826D01*
X559975Y99856D01*
X560091Y99883D01*
X560208Y99905D01*
X560326Y99924D01*
X560445Y99939D01*
X560564Y99950D01*
X560683Y99957D01*
X560802Y99960D01*
X560922Y99959D01*
X561041Y99954D01*
X561160Y99945D01*
X561279Y99932D01*
X561397Y99915D01*
X561514Y99895D01*
X561631Y99870D01*
X561747Y99841D01*
X561862Y99809D01*
X561976Y99773D01*
X562089Y99733D01*
X562200Y99689D01*
X562309Y99642D01*
X562417Y99591D01*
X562524Y99537D01*
X562628Y99479D01*
X562730Y99417D01*
X562831Y99353D01*
X562929Y99284D01*
X563025Y99213D01*
X563118Y99139D01*
X563209Y99061D01*
X563297Y98981D01*
X563382Y98897D01*
X563465Y98811D01*
X563545Y98722D01*
X563622Y98631D01*
X563695Y98537D01*
X563766Y98440D01*
X563833Y98342D01*
X563897Y98241D01*
X563958Y98138D01*
X564015Y98033D01*
X564068Y97927D01*
X564118Y97818D01*
X564165Y97708D01*
X564207Y97597D01*
X564246Y97484D01*
X564282Y97370D01*
X564313Y97254D01*
X564340Y97138D01*
X564364Y97021D01*
X564384Y96903D01*
X564400Y96785D01*
X564412Y96666D01*
X564420Y96547D01*
X564424Y96428D01*
X564424Y96308D01*
X564420Y96189D01*
X564412Y96070D01*
X564400Y95951D01*
X564384Y95833D01*
X564364Y95715D01*
X564340Y95598D01*
X564313Y95482D01*
X564282Y95366D01*
X564246Y95252D01*
X564207Y95139D01*
X564165Y95028D01*
X564118Y94918D01*
X564068Y94809D01*
X564015Y94703D01*
X563958Y94598D01*
X563897Y94495D01*
X563833Y94394D01*
X563766Y94296D01*
X563695Y94199D01*
X563622Y94105D01*
X563545Y94014D01*
X563465Y93925D01*
X563382Y93839D01*
X563297Y93755D01*
X563209Y93675D01*
X563118Y93597D01*
X563025Y93523D01*
X562929Y93452D01*
X562831Y93383D01*
X562730Y93319D01*
X562628Y93257D01*
X562524Y93199D01*
X562417Y93145D01*
X562309Y93094D01*
X562200Y93047D01*
X562089Y93003D01*
X561976Y92963D01*
X561862Y92927D01*
X561747Y92895D01*
X561631Y92866D01*
X561514Y92841D01*
X561397Y92821D01*
X561279Y92804D01*
X561160Y92791D01*
X561041Y92782D01*
X560922Y92777D01*
X560802Y92776D01*
X560683Y92779D01*
X560564Y92786D01*
X560445Y92797D01*
X560326Y92812D01*
X560208Y92831D01*
X560091Y92853D01*
X559975Y92880D01*
X559859Y92910D01*
X559745Y92945D01*
X559632Y92983D01*
X559520Y93024D01*
X559409Y93070D01*
X559300Y93119D01*
X559193Y93172D01*
X559088Y93228D01*
X558985Y93288D01*
X558883Y93351D01*
X558784Y93417D01*
X558687Y93487D01*
X558592Y93560D01*
X558500Y93636D01*
X558411Y93715D01*
X558324Y93797D01*
X558240Y93881D01*
X558159Y93969D01*
X558080Y94059D01*
X558005Y94152D01*
X557933Y94247D01*
X557864Y94345D01*
X557799Y94444D01*
X557736Y94546D01*
X557677Y94650D01*
X557622Y94756D01*
X557570Y94863D01*
X557522Y94973D01*
X557478Y95084D01*
X557437Y95196D01*
X557400Y95309D01*
X557366Y95424D01*
X557337Y95540D01*
X557311Y95656D01*
X557290Y95774D01*
X557272Y95892D01*
X557258Y96010D01*
X557248Y96129D01*
X557242Y96249D01*
X557240Y96368D01*
D11*
X625950Y132750D02*
X626012Y132752D01*
X626073Y132758D01*
X626134Y132767D01*
X626194Y132780D01*
X626253Y132797D01*
X626311Y132818D01*
X626368Y132842D01*
X626423Y132869D01*
X626476Y132900D01*
X626528Y132934D01*
X626577Y132971D01*
X626624Y133011D01*
X626668Y133054D01*
X626709Y133099D01*
X626748Y133147D01*
X626784Y133198D01*
X626816Y133250D01*
X626845Y133304D01*
X626871Y133360D01*
X626893Y133418D01*
X626912Y133476D01*
X626927Y133536D01*
X626938Y133597D01*
X626946Y133658D01*
X626950Y133719D01*
X626950Y133781D01*
X626946Y133842D01*
X626938Y133903D01*
X626927Y133964D01*
X626912Y134024D01*
X626893Y134082D01*
X626871Y134140D01*
X626845Y134196D01*
X626816Y134250D01*
X626784Y134302D01*
X626748Y134353D01*
X626709Y134401D01*
X626668Y134446D01*
X626624Y134489D01*
X626577Y134529D01*
X626528Y134566D01*
X626476Y134600D01*
X626423Y134631D01*
X626368Y134658D01*
X626311Y134682D01*
X626253Y134703D01*
X626194Y134720D01*
X626134Y134733D01*
X626073Y134742D01*
X626012Y134748D01*
X625950Y134750D01*
X625888Y134748D01*
X625827Y134742D01*
X625766Y134733D01*
X625706Y134720D01*
X625647Y134703D01*
X625589Y134682D01*
X625532Y134658D01*
X625477Y134631D01*
X625424Y134600D01*
X625372Y134566D01*
X625323Y134529D01*
X625276Y134489D01*
X625232Y134446D01*
X625191Y134401D01*
X625152Y134353D01*
X625116Y134302D01*
X625084Y134250D01*
X625055Y134196D01*
X625029Y134140D01*
X625007Y134082D01*
X624988Y134024D01*
X624973Y133964D01*
X624962Y133903D01*
X624954Y133842D01*
X624950Y133781D01*
X624950Y133719D01*
X624954Y133658D01*
X624962Y133597D01*
X624973Y133536D01*
X624988Y133476D01*
X625007Y133418D01*
X625029Y133360D01*
X625055Y133304D01*
X625084Y133250D01*
X625116Y133198D01*
X625152Y133147D01*
X625191Y133099D01*
X625232Y133054D01*
X625276Y133011D01*
X625323Y132971D01*
X625372Y132934D01*
X625424Y132900D01*
X625477Y132869D01*
X625532Y132842D01*
X625589Y132818D01*
X625647Y132797D01*
X625706Y132780D01*
X625766Y132767D01*
X625827Y132758D01*
X625888Y132752D01*
X625950Y132750D01*
X464185Y150960D02*
X464185Y161460D01*
X434800Y182100D02*
X428800Y182100D01*
X428800Y211600D01*
X434800Y211600D01*
X434800Y182100D01*
X438300Y181850D02*
X450300Y181850D01*
X358600Y10650D02*
X352600Y10650D01*
X352600Y40150D01*
X358600Y40150D01*
X358600Y10650D01*
X362100Y10400D02*
X374100Y10400D01*
X375160Y154250D02*
X407160Y154250D01*
X407160Y55250D01*
X375160Y55250D01*
X375160Y154250D01*
X371660Y156200D02*
X356160Y156200D01*
X745800Y59130D02*
X752800Y59130D01*
X752800Y29770D01*
X745800Y29770D01*
X745800Y59130D01*
X742300Y59450D02*
X730300Y59450D01*
X736990Y10260D02*
X761090Y10260D01*
X753990Y22760D02*
X736990Y22760D01*
X567200Y28750D02*
X567200Y34750D01*
X567200Y28750D02*
X537700Y28750D01*
X537700Y34750D01*
X567200Y34750D01*
X567450Y38250D02*
X567450Y50250D01*
D12*
X656005Y14735D02*
X661005Y14735D01*
D11*
X756735Y154925D02*
X771985Y154925D01*
D13*
X680435Y207875D03*
X692435Y207875D03*
D14*
X686435Y207875D03*
D10*
X825500Y130150D02*
X831850Y123800D01*
X825500Y130150D02*
X825500Y142850D01*
X831850Y149200D01*
X844550Y149200D01*
X850900Y142850D01*
X850900Y130150D01*
X844550Y123800D01*
X825500Y92050D02*
X825500Y79350D01*
X825500Y92050D02*
X831850Y98400D01*
X844550Y98400D01*
X850900Y92050D01*
X831850Y98400D02*
X825500Y104750D01*
X825500Y117450D01*
X831850Y123800D01*
X844550Y123800D01*
X850900Y117450D01*
X850900Y104750D01*
X844550Y98400D01*
X844550Y73000D02*
X831850Y73000D01*
X825500Y79350D01*
X844550Y73000D02*
X850900Y79350D01*
X850900Y92050D01*
X825500Y155550D02*
X825500Y168250D01*
X831850Y174600D01*
X844550Y174600D01*
X850900Y168250D01*
X831850Y149200D02*
X825500Y155550D01*
X844550Y149200D02*
X850900Y155550D01*
X850900Y168250D01*
X628650Y209550D02*
X615950Y209550D01*
X609600Y215900D01*
X609600Y228600D01*
X615950Y234950D01*
X635000Y228600D02*
X635000Y215900D01*
X628650Y209550D01*
X635000Y228600D02*
X628650Y234950D01*
X615950Y234950D01*
X609600Y215900D02*
X603250Y209550D01*
X590550Y209550D01*
X584200Y215900D01*
X584200Y228600D01*
X590550Y234950D01*
X603250Y234950D01*
X609600Y228600D01*
D11*
X481890Y213390D02*
X481892Y213419D01*
X481898Y213447D01*
X481907Y213474D01*
X481921Y213499D01*
X481937Y213523D01*
X481957Y213543D01*
X481979Y213562D01*
X482003Y213576D01*
X482030Y213588D01*
X482057Y213596D01*
X482086Y213600D01*
X482114Y213600D01*
X482143Y213596D01*
X482170Y213588D01*
X482197Y213576D01*
X482221Y213562D01*
X482243Y213543D01*
X482263Y213523D01*
X482279Y213499D01*
X482293Y213474D01*
X482302Y213447D01*
X482308Y213419D01*
X482310Y213390D01*
X482308Y213361D01*
X482302Y213333D01*
X482293Y213306D01*
X482279Y213281D01*
X482263Y213257D01*
X482243Y213237D01*
X482221Y213218D01*
X482197Y213204D01*
X482170Y213192D01*
X482143Y213184D01*
X482114Y213180D01*
X482086Y213180D01*
X482057Y213184D01*
X482030Y213192D01*
X482003Y213204D01*
X481979Y213218D01*
X481957Y213237D01*
X481937Y213257D01*
X481921Y213281D01*
X481907Y213306D01*
X481898Y213333D01*
X481892Y213361D01*
X481890Y213390D01*
X778150Y22760D02*
X802250Y22760D01*
X802250Y10260D02*
X785250Y10260D01*
X110750Y195820D02*
X109250Y195820D01*
X109250Y225020D01*
X110750Y225020D01*
X110750Y195820D01*
X114250Y195420D02*
X126750Y195420D01*
X110750Y18630D02*
X109250Y18630D01*
X109250Y47830D01*
X110750Y47830D01*
X110750Y18630D01*
X114250Y18230D02*
X126750Y18230D01*
X149250Y18630D02*
X150750Y18630D01*
X149250Y18630D02*
X149250Y47830D01*
X150750Y47830D01*
X150750Y18630D01*
X154250Y18230D02*
X166750Y18230D01*
X150750Y195820D02*
X149250Y195820D01*
X149250Y225020D01*
X150750Y225020D01*
X150750Y195820D01*
X154250Y195420D02*
X166750Y195420D01*
X428625Y173525D02*
X428625Y163025D01*
X349075Y181465D02*
X343075Y181465D01*
X343075Y210965D01*
X349075Y210965D01*
X349075Y181465D01*
X352575Y181215D02*
X364575Y181215D01*
X384565Y181075D02*
X408665Y181075D01*
X401565Y193575D02*
X384565Y193575D01*
D10*
X483870Y41910D02*
X496570Y41910D01*
X502920Y35560D01*
X502920Y22860D01*
X496570Y16510D01*
X477520Y22860D02*
X477520Y35560D01*
X483870Y41910D01*
X477520Y22860D02*
X483870Y16510D01*
X496570Y16510D01*
X509270Y41910D02*
X521970Y41910D01*
X528320Y35560D01*
X528320Y22860D01*
X521970Y16510D01*
X502920Y22860D02*
X502920Y35560D01*
X509270Y41910D01*
X502920Y22860D02*
X509270Y16510D01*
X521970Y16510D01*
X178830Y48850D02*
X-5250Y48850D01*
X-5250Y198850D02*
X178830Y198850D01*
X178830Y48850D01*
X-5250Y48850D02*
X-5250Y198850D01*
X26500Y187350D02*
X26500Y161950D01*
X26500Y187350D02*
X1100Y187350D01*
X1100Y161950D01*
X26500Y161950D01*
X7450Y174650D02*
X7452Y174809D01*
X7458Y174968D01*
X7468Y175126D01*
X7482Y175285D01*
X7500Y175443D01*
X7521Y175600D01*
X7547Y175757D01*
X7577Y175913D01*
X7610Y176069D01*
X7648Y176223D01*
X7689Y176377D01*
X7734Y176529D01*
X7783Y176680D01*
X7836Y176830D01*
X7892Y176979D01*
X7953Y177126D01*
X8016Y177271D01*
X8084Y177415D01*
X8155Y177558D01*
X8229Y177698D01*
X8307Y177836D01*
X8389Y177973D01*
X8474Y178107D01*
X8562Y178240D01*
X8653Y178370D01*
X8748Y178497D01*
X8846Y178622D01*
X8947Y178745D01*
X9051Y178865D01*
X9158Y178983D01*
X9268Y179098D01*
X9381Y179210D01*
X9496Y179319D01*
X9614Y179425D01*
X9735Y179529D01*
X9859Y179629D01*
X9984Y179726D01*
X10113Y179820D01*
X10243Y179910D01*
X10376Y179998D01*
X10511Y180082D01*
X10648Y180162D01*
X10787Y180240D01*
X10928Y180313D01*
X11070Y180383D01*
X11215Y180450D01*
X11361Y180513D01*
X11508Y180572D01*
X11657Y180628D01*
X11808Y180679D01*
X11959Y180727D01*
X12112Y180771D01*
X12266Y180812D01*
X12420Y180848D01*
X12576Y180881D01*
X12732Y180910D01*
X12889Y180934D01*
X13047Y180955D01*
X13205Y180972D01*
X13363Y180985D01*
X13522Y180994D01*
X13681Y180999D01*
X13840Y181000D01*
X13999Y180997D01*
X14157Y180990D01*
X14316Y180979D01*
X14474Y180964D01*
X14632Y180945D01*
X14789Y180922D01*
X14946Y180896D01*
X15102Y180865D01*
X15257Y180831D01*
X15411Y180792D01*
X15565Y180750D01*
X15717Y180704D01*
X15868Y180654D01*
X16017Y180600D01*
X16166Y180543D01*
X16312Y180482D01*
X16458Y180417D01*
X16601Y180349D01*
X16743Y180277D01*
X16883Y180201D01*
X17021Y180123D01*
X17157Y180040D01*
X17291Y179955D01*
X17422Y179866D01*
X17552Y179773D01*
X17679Y179678D01*
X17803Y179579D01*
X17926Y179477D01*
X18045Y179373D01*
X18162Y179265D01*
X18276Y179154D01*
X18387Y179041D01*
X18496Y178925D01*
X18601Y178806D01*
X18704Y178684D01*
X18803Y178560D01*
X18900Y178434D01*
X18993Y178305D01*
X19083Y178174D01*
X19169Y178040D01*
X19252Y177905D01*
X19332Y177767D01*
X19408Y177628D01*
X19481Y177487D01*
X19550Y177344D01*
X19616Y177199D01*
X19678Y177052D01*
X19736Y176905D01*
X19791Y176755D01*
X19842Y176605D01*
X19889Y176453D01*
X19932Y176300D01*
X19971Y176146D01*
X20007Y175991D01*
X20038Y175835D01*
X20066Y175679D01*
X20090Y175522D01*
X20110Y175364D01*
X20126Y175206D01*
X20138Y175047D01*
X20146Y174888D01*
X20150Y174729D01*
X20150Y174571D01*
X20146Y174412D01*
X20138Y174253D01*
X20126Y174094D01*
X20110Y173936D01*
X20090Y173778D01*
X20066Y173621D01*
X20038Y173465D01*
X20007Y173309D01*
X19971Y173154D01*
X19932Y173000D01*
X19889Y172847D01*
X19842Y172695D01*
X19791Y172545D01*
X19736Y172395D01*
X19678Y172248D01*
X19616Y172101D01*
X19550Y171956D01*
X19481Y171813D01*
X19408Y171672D01*
X19332Y171533D01*
X19252Y171395D01*
X19169Y171260D01*
X19083Y171126D01*
X18993Y170995D01*
X18900Y170866D01*
X18803Y170740D01*
X18704Y170616D01*
X18601Y170494D01*
X18496Y170375D01*
X18387Y170259D01*
X18276Y170146D01*
X18162Y170035D01*
X18045Y169927D01*
X17926Y169823D01*
X17803Y169721D01*
X17679Y169622D01*
X17552Y169527D01*
X17422Y169434D01*
X17291Y169345D01*
X17157Y169260D01*
X17021Y169177D01*
X16883Y169099D01*
X16743Y169023D01*
X16601Y168951D01*
X16458Y168883D01*
X16312Y168818D01*
X16166Y168757D01*
X16017Y168700D01*
X15868Y168646D01*
X15717Y168596D01*
X15565Y168550D01*
X15411Y168508D01*
X15257Y168469D01*
X15102Y168435D01*
X14946Y168404D01*
X14789Y168378D01*
X14632Y168355D01*
X14474Y168336D01*
X14316Y168321D01*
X14157Y168310D01*
X13999Y168303D01*
X13840Y168300D01*
X13681Y168301D01*
X13522Y168306D01*
X13363Y168315D01*
X13205Y168328D01*
X13047Y168345D01*
X12889Y168366D01*
X12732Y168390D01*
X12576Y168419D01*
X12420Y168452D01*
X12266Y168488D01*
X12112Y168529D01*
X11959Y168573D01*
X11808Y168621D01*
X11657Y168672D01*
X11508Y168728D01*
X11361Y168787D01*
X11215Y168850D01*
X11070Y168917D01*
X10928Y168987D01*
X10787Y169060D01*
X10648Y169138D01*
X10511Y169218D01*
X10376Y169302D01*
X10243Y169390D01*
X10113Y169480D01*
X9984Y169574D01*
X9859Y169671D01*
X9735Y169771D01*
X9614Y169875D01*
X9496Y169981D01*
X9381Y170090D01*
X9268Y170202D01*
X9158Y170317D01*
X9051Y170435D01*
X8947Y170555D01*
X8846Y170678D01*
X8748Y170803D01*
X8653Y170930D01*
X8562Y171060D01*
X8474Y171193D01*
X8389Y171327D01*
X8307Y171464D01*
X8229Y171602D01*
X8155Y171742D01*
X8084Y171885D01*
X8016Y172029D01*
X7953Y172174D01*
X7892Y172321D01*
X7836Y172470D01*
X7783Y172620D01*
X7734Y172771D01*
X7689Y172923D01*
X7648Y173077D01*
X7610Y173231D01*
X7577Y173387D01*
X7547Y173543D01*
X7521Y173700D01*
X7500Y173857D01*
X7482Y174015D01*
X7468Y174174D01*
X7458Y174332D01*
X7452Y174491D01*
X7450Y174650D01*
M02*
