G04 EAGLE Gerber RS-274X export*
G75*
%MOMM*%
%FSLAX34Y34*%
%LPD*%
%INSolderpaste Top*%
%IPPOS*%
%AMOC8*
5,1,8,0,0,1.08239X$1,22.5*%
G01*
G04 Define Apertures*
%ADD10R,1.270000X0.558800*%
%ADD11R,0.558800X1.270000*%
%ADD12R,1.200000X1.400000*%
%ADD13R,1.000000X1.100000*%
%ADD14R,1.100000X1.000000*%
%ADD15R,1.200000X1.450000*%
%ADD16R,1.200000X0.600000*%
%ADD17R,1.550000X0.700000*%
%ADD18R,0.820000X0.420000*%
%ADD19R,0.600000X1.200000*%
%ADD20R,2.200000X0.600000*%
%ADD21R,1.525000X0.700000*%
%ADD22R,2.513000X3.402000*%
%ADD23R,1.200000X1.200000*%
%ADD24R,0.925000X0.300000*%
%ADD25R,0.300000X0.800000*%
%ADD26R,1.250000X0.600000*%
%ADD27R,2.500000X0.635000*%
%ADD28C,1.000000*%
D10*
X576326Y95800D03*
X576326Y103800D03*
X576326Y111800D03*
X576326Y119800D03*
X576326Y127800D03*
X576326Y135800D03*
X576326Y143800D03*
X576326Y151800D03*
D11*
X561400Y166726D03*
X553400Y166726D03*
X545400Y166726D03*
X537400Y166726D03*
X529400Y166726D03*
X521400Y166726D03*
X513400Y166726D03*
X505400Y166726D03*
D10*
X490474Y151800D03*
X490474Y143800D03*
X490474Y135800D03*
X490474Y127800D03*
X490474Y119800D03*
X490474Y111800D03*
X490474Y103800D03*
X490474Y95800D03*
D11*
X505400Y80874D03*
X513400Y80874D03*
X521400Y80874D03*
X529400Y80874D03*
X537400Y80874D03*
X545400Y80874D03*
X553400Y80874D03*
X561400Y80874D03*
D12*
X624450Y147750D03*
X624450Y169750D03*
X607450Y169750D03*
X607450Y147750D03*
D13*
X642620Y147710D03*
X642620Y164710D03*
D14*
X607450Y190500D03*
X624450Y190500D03*
X599830Y116205D03*
X616830Y116205D03*
D13*
X454025Y121675D03*
X454025Y138675D03*
X473710Y121675D03*
X473710Y138675D03*
D15*
X455185Y156210D03*
X473185Y156210D03*
D13*
X599830Y56515D03*
X616830Y56515D03*
D14*
X616830Y36830D03*
X599830Y36830D03*
D13*
X616830Y95885D03*
X599830Y95885D03*
X616830Y76200D03*
X599830Y76200D03*
X293760Y161900D03*
X310760Y161900D03*
X325510Y149200D03*
X342510Y149200D03*
X293760Y136500D03*
X310760Y136500D03*
X325510Y123800D03*
X342510Y123800D03*
X293760Y111100D03*
X310760Y111100D03*
X325510Y98400D03*
X342510Y98400D03*
X293760Y85700D03*
X310760Y85700D03*
X325510Y73000D03*
X342510Y73000D03*
D16*
X444300Y187350D03*
X444300Y206350D03*
X419300Y196850D03*
X368100Y15900D03*
X368100Y34900D03*
X343100Y25400D03*
D17*
X363910Y149200D03*
X363910Y136500D03*
X363910Y123800D03*
X363910Y111100D03*
X363910Y98400D03*
X363910Y85700D03*
X363910Y73000D03*
X363910Y60300D03*
X418410Y60300D03*
X418410Y73000D03*
X418410Y85700D03*
X418410Y98400D03*
X418410Y111100D03*
X418410Y123800D03*
X418410Y136500D03*
X418410Y149200D03*
D14*
X404105Y168275D03*
X387105Y168275D03*
X230750Y89535D03*
X213750Y89535D03*
D16*
X736300Y53950D03*
X736300Y44450D03*
X736300Y34950D03*
X762300Y34950D03*
X762300Y53950D03*
D14*
X728100Y76200D03*
X745100Y76200D03*
X774945Y76200D03*
X757945Y76200D03*
X728100Y95250D03*
X745100Y95250D03*
X774310Y95250D03*
X757310Y95250D03*
D18*
X756990Y16510D03*
X733990Y16510D03*
D19*
X561950Y44250D03*
X542950Y44250D03*
X552450Y19250D03*
D20*
X649005Y95885D03*
X701005Y70485D03*
X649005Y108585D03*
X649005Y83185D03*
X649005Y70485D03*
X701005Y83185D03*
X701005Y57785D03*
X701005Y45085D03*
X649005Y45085D03*
X701005Y19685D03*
X649005Y57785D03*
X649005Y32385D03*
X701005Y32385D03*
X649005Y19685D03*
X701005Y95885D03*
X701005Y108585D03*
D14*
X684140Y125730D03*
X667140Y125730D03*
D21*
X764355Y161925D03*
X764355Y174625D03*
X764355Y187325D03*
X764355Y200025D03*
X710115Y200025D03*
X710115Y187325D03*
X710115Y174625D03*
X710115Y161925D03*
D22*
X737235Y180975D03*
D13*
X728735Y142875D03*
X745735Y142875D03*
D23*
X686435Y216875D03*
X686435Y195875D03*
D14*
X686435Y176775D03*
X686435Y159775D03*
X400050Y224400D03*
X400050Y207400D03*
X380365Y207400D03*
X380365Y224400D03*
X582930Y23250D03*
X582930Y40250D03*
D13*
X407915Y17145D03*
X390915Y17145D03*
X475225Y177165D03*
X458225Y177165D03*
D24*
X488775Y213200D03*
X488775Y208200D03*
X488775Y203200D03*
X488775Y198200D03*
X488775Y193200D03*
D25*
X496650Y190450D03*
X501650Y190450D03*
X506650Y190450D03*
D24*
X514525Y193200D03*
X514525Y198200D03*
X514525Y203200D03*
X514525Y208200D03*
X514525Y213200D03*
D25*
X506650Y215950D03*
X501650Y215950D03*
X496650Y215950D03*
D13*
X469900Y194700D03*
X469900Y211700D03*
D14*
X213750Y69850D03*
X230750Y69850D03*
X709685Y219075D03*
X726685Y219075D03*
X764785Y219075D03*
X747785Y219075D03*
D18*
X782250Y16510D03*
X805250Y16510D03*
D14*
X787400Y52950D03*
X787400Y35950D03*
X806450Y35950D03*
X806450Y52950D03*
D26*
X120500Y200920D03*
X120500Y219920D03*
X99500Y210420D03*
X120500Y23730D03*
X120500Y42730D03*
X99500Y33230D03*
D13*
X80645Y38980D03*
X80645Y21980D03*
X80645Y211210D03*
X80645Y228210D03*
D26*
X160500Y23730D03*
X160500Y42730D03*
X139500Y33230D03*
X160500Y200920D03*
X160500Y219920D03*
X139500Y210420D03*
D15*
X437625Y168275D03*
X419625Y168275D03*
D16*
X358575Y186715D03*
X358575Y205715D03*
X333575Y196215D03*
D13*
X464185Y80400D03*
X464185Y97400D03*
X444500Y80400D03*
X444500Y97400D03*
D14*
X464185Y49920D03*
X464185Y66920D03*
X444500Y49920D03*
X444500Y66920D03*
D13*
X804155Y95250D03*
X787155Y95250D03*
D18*
X404565Y187325D03*
X381565Y187325D03*
D27*
X181530Y168300D03*
X181530Y155600D03*
X181530Y142900D03*
X181530Y130200D03*
X181530Y117500D03*
X181530Y104800D03*
X181530Y92100D03*
X181530Y79400D03*
D28*
X58830Y51850D03*
X78830Y195850D03*
M02*
