G04 EAGLE Gerber RS-274X export*
G75*
%MOMM*%
%FSLAX34Y34*%
%LPD*%
%INTop Copper*%
%IPPOS*%
%AMOC8*
5,1,8,0,0,1.08239X$1,22.5*%
G01*
G04 Define Apertures*
%ADD10R,1.270000X0.558800*%
%ADD11R,0.558800X1.270000*%
%ADD12R,1.200000X1.400000*%
%ADD13R,1.000000X1.100000*%
%ADD14R,1.100000X1.000000*%
%ADD15R,1.200000X1.450000*%
%ADD16R,1.200000X0.600000*%
%ADD17R,1.550000X0.700000*%
%ADD18R,0.820000X0.420000*%
%ADD19R,0.600000X1.200000*%
%ADD20R,2.200000X0.600000*%
%ADD21R,1.525000X0.700000*%
%ADD22R,2.513000X3.402000*%
%ADD23R,1.200000X1.200000*%
%ADD24C,1.524000*%
%ADD25R,0.925000X0.300000*%
%ADD26R,0.300000X0.800000*%
%ADD27R,1.250000X0.600000*%
%ADD28C,1.270000*%
%ADD29P,1.64956X8X22.5*%
%ADD30R,2.500000X0.635000*%
%ADD31C,1.000000*%
%ADD32C,0.200000*%
%ADD33C,0.508000*%
%ADD34C,0.706400*%
%ADD35C,0.756400*%
%ADD36C,0.406400*%
%ADD37C,0.152400*%
%ADD38C,0.304800*%
G36*
X866167Y8127D02*
X865777Y8048D01*
X610776Y8048D01*
X610438Y8107D01*
X610098Y8313D01*
X609865Y8636D01*
X609776Y9024D01*
X609846Y9416D01*
X610063Y9749D01*
X610393Y9972D01*
X612199Y10720D01*
X614120Y12641D01*
X615160Y15151D01*
X615160Y17869D01*
X614120Y20379D01*
X612671Y21828D01*
X612457Y22145D01*
X612378Y22535D01*
X612378Y27782D01*
X612445Y28143D01*
X612660Y28478D01*
X612988Y28703D01*
X613378Y28782D01*
X623593Y28782D01*
X625378Y30567D01*
X625378Y31782D01*
X625445Y32143D01*
X625660Y32478D01*
X625988Y32703D01*
X626378Y32782D01*
X632232Y32782D01*
X633209Y33759D01*
X633526Y33973D01*
X633916Y34052D01*
X633957Y34052D01*
X634318Y33985D01*
X634653Y33770D01*
X634878Y33442D01*
X634957Y33052D01*
X634957Y28122D01*
X636337Y26742D01*
X636545Y26440D01*
X636630Y26051D01*
X636557Y25660D01*
X636337Y25328D01*
X634957Y23948D01*
X634957Y15422D01*
X636742Y13637D01*
X661268Y13637D01*
X663053Y15422D01*
X663053Y23948D01*
X661673Y25328D01*
X661465Y25630D01*
X661380Y26019D01*
X661453Y26410D01*
X661673Y26742D01*
X663053Y28122D01*
X663053Y33052D01*
X663120Y33413D01*
X663335Y33748D01*
X663663Y33973D01*
X664053Y34052D01*
X669062Y34052D01*
X685250Y50240D01*
X685403Y50347D01*
X685403Y52662D01*
X685465Y53008D01*
X685674Y53346D01*
X685998Y53577D01*
X686387Y53662D01*
X686778Y53589D01*
X687110Y53369D01*
X688337Y52142D01*
X688545Y51840D01*
X688630Y51451D01*
X688557Y51060D01*
X688337Y50728D01*
X687110Y49501D01*
X686957Y49394D01*
X686957Y40822D01*
X688337Y39442D01*
X688545Y39140D01*
X688630Y38751D01*
X688557Y38360D01*
X688337Y38028D01*
X686957Y36648D01*
X686957Y28122D01*
X688337Y26742D01*
X688545Y26440D01*
X688630Y26051D01*
X688557Y25660D01*
X688337Y25328D01*
X686957Y23948D01*
X686957Y15422D01*
X688742Y13637D01*
X713268Y13637D01*
X715053Y15422D01*
X715053Y23948D01*
X713673Y25328D01*
X713465Y25630D01*
X713380Y26019D01*
X713453Y26410D01*
X713673Y26742D01*
X715053Y28122D01*
X715053Y30520D01*
X715120Y30881D01*
X715335Y31216D01*
X715663Y31441D01*
X716053Y31520D01*
X717991Y31520D01*
X718366Y31447D01*
X718698Y31227D01*
X727740Y22185D01*
X727948Y21883D01*
X728033Y21494D01*
X727960Y21103D01*
X727740Y20771D01*
X726842Y19873D01*
X726842Y13147D01*
X728627Y11362D01*
X739353Y11362D01*
X741138Y13147D01*
X741138Y19873D01*
X739353Y21658D01*
X739038Y21658D01*
X738678Y21725D01*
X738342Y21940D01*
X738117Y22268D01*
X738038Y22658D01*
X738038Y23337D01*
X734180Y27195D01*
X733979Y27483D01*
X733887Y27870D01*
X733954Y28263D01*
X734169Y28598D01*
X734497Y28823D01*
X734887Y28902D01*
X738459Y28902D01*
X738834Y28829D01*
X739166Y28609D01*
X749549Y18226D01*
X749763Y17909D01*
X749842Y17519D01*
X749842Y13147D01*
X751627Y11362D01*
X762353Y11362D01*
X764430Y13439D01*
X764747Y13653D01*
X765137Y13732D01*
X774103Y13732D01*
X774479Y13659D01*
X774810Y13439D01*
X776887Y11362D01*
X787613Y11362D01*
X789398Y13147D01*
X789398Y19873D01*
X788084Y21187D01*
X787877Y21489D01*
X787791Y21878D01*
X787864Y22269D01*
X788084Y22601D01*
X791210Y25727D01*
X791210Y26902D01*
X791277Y27263D01*
X791492Y27598D01*
X791820Y27823D01*
X792210Y27902D01*
X794163Y27902D01*
X796218Y29957D01*
X796520Y30165D01*
X796909Y30250D01*
X797300Y30177D01*
X797632Y29957D01*
X799687Y27902D01*
X801402Y27902D01*
X801763Y27835D01*
X802098Y27620D01*
X802323Y27292D01*
X802402Y26902D01*
X802402Y22658D01*
X802335Y22298D01*
X802120Y21962D01*
X801792Y21737D01*
X801402Y21658D01*
X799887Y21658D01*
X798102Y19873D01*
X798102Y13147D01*
X799887Y11362D01*
X810613Y11362D01*
X812398Y13147D01*
X812398Y19873D01*
X810791Y21480D01*
X810577Y21797D01*
X810498Y22187D01*
X810498Y26902D01*
X810565Y27263D01*
X810780Y27598D01*
X811108Y27823D01*
X811498Y27902D01*
X813213Y27902D01*
X814998Y29687D01*
X814998Y42213D01*
X813468Y43743D01*
X813260Y44045D01*
X813175Y44434D01*
X813248Y44825D01*
X813468Y45157D01*
X814998Y46687D01*
X814998Y47902D01*
X815065Y48263D01*
X815280Y48598D01*
X815608Y48823D01*
X815998Y48902D01*
X848377Y48902D01*
X862568Y63093D01*
X862568Y159157D01*
X855770Y165955D01*
X855553Y166279D01*
X854864Y167943D01*
X851863Y170944D01*
X847942Y172568D01*
X844788Y172568D01*
X844428Y172635D01*
X844092Y172850D01*
X843867Y173178D01*
X843788Y173568D01*
X843788Y185262D01*
X842937Y187315D01*
X825490Y204762D01*
X823437Y205613D01*
X774617Y205613D01*
X774241Y205686D01*
X773910Y205906D01*
X773243Y206573D01*
X771373Y206573D01*
X771013Y206640D01*
X770677Y206855D01*
X770452Y207183D01*
X770373Y207573D01*
X770373Y210027D01*
X770440Y210388D01*
X770655Y210723D01*
X770983Y210948D01*
X771373Y211027D01*
X771548Y211027D01*
X773333Y212812D01*
X773333Y225338D01*
X771548Y227123D01*
X758022Y227123D01*
X756633Y225733D01*
X756330Y225526D01*
X755942Y225441D01*
X755550Y225514D01*
X755219Y225733D01*
X754337Y226615D01*
X748785Y226615D01*
X748785Y211535D01*
X754337Y211535D01*
X755219Y212417D01*
X755521Y212624D01*
X755910Y212709D01*
X756301Y212636D01*
X756633Y212417D01*
X758022Y211027D01*
X758197Y211027D01*
X758558Y210960D01*
X758893Y210745D01*
X759118Y210417D01*
X759197Y210027D01*
X759197Y207573D01*
X759130Y207213D01*
X758915Y206877D01*
X758587Y206652D01*
X758197Y206573D01*
X755467Y206573D01*
X753682Y204788D01*
X753682Y200109D01*
X753620Y199764D01*
X753411Y199425D01*
X753087Y199195D01*
X752698Y199109D01*
X752307Y199182D01*
X751975Y199402D01*
X750852Y200525D01*
X738235Y200525D01*
X738235Y181975D01*
X752340Y181975D01*
X752340Y182209D01*
X752402Y182554D01*
X752611Y182893D01*
X752935Y183123D01*
X753324Y183209D01*
X753715Y183136D01*
X754047Y182916D01*
X754922Y182041D01*
X755129Y181739D01*
X755214Y181350D01*
X755141Y180959D01*
X754922Y180627D01*
X754047Y179753D01*
X753759Y179552D01*
X753372Y179460D01*
X752980Y179527D01*
X752644Y179741D01*
X752484Y179975D01*
X738235Y179975D01*
X738235Y161425D01*
X750852Y161425D01*
X752483Y163056D01*
X752771Y163257D01*
X753158Y163348D01*
X753551Y163281D01*
X753886Y163067D01*
X753983Y162925D01*
X765355Y162925D01*
X765355Y155885D01*
X773032Y155885D01*
X774025Y156878D01*
X774313Y157079D01*
X774700Y157170D01*
X775093Y157103D01*
X775428Y156889D01*
X775653Y156561D01*
X775732Y156171D01*
X775732Y154491D01*
X775659Y154116D01*
X775439Y153784D01*
X768871Y147216D01*
X768554Y147002D01*
X768164Y146923D01*
X754783Y146923D01*
X754423Y146990D01*
X754087Y147205D01*
X753862Y147533D01*
X753783Y147923D01*
X753783Y149638D01*
X751998Y151423D01*
X739472Y151423D01*
X737583Y149533D01*
X737280Y149326D01*
X736892Y149241D01*
X736500Y149314D01*
X736169Y149533D01*
X734787Y150915D01*
X729735Y150915D01*
X729735Y141875D01*
X721195Y141875D01*
X721195Y140384D01*
X721133Y140038D01*
X720924Y139700D01*
X720600Y139469D01*
X720211Y139384D01*
X719820Y139457D01*
X719488Y139677D01*
X714456Y144709D01*
X714242Y145026D01*
X714163Y145416D01*
X714163Y154377D01*
X714230Y154738D01*
X714445Y155073D01*
X714773Y155298D01*
X715163Y155377D01*
X719003Y155377D01*
X720788Y157162D01*
X720788Y161841D01*
X720850Y162186D01*
X721059Y162525D01*
X721383Y162755D01*
X721772Y162841D01*
X722163Y162768D01*
X722495Y162548D01*
X723618Y161425D01*
X736235Y161425D01*
X736235Y179975D01*
X721982Y179975D01*
X721859Y179776D01*
X721535Y179545D01*
X721146Y179460D01*
X720755Y179533D01*
X720423Y179753D01*
X719908Y180268D01*
X719700Y180570D01*
X719615Y180959D01*
X719688Y181350D01*
X719908Y181682D01*
X720423Y182197D01*
X720711Y182398D01*
X721098Y182490D01*
X721491Y182423D01*
X721826Y182209D01*
X721986Y181975D01*
X736235Y181975D01*
X736235Y200525D01*
X723618Y200525D01*
X722495Y199402D01*
X722207Y199201D01*
X721820Y199110D01*
X721428Y199177D01*
X721092Y199391D01*
X720867Y199719D01*
X720788Y200109D01*
X720788Y204788D01*
X719003Y206573D01*
X716703Y206573D01*
X716343Y206640D01*
X716007Y206855D01*
X715782Y207183D01*
X715703Y207573D01*
X715703Y210027D01*
X715770Y210388D01*
X715985Y210723D01*
X716313Y210948D01*
X716383Y210962D01*
X717837Y212417D01*
X718140Y212624D01*
X718528Y212709D01*
X718920Y212636D01*
X719251Y212417D01*
X720133Y211535D01*
X725685Y211535D01*
X725685Y226615D01*
X720133Y226615D01*
X719251Y225733D01*
X718949Y225526D01*
X718560Y225441D01*
X718169Y225514D01*
X717837Y225733D01*
X716448Y227123D01*
X709954Y227123D01*
X709579Y227196D01*
X709247Y227416D01*
X703325Y233337D01*
X701272Y234188D01*
X659288Y234188D01*
X657235Y233337D01*
X652028Y228131D01*
X651711Y227917D01*
X651321Y227838D01*
X633968Y227838D01*
X633608Y227905D01*
X633272Y228120D01*
X633047Y228448D01*
X632968Y228838D01*
X632968Y231992D01*
X631344Y235913D01*
X628343Y238914D01*
X625653Y240028D01*
X625363Y240212D01*
X625128Y240533D01*
X625036Y240920D01*
X625103Y241313D01*
X625317Y241648D01*
X625646Y241873D01*
X626036Y241952D01*
X865777Y241952D01*
X866138Y241885D01*
X866473Y241670D01*
X866698Y241342D01*
X866777Y240952D01*
X866777Y9048D01*
X866710Y8688D01*
X866495Y8352D01*
X866167Y8127D01*
G37*
%LPC*%
G36*
X739745Y220075D02*
X746785Y220075D01*
X746785Y226615D01*
X741233Y226615D01*
X739745Y225127D01*
X739745Y220075D01*
G37*
G36*
X727685Y220075D02*
X734725Y220075D01*
X734725Y225127D01*
X733237Y226615D01*
X727685Y226615D01*
X727685Y220075D01*
G37*
G36*
X727685Y211535D02*
X733237Y211535D01*
X734725Y213023D01*
X734725Y218075D01*
X727685Y218075D01*
X727685Y211535D01*
G37*
G36*
X741233Y211535D02*
X746785Y211535D01*
X746785Y218075D01*
X739745Y218075D01*
X739745Y213023D01*
X741233Y211535D01*
G37*
G36*
X755678Y155885D02*
X763355Y155885D01*
X763355Y160925D01*
X754190Y160925D01*
X754190Y157373D01*
X755678Y155885D01*
G37*
G36*
X721195Y143875D02*
X727735Y143875D01*
X727735Y150915D01*
X722683Y150915D01*
X721195Y149427D01*
X721195Y143875D01*
G37*
%LPD*%
G36*
X16342Y8127D02*
X15952Y8048D01*
X4048Y8048D01*
X3688Y8115D01*
X3352Y8330D01*
X3127Y8658D01*
X3048Y9048D01*
X3048Y240952D01*
X3115Y241313D01*
X3330Y241648D01*
X3658Y241873D01*
X4048Y241952D01*
X15952Y241952D01*
X16313Y241885D01*
X16648Y241670D01*
X16873Y241342D01*
X16952Y240952D01*
X16952Y228737D01*
X18737Y226952D01*
X47263Y226952D01*
X49048Y228737D01*
X49048Y240952D01*
X49115Y241313D01*
X49330Y241648D01*
X49658Y241873D01*
X50048Y241952D01*
X594492Y241952D01*
X594830Y241893D01*
X595170Y241687D01*
X595403Y241364D01*
X595492Y240976D01*
X595422Y240584D01*
X595205Y240251D01*
X594875Y240028D01*
X591145Y238483D01*
X588287Y235625D01*
X586740Y231891D01*
X586740Y223250D01*
X607060Y223250D01*
X607060Y231891D01*
X605513Y235625D01*
X602655Y238483D01*
X598926Y240028D01*
X598636Y240212D01*
X598400Y240533D01*
X598309Y240920D01*
X598375Y241313D01*
X598590Y241648D01*
X598918Y241873D01*
X599308Y241952D01*
X618564Y241952D01*
X618902Y241893D01*
X619243Y241687D01*
X619476Y241364D01*
X619564Y240976D01*
X619494Y240584D01*
X619277Y240251D01*
X618947Y240028D01*
X616257Y238914D01*
X613256Y235913D01*
X611632Y231992D01*
X611632Y212508D01*
X613238Y208631D01*
X613314Y208280D01*
X613247Y207888D01*
X613032Y207552D01*
X612704Y207327D01*
X612314Y207248D01*
X606301Y207248D01*
X605955Y207310D01*
X605616Y207519D01*
X605386Y207843D01*
X605301Y208232D01*
X605374Y208623D01*
X605468Y208766D01*
X607060Y212609D01*
X607060Y221250D01*
X586740Y221250D01*
X586740Y212609D01*
X588322Y208789D01*
X588407Y208667D01*
X588499Y208280D01*
X588432Y207888D01*
X588218Y207552D01*
X587889Y207327D01*
X587499Y207248D01*
X579941Y207248D01*
X579566Y207321D01*
X579234Y207541D01*
X549682Y237093D01*
X403568Y237093D01*
X399216Y232741D01*
X398899Y232527D01*
X398509Y232448D01*
X393287Y232448D01*
X391502Y230663D01*
X391502Y218137D01*
X393032Y216607D01*
X393240Y216305D01*
X393325Y215916D01*
X393252Y215525D01*
X393032Y215193D01*
X391502Y213663D01*
X391502Y212448D01*
X391435Y212088D01*
X391220Y211752D01*
X390892Y211527D01*
X390502Y211448D01*
X389913Y211448D01*
X389553Y211515D01*
X389217Y211730D01*
X388992Y212058D01*
X388913Y212448D01*
X388913Y213663D01*
X387383Y215193D01*
X387175Y215495D01*
X387090Y215884D01*
X387163Y216275D01*
X387383Y216607D01*
X388913Y218137D01*
X388913Y230663D01*
X387128Y232448D01*
X373602Y232448D01*
X371817Y230663D01*
X371817Y229448D01*
X371750Y229088D01*
X371535Y228752D01*
X371207Y228527D01*
X370817Y228448D01*
X360083Y228448D01*
X334191Y202556D01*
X333874Y202342D01*
X333484Y202263D01*
X326312Y202263D01*
X324527Y200478D01*
X324527Y191952D01*
X326574Y189905D01*
X326775Y189617D01*
X326867Y189230D01*
X326800Y188838D01*
X326586Y188502D01*
X326257Y188277D01*
X325867Y188198D01*
X288600Y188198D01*
X288225Y188271D01*
X287893Y188491D01*
X286444Y189940D01*
X283934Y190980D01*
X281216Y190980D01*
X278706Y189940D01*
X276785Y188019D01*
X275745Y185509D01*
X275745Y182791D01*
X276785Y180281D01*
X277321Y179745D01*
X277522Y179457D01*
X277613Y179070D01*
X277546Y178678D01*
X277332Y178342D01*
X277004Y178117D01*
X276614Y178038D01*
X264981Y178038D01*
X264606Y178111D01*
X264274Y178331D01*
X218637Y223968D01*
X170427Y223968D01*
X170051Y224041D01*
X169720Y224261D01*
X168013Y225968D01*
X152987Y225968D01*
X151202Y224183D01*
X151202Y222062D01*
X151140Y221716D01*
X150931Y221378D01*
X150607Y221147D01*
X150218Y221062D01*
X149827Y221135D01*
X149495Y221355D01*
X146882Y223968D01*
X130427Y223968D01*
X130051Y224041D01*
X129720Y224261D01*
X128013Y225968D01*
X112987Y225968D01*
X111202Y224183D01*
X111202Y215657D01*
X112987Y213872D01*
X128013Y213872D01*
X129003Y214862D01*
X129291Y215063D01*
X129678Y215155D01*
X130071Y215088D01*
X130406Y214874D01*
X130631Y214545D01*
X130710Y214155D01*
X130710Y211420D01*
X140500Y211420D01*
X140500Y209420D01*
X130710Y209420D01*
X130710Y206685D01*
X130648Y206339D01*
X130439Y206001D01*
X130115Y205770D01*
X129726Y205685D01*
X129335Y205758D01*
X129003Y205978D01*
X128013Y206968D01*
X112987Y206968D01*
X111280Y205261D01*
X110963Y205047D01*
X110573Y204968D01*
X109290Y204968D01*
X108930Y205035D01*
X108594Y205250D01*
X108369Y205578D01*
X108290Y205968D01*
X108290Y209420D01*
X90710Y209420D01*
X90710Y209284D01*
X90648Y208938D01*
X90439Y208600D01*
X90115Y208369D01*
X89726Y208284D01*
X89335Y208357D01*
X89003Y208577D01*
X88986Y208594D01*
X88772Y208911D01*
X88693Y209301D01*
X88693Y217973D01*
X87303Y219362D01*
X87096Y219665D01*
X87011Y220053D01*
X87084Y220445D01*
X87303Y220776D01*
X88185Y221658D01*
X88185Y227210D01*
X73105Y227210D01*
X73105Y221658D01*
X73987Y220776D01*
X74194Y220474D01*
X74279Y220085D01*
X74206Y219694D01*
X73987Y219362D01*
X72597Y217973D01*
X72597Y204447D01*
X73974Y203071D01*
X74181Y202769D01*
X74266Y202380D01*
X74193Y201989D01*
X73974Y201657D01*
X72438Y200121D01*
X71290Y197350D01*
X71290Y196850D01*
X86370Y196850D01*
X86370Y197346D01*
X86432Y197692D01*
X86641Y198030D01*
X86965Y198261D01*
X87354Y198346D01*
X87745Y198273D01*
X88077Y198053D01*
X89258Y196872D01*
X110573Y196872D01*
X110949Y196799D01*
X111280Y196579D01*
X112987Y194872D01*
X128013Y194872D01*
X129720Y196579D01*
X130037Y196793D01*
X130427Y196872D01*
X146717Y196872D01*
X149495Y199650D01*
X149783Y199851D01*
X150170Y199943D01*
X150563Y199876D01*
X150898Y199661D01*
X151123Y199333D01*
X151202Y198943D01*
X151202Y196657D01*
X152987Y194872D01*
X154348Y194872D01*
X154694Y194810D01*
X155032Y194601D01*
X155263Y194277D01*
X155348Y193888D01*
X155275Y193497D01*
X155055Y193165D01*
X130572Y168682D01*
X130572Y64445D01*
X130499Y64070D01*
X130279Y63738D01*
X128830Y62289D01*
X127790Y59779D01*
X127790Y57061D01*
X128830Y54551D01*
X130751Y52630D01*
X133261Y51590D01*
X135979Y51590D01*
X138489Y52630D01*
X140410Y54551D01*
X141450Y57061D01*
X141450Y59779D01*
X140410Y62289D01*
X138961Y63738D01*
X138747Y64055D01*
X138668Y64445D01*
X138668Y68542D01*
X138730Y68887D01*
X138939Y69226D01*
X139263Y69456D01*
X139652Y69542D01*
X140043Y69469D01*
X140375Y69249D01*
X158490Y51134D01*
X172597Y51134D01*
X172972Y51061D01*
X173304Y50841D01*
X175660Y48485D01*
X175861Y48197D01*
X175953Y47810D01*
X175886Y47418D01*
X175671Y47082D01*
X175343Y46857D01*
X174953Y46778D01*
X170427Y46778D01*
X170051Y46851D01*
X169720Y47071D01*
X168013Y48778D01*
X152987Y48778D01*
X151202Y46993D01*
X151202Y44897D01*
X151140Y44551D01*
X150931Y44213D01*
X150607Y43982D01*
X150218Y43897D01*
X149827Y43970D01*
X149495Y44190D01*
X146907Y46778D01*
X130427Y46778D01*
X130051Y46851D01*
X129720Y47071D01*
X128013Y48778D01*
X112952Y48778D01*
X112782Y48660D01*
X112395Y48568D01*
X112003Y48635D01*
X111667Y48849D01*
X111442Y49178D01*
X111363Y49568D01*
X111363Y54935D01*
X111436Y55310D01*
X111656Y55642D01*
X113105Y57091D01*
X114145Y59601D01*
X114145Y62319D01*
X113105Y64829D01*
X111184Y66750D01*
X108674Y67790D01*
X105956Y67790D01*
X103446Y66750D01*
X101525Y64829D01*
X100485Y62319D01*
X100485Y59601D01*
X101525Y57091D01*
X102974Y55642D01*
X103188Y55325D01*
X103267Y54935D01*
X103267Y39770D01*
X103200Y39410D01*
X102985Y39074D01*
X102657Y38849D01*
X102267Y38770D01*
X100500Y38770D01*
X100500Y32230D01*
X90710Y32230D01*
X90710Y29178D01*
X92153Y27735D01*
X92354Y27447D01*
X92445Y27060D01*
X92378Y26668D01*
X92164Y26332D01*
X91836Y26107D01*
X91446Y26028D01*
X89693Y26028D01*
X89333Y26095D01*
X88997Y26310D01*
X88772Y26638D01*
X88693Y27028D01*
X88693Y28743D01*
X87303Y30132D01*
X87096Y30435D01*
X87011Y30823D01*
X87084Y31215D01*
X87303Y31546D01*
X88185Y32428D01*
X88185Y37980D01*
X73105Y37980D01*
X73105Y32428D01*
X73987Y31546D01*
X74194Y31244D01*
X74279Y30855D01*
X74206Y30464D01*
X73987Y30132D01*
X72597Y28743D01*
X72597Y15217D01*
X74382Y13432D01*
X86908Y13432D01*
X88693Y15217D01*
X88693Y16932D01*
X88760Y17293D01*
X88975Y17628D01*
X89303Y17853D01*
X89693Y17932D01*
X112323Y17932D01*
X112699Y17859D01*
X112966Y17682D01*
X128013Y17682D01*
X129798Y19467D01*
X129798Y27676D01*
X129860Y28021D01*
X130069Y28360D01*
X130393Y28590D01*
X130782Y28676D01*
X131173Y28603D01*
X131505Y28383D01*
X132198Y27690D01*
X138500Y27690D01*
X138500Y32230D01*
X130710Y32230D01*
X130710Y29495D01*
X130648Y29149D01*
X130439Y28811D01*
X130115Y28580D01*
X129726Y28495D01*
X129335Y28568D01*
X129003Y28788D01*
X128013Y29778D01*
X124316Y29778D01*
X123941Y29851D01*
X123609Y30071D01*
X118705Y34975D01*
X118504Y35263D01*
X118412Y35650D01*
X118479Y36043D01*
X118694Y36378D01*
X119022Y36603D01*
X119412Y36682D01*
X128013Y36682D01*
X129003Y37672D01*
X129291Y37873D01*
X129678Y37965D01*
X130071Y37898D01*
X130406Y37684D01*
X130631Y37355D01*
X130710Y36965D01*
X130710Y34230D01*
X140500Y34230D01*
X140500Y27690D01*
X146802Y27690D01*
X148290Y29178D01*
X148290Y31531D01*
X148352Y31877D01*
X148561Y32215D01*
X148885Y32446D01*
X149274Y32531D01*
X149665Y32458D01*
X149997Y32238D01*
X152015Y30220D01*
X152223Y29918D01*
X152308Y29529D01*
X152235Y29138D01*
X152015Y28806D01*
X151202Y27993D01*
X151202Y19467D01*
X152987Y17682D01*
X168013Y17682D01*
X169720Y19389D01*
X170037Y19603D01*
X170427Y19682D01*
X176361Y19682D01*
X176744Y19606D01*
X177711Y19205D01*
X180429Y19205D01*
X182939Y20245D01*
X184860Y22166D01*
X185954Y24806D01*
X186148Y25108D01*
X186473Y25338D01*
X186862Y25423D01*
X187253Y25350D01*
X187585Y25131D01*
X198983Y13732D01*
X232224Y13732D01*
X232599Y13659D01*
X232931Y13439D01*
X236615Y9755D01*
X236816Y9467D01*
X236908Y9080D01*
X236841Y8688D01*
X236626Y8352D01*
X236298Y8127D01*
X235908Y8048D01*
X50048Y8048D01*
X49688Y8115D01*
X49352Y8330D01*
X49127Y8658D01*
X49048Y9048D01*
X49048Y21263D01*
X47263Y23048D01*
X18737Y23048D01*
X16952Y21263D01*
X16952Y9048D01*
X16885Y8688D01*
X16670Y8352D01*
X16342Y8127D01*
G37*
%LPC*%
G36*
X81645Y229210D02*
X88185Y229210D01*
X88185Y234762D01*
X86697Y236250D01*
X81645Y236250D01*
X81645Y229210D01*
G37*
G36*
X73105Y229210D02*
X79645Y229210D01*
X79645Y236250D01*
X74593Y236250D01*
X73105Y234762D01*
X73105Y229210D01*
G37*
G36*
X100500Y211420D02*
X108290Y211420D01*
X108290Y214472D01*
X106802Y215960D01*
X100500Y215960D01*
X100500Y211420D01*
G37*
G36*
X90710Y211420D02*
X98500Y211420D01*
X98500Y215960D01*
X92198Y215960D01*
X90710Y214472D01*
X90710Y211420D01*
G37*
G36*
X77330Y188310D02*
X77830Y188310D01*
X77830Y194850D01*
X71290Y194850D01*
X71290Y194350D01*
X72438Y191579D01*
X74559Y189458D01*
X77330Y188310D01*
G37*
G36*
X79830Y188310D02*
X80330Y188310D01*
X83101Y189458D01*
X85222Y191579D01*
X86370Y194350D01*
X86370Y194850D01*
X79830Y194850D01*
X79830Y188310D01*
G37*
G36*
X51290Y52850D02*
X57830Y52850D01*
X57830Y59390D01*
X57330Y59390D01*
X54559Y58242D01*
X52438Y56121D01*
X51290Y53350D01*
X51290Y52850D01*
G37*
G36*
X59830Y52850D02*
X66370Y52850D01*
X66370Y53350D01*
X65222Y56121D01*
X63101Y58242D01*
X60330Y59390D01*
X59830Y59390D01*
X59830Y52850D01*
G37*
G36*
X59830Y44310D02*
X60330Y44310D01*
X63101Y45458D01*
X65222Y47579D01*
X66370Y50350D01*
X66370Y50850D01*
X59830Y50850D01*
X59830Y44310D01*
G37*
G36*
X57330Y44310D02*
X57830Y44310D01*
X57830Y50850D01*
X51290Y50850D01*
X51290Y50350D01*
X52438Y47579D01*
X54559Y45458D01*
X57330Y44310D01*
G37*
G36*
X73105Y39980D02*
X79645Y39980D01*
X79645Y47020D01*
X74593Y47020D01*
X73105Y45532D01*
X73105Y39980D01*
G37*
G36*
X81645Y39980D02*
X88185Y39980D01*
X88185Y45532D01*
X86697Y47020D01*
X81645Y47020D01*
X81645Y39980D01*
G37*
G36*
X90710Y34230D02*
X98500Y34230D01*
X98500Y38770D01*
X92198Y38770D01*
X90710Y37282D01*
X90710Y34230D01*
G37*
%LPD*%
G36*
X429030Y177335D02*
X428641Y177250D01*
X428250Y177323D01*
X427918Y177543D01*
X426888Y178573D01*
X416846Y178573D01*
X416471Y178646D01*
X416139Y178866D01*
X412006Y182999D01*
X411792Y183316D01*
X411713Y183706D01*
X411713Y189802D01*
X411780Y190163D01*
X411995Y190498D01*
X412323Y190723D01*
X412713Y190802D01*
X426563Y190802D01*
X428348Y192587D01*
X428348Y201113D01*
X427572Y201889D01*
X427361Y202198D01*
X427279Y202588D01*
X427355Y202978D01*
X428220Y205066D01*
X428220Y207684D01*
X427218Y210102D01*
X425367Y211953D01*
X422949Y212955D01*
X420580Y212955D01*
X420220Y213022D01*
X419884Y213237D01*
X419659Y213565D01*
X419580Y213955D01*
X419580Y214747D01*
X418540Y217257D01*
X416619Y219178D01*
X414109Y220218D01*
X412059Y220218D01*
X411684Y220291D01*
X411352Y220511D01*
X408891Y222972D01*
X408677Y223289D01*
X408598Y223679D01*
X408598Y227997D01*
X408665Y228358D01*
X408880Y228693D01*
X409208Y228918D01*
X409598Y228997D01*
X481208Y228997D01*
X481554Y228935D01*
X481892Y228726D01*
X482123Y228402D01*
X482208Y228013D01*
X482135Y227622D01*
X481915Y227290D01*
X481216Y226591D01*
X480899Y226377D01*
X480509Y226298D01*
X446313Y226298D01*
X431982Y211967D01*
X431982Y193943D01*
X434959Y190966D01*
X435173Y190649D01*
X435252Y190259D01*
X435252Y183087D01*
X437037Y181302D01*
X443749Y181302D01*
X444124Y181229D01*
X444456Y181009D01*
X445185Y180280D01*
X445386Y179992D01*
X445478Y179605D01*
X445411Y179213D01*
X445196Y178877D01*
X444868Y178652D01*
X444478Y178573D01*
X430362Y178573D01*
X429332Y177543D01*
X429030Y177335D01*
G37*
G36*
X566867Y155883D02*
X566480Y155791D01*
X566088Y155858D01*
X565752Y156072D01*
X565527Y156401D01*
X565448Y156791D01*
X565448Y156905D01*
X565521Y157281D01*
X565741Y157612D01*
X567242Y159113D01*
X567242Y174339D01*
X565457Y176124D01*
X550448Y176124D01*
X550088Y176191D01*
X549752Y176406D01*
X549527Y176734D01*
X549448Y177124D01*
X549448Y209387D01*
X531545Y227290D01*
X531344Y227578D01*
X531252Y227965D01*
X531319Y228358D01*
X531534Y228693D01*
X531862Y228918D01*
X532252Y228997D01*
X545914Y228997D01*
X546289Y228924D01*
X546621Y228704D01*
X576173Y199152D01*
X598877Y199152D01*
X599223Y199090D01*
X599561Y198881D01*
X599792Y198557D01*
X599877Y198168D01*
X599804Y197777D01*
X599584Y197445D01*
X598902Y196763D01*
X598902Y184237D01*
X600687Y182452D01*
X602402Y182452D01*
X602763Y182385D01*
X603098Y182170D01*
X603323Y181842D01*
X603402Y181452D01*
X603402Y180798D01*
X603335Y180438D01*
X603120Y180102D01*
X602792Y179877D01*
X602402Y179798D01*
X600187Y179798D01*
X598402Y178013D01*
X598402Y173826D01*
X598329Y173451D01*
X598109Y173119D01*
X582925Y157935D01*
X582608Y157721D01*
X582218Y157642D01*
X568713Y157642D01*
X567155Y156084D01*
X566867Y155883D01*
G37*
G36*
X540757Y179612D02*
X540368Y179527D01*
X539977Y179600D01*
X539645Y179820D01*
X535077Y184388D01*
X516441Y184388D01*
X516066Y184461D01*
X515734Y184681D01*
X513470Y186945D01*
X513269Y187233D01*
X513177Y187620D01*
X513244Y188013D01*
X513459Y188348D01*
X513787Y188573D01*
X514177Y188652D01*
X520413Y188652D01*
X522198Y190437D01*
X522198Y195620D01*
X522265Y195981D01*
X522480Y196316D01*
X522808Y196541D01*
X523198Y196620D01*
X525184Y196620D01*
X527602Y197622D01*
X529453Y199473D01*
X530455Y201891D01*
X530455Y204509D01*
X529453Y206927D01*
X527602Y208778D01*
X525184Y209780D01*
X522690Y209780D01*
X522330Y209847D01*
X521994Y210062D01*
X521769Y210390D01*
X521690Y210780D01*
X521690Y212200D01*
X513525Y212200D01*
X513525Y217240D01*
X512198Y217240D01*
X511838Y217307D01*
X511502Y217522D01*
X511277Y217850D01*
X511198Y218240D01*
X511198Y221213D01*
X510991Y221420D01*
X510777Y221737D01*
X510698Y222127D01*
X510698Y224822D01*
X510765Y225183D01*
X510980Y225518D01*
X511308Y225743D01*
X511698Y225822D01*
X521149Y225822D01*
X521524Y225749D01*
X521856Y225529D01*
X541059Y206326D01*
X541273Y206009D01*
X541352Y205619D01*
X541352Y180527D01*
X541290Y180181D01*
X541081Y179843D01*
X540757Y179612D01*
G37*
%LPC*%
G36*
X515525Y214200D02*
X521690Y214200D01*
X521690Y215752D01*
X520202Y217240D01*
X515525Y217240D01*
X515525Y214200D01*
G37*
%LPD*%
G36*
X371207Y200977D02*
X370817Y200898D01*
X368115Y200898D01*
X367755Y200965D01*
X367419Y201180D01*
X367194Y201508D01*
X367115Y201898D01*
X367115Y204715D01*
X357575Y204715D01*
X357575Y211255D01*
X356754Y211255D01*
X356408Y211317D01*
X356070Y211526D01*
X355839Y211850D01*
X355754Y212239D01*
X355827Y212630D01*
X356047Y212962D01*
X363144Y220059D01*
X363461Y220273D01*
X363851Y220352D01*
X370817Y220352D01*
X371178Y220285D01*
X371513Y220070D01*
X371738Y219742D01*
X371817Y219352D01*
X371817Y218137D01*
X373347Y216607D01*
X373555Y216305D01*
X373640Y215916D01*
X373567Y215525D01*
X373347Y215193D01*
X371817Y213663D01*
X371817Y201898D01*
X371750Y201538D01*
X371535Y201202D01*
X371207Y200977D01*
G37*
%LPC*%
G36*
X359575Y206715D02*
X367115Y206715D01*
X367115Y209767D01*
X365627Y211255D01*
X359575Y211255D01*
X359575Y206715D01*
G37*
%LPD*%
G36*
X462771Y185792D02*
X462381Y185713D01*
X454348Y185713D01*
X453988Y185780D01*
X453652Y185995D01*
X453427Y186323D01*
X453348Y186713D01*
X453348Y191613D01*
X451563Y193398D01*
X444391Y193398D01*
X444016Y193471D01*
X443684Y193691D01*
X440371Y197004D01*
X440157Y197321D01*
X440078Y197711D01*
X440078Y199810D01*
X440145Y200171D01*
X440360Y200506D01*
X440688Y200731D01*
X441078Y200810D01*
X443300Y200810D01*
X443300Y207350D01*
X452840Y207350D01*
X452840Y210402D01*
X451352Y211890D01*
X445769Y211890D01*
X445423Y211952D01*
X445084Y212161D01*
X444854Y212485D01*
X444769Y212874D01*
X444842Y213265D01*
X445062Y213597D01*
X449374Y217909D01*
X449691Y218123D01*
X450081Y218202D01*
X460852Y218202D01*
X461213Y218135D01*
X461548Y217920D01*
X461773Y217592D01*
X461852Y217202D01*
X461852Y204937D01*
X463242Y203548D01*
X463449Y203245D01*
X463534Y202857D01*
X463461Y202465D01*
X463242Y202134D01*
X462360Y201252D01*
X462360Y195700D01*
X470900Y195700D01*
X470900Y193700D01*
X462360Y193700D01*
X462360Y188148D01*
X463088Y187420D01*
X463289Y187132D01*
X463380Y186745D01*
X463313Y186353D01*
X463099Y186017D01*
X462771Y185792D01*
G37*
%LPC*%
G36*
X445300Y200810D02*
X451352Y200810D01*
X452840Y202298D01*
X452840Y205350D01*
X445300Y205350D01*
X445300Y200810D01*
G37*
%LPD*%
G36*
X598315Y141739D02*
X597926Y141654D01*
X597535Y141727D01*
X597203Y141947D01*
X591302Y147848D01*
X586724Y147848D01*
X586364Y147915D01*
X586028Y148130D01*
X585803Y148458D01*
X585724Y148848D01*
X585724Y148870D01*
X585797Y149245D01*
X586017Y149577D01*
X597458Y161018D01*
X597760Y161225D01*
X598149Y161311D01*
X598540Y161238D01*
X598872Y161018D01*
X600187Y159702D01*
X614713Y159702D01*
X615602Y160592D01*
X615905Y160799D01*
X616293Y160884D01*
X616685Y160811D01*
X617016Y160592D01*
X617398Y160210D01*
X623450Y160210D01*
X623450Y179290D01*
X617398Y179290D01*
X617016Y178908D01*
X616714Y178701D01*
X616325Y178616D01*
X615934Y178689D01*
X615602Y178908D01*
X614713Y179798D01*
X612498Y179798D01*
X612138Y179865D01*
X611802Y180080D01*
X611577Y180408D01*
X611498Y180798D01*
X611498Y181452D01*
X611565Y181813D01*
X611780Y182148D01*
X612108Y182373D01*
X612498Y182452D01*
X614213Y182452D01*
X615602Y183842D01*
X615905Y184049D01*
X616293Y184134D01*
X616685Y184061D01*
X617016Y183842D01*
X617898Y182960D01*
X623450Y182960D01*
X623450Y198040D01*
X618929Y198040D01*
X618583Y198102D01*
X618245Y198311D01*
X618014Y198635D01*
X617929Y199024D01*
X618002Y199415D01*
X618222Y199747D01*
X622144Y203669D01*
X622461Y203883D01*
X622851Y203962D01*
X624422Y203962D01*
X628343Y205586D01*
X631344Y208587D01*
X632968Y212508D01*
X632968Y215662D01*
X633035Y216023D01*
X633250Y216358D01*
X633578Y216583D01*
X633968Y216662D01*
X651321Y216662D01*
X651696Y216589D01*
X652028Y216369D01*
X660869Y207528D01*
X661083Y207211D01*
X661162Y206821D01*
X661162Y152951D01*
X661089Y152576D01*
X660869Y152244D01*
X652375Y143750D01*
X652087Y143549D01*
X651700Y143457D01*
X651308Y143524D01*
X650972Y143739D01*
X650747Y144067D01*
X650668Y144457D01*
X650668Y154473D01*
X649278Y155862D01*
X649071Y156165D01*
X648986Y156553D01*
X649059Y156945D01*
X649278Y157276D01*
X650160Y158158D01*
X650160Y163710D01*
X635080Y163710D01*
X635080Y158158D01*
X635962Y157276D01*
X636169Y156974D01*
X636254Y156585D01*
X636181Y156194D01*
X635962Y155862D01*
X635205Y155106D01*
X634917Y154905D01*
X634530Y154813D01*
X634138Y154880D01*
X633802Y155094D01*
X633577Y155423D01*
X633498Y155813D01*
X633498Y156013D01*
X631713Y157798D01*
X617187Y157798D01*
X616298Y156908D01*
X615995Y156701D01*
X615607Y156616D01*
X615215Y156689D01*
X614884Y156908D01*
X614502Y157290D01*
X608450Y157290D01*
X608450Y146750D01*
X598910Y146750D01*
X598910Y142654D01*
X598848Y142308D01*
X598639Y141970D01*
X598315Y141739D01*
G37*
%LPC*%
G36*
X625450Y191500D02*
X632490Y191500D01*
X632490Y196552D01*
X631002Y198040D01*
X625450Y198040D01*
X625450Y191500D01*
G37*
G36*
X625450Y182960D02*
X631002Y182960D01*
X632490Y184448D01*
X632490Y189500D01*
X625450Y189500D01*
X625450Y182960D01*
G37*
G36*
X625450Y170750D02*
X632990Y170750D01*
X632990Y177802D01*
X631502Y179290D01*
X625450Y179290D01*
X625450Y170750D01*
G37*
G36*
X635080Y165710D02*
X641620Y165710D01*
X641620Y172750D01*
X636568Y172750D01*
X635080Y171262D01*
X635080Y165710D01*
G37*
G36*
X643620Y165710D02*
X650160Y165710D01*
X650160Y171262D01*
X648672Y172750D01*
X643620Y172750D01*
X643620Y165710D01*
G37*
G36*
X625450Y160210D02*
X631502Y160210D01*
X632990Y161698D01*
X632990Y168750D01*
X625450Y168750D01*
X625450Y160210D01*
G37*
G36*
X598910Y148750D02*
X606450Y148750D01*
X606450Y157290D01*
X600398Y157290D01*
X598910Y155802D01*
X598910Y148750D01*
G37*
%LPD*%
G36*
X506242Y197577D02*
X505852Y197498D01*
X497448Y197498D01*
X497088Y197565D01*
X496752Y197780D01*
X496527Y198108D01*
X496448Y198498D01*
X496448Y208410D01*
X496515Y208771D01*
X496730Y209106D01*
X497058Y209331D01*
X497448Y209410D01*
X497965Y209410D01*
X498341Y209337D01*
X498672Y209117D01*
X498887Y208902D01*
X506360Y208902D01*
X506721Y208835D01*
X507056Y208620D01*
X507281Y208292D01*
X507360Y207902D01*
X507360Y206885D01*
X507287Y206509D01*
X507067Y206178D01*
X506852Y205963D01*
X506852Y198498D01*
X506785Y198138D01*
X506570Y197802D01*
X506242Y197577D01*
G37*
G36*
X235154Y49212D02*
X234764Y49133D01*
X215347Y49133D01*
X215009Y49192D01*
X214669Y49398D01*
X214436Y49721D01*
X214348Y50109D01*
X214417Y50501D01*
X214635Y50834D01*
X214965Y51057D01*
X217229Y51995D01*
X219150Y53916D01*
X220190Y56426D01*
X220190Y59144D01*
X219662Y60419D01*
X219586Y60770D01*
X219653Y61163D01*
X219867Y61498D01*
X220195Y61723D01*
X220494Y61783D01*
X221902Y63192D01*
X222205Y63399D01*
X222593Y63484D01*
X222985Y63411D01*
X223316Y63192D01*
X224198Y62310D01*
X229750Y62310D01*
X229750Y77390D01*
X224198Y77390D01*
X223316Y76508D01*
X223014Y76301D01*
X222625Y76216D01*
X222234Y76289D01*
X221902Y76508D01*
X220496Y77914D01*
X220223Y77965D01*
X219887Y78180D01*
X219662Y78508D01*
X219583Y78898D01*
X219583Y80487D01*
X219650Y80848D01*
X219865Y81183D01*
X220193Y81408D01*
X220495Y81469D01*
X221902Y82877D01*
X222205Y83084D01*
X222593Y83169D01*
X222985Y83096D01*
X223316Y82877D01*
X224198Y81995D01*
X229750Y81995D01*
X229750Y97075D01*
X224198Y97075D01*
X223316Y96193D01*
X223014Y95986D01*
X222625Y95901D01*
X222234Y95974D01*
X221902Y96193D01*
X220513Y97583D01*
X220338Y97583D01*
X219978Y97650D01*
X219642Y97865D01*
X219417Y98193D01*
X219338Y98583D01*
X219338Y176617D01*
X218487Y178670D01*
X191273Y205885D01*
X191059Y206202D01*
X191031Y206340D01*
X190373Y207929D01*
X190297Y208280D01*
X190364Y208673D01*
X190578Y209008D01*
X190907Y209233D01*
X191297Y209312D01*
X206189Y209312D01*
X206564Y209239D01*
X206896Y209019D01*
X227434Y188481D01*
X227648Y188164D01*
X227727Y187774D01*
X227727Y126593D01*
X265534Y88786D01*
X265748Y88469D01*
X265827Y88079D01*
X265827Y67392D01*
X265768Y67054D01*
X265562Y66714D01*
X265239Y66481D01*
X264851Y66393D01*
X264459Y66462D01*
X264126Y66680D01*
X263903Y67010D01*
X262965Y69274D01*
X261044Y71195D01*
X258534Y72235D01*
X255816Y72235D01*
X253306Y71195D01*
X251385Y69274D01*
X250345Y66764D01*
X250345Y64714D01*
X250272Y64339D01*
X250052Y64007D01*
X235471Y49426D01*
X235154Y49212D01*
G37*
%LPC*%
G36*
X231750Y90535D02*
X238790Y90535D01*
X238790Y95587D01*
X237302Y97075D01*
X231750Y97075D01*
X231750Y90535D01*
G37*
G36*
X231750Y81995D02*
X237302Y81995D01*
X238790Y83483D01*
X238790Y88535D01*
X231750Y88535D01*
X231750Y81995D01*
G37*
G36*
X231750Y70850D02*
X238790Y70850D01*
X238790Y75902D01*
X237302Y77390D01*
X231750Y77390D01*
X231750Y70850D01*
G37*
G36*
X231750Y62310D02*
X237302Y62310D01*
X238790Y63798D01*
X238790Y68850D01*
X231750Y68850D01*
X231750Y62310D01*
G37*
%LPD*%
G36*
X204592Y84559D02*
X204202Y84480D01*
X196850Y84480D01*
X196474Y84553D01*
X196143Y84773D01*
X195873Y85043D01*
X195665Y85345D01*
X195580Y85734D01*
X195653Y86125D01*
X195873Y86457D01*
X197078Y87662D01*
X197078Y96538D01*
X195873Y97743D01*
X195665Y98045D01*
X195580Y98434D01*
X195653Y98825D01*
X195873Y99157D01*
X197078Y100362D01*
X197078Y109238D01*
X195873Y110443D01*
X195665Y110745D01*
X195580Y111134D01*
X195653Y111525D01*
X195873Y111857D01*
X197078Y113062D01*
X197078Y121938D01*
X195873Y123143D01*
X195665Y123445D01*
X195580Y123834D01*
X195653Y124225D01*
X195873Y124557D01*
X197078Y125762D01*
X197078Y134638D01*
X195873Y135843D01*
X195665Y136145D01*
X195580Y136534D01*
X195653Y136925D01*
X195873Y137257D01*
X197078Y138462D01*
X197078Y147338D01*
X195873Y148543D01*
X195665Y148845D01*
X195580Y149234D01*
X195653Y149625D01*
X195873Y149957D01*
X197078Y151162D01*
X197078Y160038D01*
X195513Y161602D01*
X195306Y161905D01*
X195221Y162293D01*
X195294Y162685D01*
X195513Y163016D01*
X196570Y164073D01*
X196570Y167300D01*
X166490Y167300D01*
X166490Y164073D01*
X167547Y163016D01*
X167754Y162714D01*
X167839Y162325D01*
X167766Y161934D01*
X167547Y161602D01*
X165885Y159941D01*
X165568Y159727D01*
X165178Y159648D01*
X160273Y159648D01*
X140375Y139750D01*
X140087Y139549D01*
X139700Y139457D01*
X139308Y139524D01*
X138972Y139739D01*
X138747Y140067D01*
X138668Y140457D01*
X138668Y164914D01*
X138741Y165289D01*
X138961Y165621D01*
X164703Y191363D01*
X164703Y193872D01*
X164770Y194233D01*
X164985Y194568D01*
X165313Y194793D01*
X165703Y194872D01*
X168013Y194872D01*
X169798Y196657D01*
X169798Y202597D01*
X169865Y202958D01*
X170080Y203293D01*
X170408Y203518D01*
X170798Y203597D01*
X176714Y203597D01*
X177082Y203527D01*
X177415Y203310D01*
X177638Y202980D01*
X178360Y201236D01*
X180281Y199315D01*
X182905Y198228D01*
X183038Y198202D01*
X183370Y197982D01*
X207869Y173483D01*
X208083Y173166D01*
X208162Y172776D01*
X208162Y98583D01*
X208095Y98223D01*
X207880Y97887D01*
X207552Y97662D01*
X207162Y97583D01*
X206987Y97583D01*
X205202Y95798D01*
X205202Y85480D01*
X205135Y85120D01*
X204920Y84784D01*
X204592Y84559D01*
G37*
%LPC*%
G36*
X166490Y169300D02*
X180530Y169300D01*
X180530Y174015D01*
X167978Y174015D01*
X166490Y172527D01*
X166490Y169300D01*
G37*
G36*
X182530Y169300D02*
X196570Y169300D01*
X196570Y172527D01*
X195082Y174015D01*
X182530Y174015D01*
X182530Y169300D01*
G37*
%LPD*%
G36*
X777830Y21907D02*
X777440Y21828D01*
X757811Y21828D01*
X757436Y21901D01*
X757104Y22121D01*
X745641Y33584D01*
X745427Y33901D01*
X745348Y34291D01*
X745348Y39213D01*
X745133Y39428D01*
X744919Y39745D01*
X744840Y40135D01*
X744840Y43450D01*
X727760Y43450D01*
X727760Y40135D01*
X727687Y39759D01*
X727467Y39428D01*
X727252Y39213D01*
X727252Y36537D01*
X727190Y36191D01*
X726981Y35853D01*
X726657Y35622D01*
X726268Y35537D01*
X725877Y35610D01*
X725545Y35830D01*
X724423Y36952D01*
X724209Y37269D01*
X724130Y37659D01*
X724130Y39409D01*
X723128Y41827D01*
X721277Y43678D01*
X718859Y44680D01*
X716053Y44680D01*
X715693Y44747D01*
X715357Y44962D01*
X715132Y45290D01*
X715053Y45680D01*
X715053Y49348D01*
X713673Y50728D01*
X713465Y51030D01*
X713380Y51419D01*
X713453Y51810D01*
X713673Y52142D01*
X715053Y53522D01*
X715053Y62048D01*
X713673Y63428D01*
X713465Y63730D01*
X713380Y64119D01*
X713453Y64510D01*
X713673Y64842D01*
X715053Y66222D01*
X715053Y74748D01*
X713673Y76128D01*
X713465Y76430D01*
X713380Y76819D01*
X713453Y77210D01*
X713673Y77542D01*
X715053Y78922D01*
X715053Y87448D01*
X713673Y88828D01*
X713465Y89130D01*
X713380Y89519D01*
X713453Y89910D01*
X713673Y90242D01*
X715053Y91622D01*
X715053Y100148D01*
X713673Y101528D01*
X713465Y101830D01*
X713380Y102219D01*
X713453Y102610D01*
X713673Y102942D01*
X715053Y104322D01*
X715053Y112830D01*
X715115Y113176D01*
X715324Y113514D01*
X715648Y113745D01*
X716037Y113830D01*
X716428Y113757D01*
X716760Y113537D01*
X722219Y108078D01*
X722433Y107761D01*
X722512Y107371D01*
X722512Y104298D01*
X722445Y103938D01*
X722230Y103602D01*
X721902Y103377D01*
X721512Y103298D01*
X721337Y103298D01*
X719552Y101513D01*
X719552Y88987D01*
X721337Y87202D01*
X721512Y87202D01*
X721873Y87135D01*
X722208Y86920D01*
X722433Y86592D01*
X722512Y86202D01*
X722512Y85248D01*
X722445Y84888D01*
X722230Y84552D01*
X721902Y84327D01*
X721512Y84248D01*
X721337Y84248D01*
X719552Y82463D01*
X719552Y69937D01*
X721337Y68152D01*
X721662Y68152D01*
X722030Y68082D01*
X722364Y67865D01*
X722586Y67535D01*
X723363Y65660D01*
X726760Y62262D01*
X726961Y61974D01*
X727053Y61587D01*
X726986Y61195D01*
X726771Y60859D01*
X726443Y60634D01*
X726053Y60555D01*
X723861Y60555D01*
X721443Y59553D01*
X719592Y57702D01*
X718590Y55284D01*
X718590Y52666D01*
X719592Y50248D01*
X721443Y48397D01*
X723861Y47395D01*
X726572Y47395D01*
X726728Y47429D01*
X727121Y47362D01*
X727456Y47147D01*
X727681Y46819D01*
X727760Y46429D01*
X727760Y45450D01*
X744840Y45450D01*
X744840Y48765D01*
X744913Y49141D01*
X745133Y49472D01*
X745348Y49687D01*
X745348Y58213D01*
X743563Y59998D01*
X742888Y59998D01*
X742528Y60065D01*
X742192Y60280D01*
X741967Y60608D01*
X741888Y60998D01*
X741888Y61737D01*
X741037Y63790D01*
X737875Y66953D01*
X737674Y67241D01*
X737582Y67628D01*
X737649Y68021D01*
X737864Y68356D01*
X738192Y68581D01*
X738582Y68660D01*
X744100Y68660D01*
X744100Y83740D01*
X738548Y83740D01*
X737666Y82858D01*
X737364Y82651D01*
X736975Y82566D01*
X736584Y82639D01*
X736252Y82858D01*
X734863Y84248D01*
X734688Y84248D01*
X734328Y84315D01*
X733992Y84530D01*
X733767Y84858D01*
X733688Y85248D01*
X733688Y86202D01*
X733755Y86563D01*
X733970Y86898D01*
X734298Y87123D01*
X734688Y87202D01*
X734863Y87202D01*
X736252Y88592D01*
X736555Y88799D01*
X736943Y88884D01*
X737335Y88811D01*
X737666Y88592D01*
X738548Y87710D01*
X744100Y87710D01*
X744100Y102790D01*
X738548Y102790D01*
X737666Y101908D01*
X737364Y101701D01*
X736975Y101616D01*
X736584Y101689D01*
X736252Y101908D01*
X734863Y103298D01*
X734688Y103298D01*
X734328Y103365D01*
X733992Y103580D01*
X733767Y103908D01*
X733688Y104298D01*
X733688Y111212D01*
X732837Y113265D01*
X721683Y124420D01*
X721482Y124708D01*
X721390Y125095D01*
X721457Y125488D01*
X721672Y125823D01*
X722000Y126048D01*
X722390Y126127D01*
X772567Y126127D01*
X788908Y142468D01*
X788908Y193437D01*
X788975Y193798D01*
X789190Y194133D01*
X789518Y194358D01*
X789908Y194437D01*
X819596Y194437D01*
X819971Y194364D01*
X820303Y194144D01*
X832319Y182128D01*
X832533Y181811D01*
X832612Y181421D01*
X832612Y173568D01*
X832545Y173208D01*
X832330Y172872D01*
X832002Y172647D01*
X831612Y172568D01*
X828458Y172568D01*
X824537Y170944D01*
X821536Y167943D01*
X819912Y164022D01*
X819912Y159778D01*
X821536Y155857D01*
X824537Y152856D01*
X828458Y151232D01*
X847942Y151232D01*
X851863Y152856D01*
X852765Y153758D01*
X853053Y153959D01*
X853440Y154050D01*
X853833Y153984D01*
X854168Y153769D01*
X854393Y153441D01*
X854472Y153051D01*
X854472Y145349D01*
X854410Y145004D01*
X854201Y144665D01*
X853877Y144435D01*
X853488Y144349D01*
X853097Y144422D01*
X852765Y144642D01*
X851863Y145544D01*
X847942Y147168D01*
X828458Y147168D01*
X824537Y145544D01*
X821536Y142543D01*
X819912Y138622D01*
X819912Y134378D01*
X821536Y130457D01*
X824537Y127456D01*
X828458Y125832D01*
X847942Y125832D01*
X851863Y127456D01*
X852765Y128358D01*
X853053Y128559D01*
X853440Y128650D01*
X853833Y128584D01*
X854168Y128369D01*
X854393Y128041D01*
X854472Y127651D01*
X854472Y119949D01*
X854410Y119604D01*
X854201Y119265D01*
X853877Y119035D01*
X853488Y118949D01*
X853097Y119022D01*
X852765Y119242D01*
X851863Y120144D01*
X847942Y121768D01*
X828458Y121768D01*
X824537Y120144D01*
X821536Y117143D01*
X819912Y113222D01*
X819912Y108978D01*
X821536Y105057D01*
X824537Y102056D01*
X828458Y100432D01*
X847942Y100432D01*
X851863Y102056D01*
X852765Y102958D01*
X853053Y103159D01*
X853440Y103250D01*
X853833Y103184D01*
X854168Y102969D01*
X854393Y102641D01*
X854472Y102251D01*
X854472Y93831D01*
X854410Y93485D01*
X854201Y93146D01*
X853877Y92916D01*
X853488Y92831D01*
X853097Y92904D01*
X852765Y93124D01*
X851575Y94313D01*
X847841Y95860D01*
X839200Y95860D01*
X839200Y75540D01*
X847841Y75540D01*
X851575Y77087D01*
X852765Y78276D01*
X853053Y78477D01*
X853440Y78569D01*
X853833Y78502D01*
X854168Y78288D01*
X854393Y77959D01*
X854472Y77569D01*
X854472Y66861D01*
X854399Y66486D01*
X854179Y66154D01*
X845316Y57291D01*
X844999Y57077D01*
X844609Y56998D01*
X815998Y56998D01*
X815638Y57065D01*
X815302Y57280D01*
X815077Y57608D01*
X814998Y57998D01*
X814998Y59213D01*
X813213Y60998D01*
X799687Y60998D01*
X797902Y59213D01*
X797902Y46687D01*
X799432Y45157D01*
X799640Y44855D01*
X799725Y44466D01*
X799652Y44075D01*
X799432Y43743D01*
X797632Y41943D01*
X797330Y41735D01*
X796941Y41650D01*
X796550Y41723D01*
X796218Y41943D01*
X794058Y44102D01*
X793851Y44405D01*
X793766Y44793D01*
X793839Y45185D01*
X794058Y45516D01*
X795440Y46898D01*
X795440Y51950D01*
X779360Y51950D01*
X779360Y46898D01*
X780742Y45516D01*
X780949Y45214D01*
X781034Y44825D01*
X780961Y44434D01*
X780742Y44102D01*
X778852Y42213D01*
X778852Y29687D01*
X780916Y27623D01*
X781123Y27321D01*
X781209Y26932D01*
X781136Y26541D01*
X780916Y26209D01*
X778440Y23733D01*
X778440Y22828D01*
X778373Y22468D01*
X778158Y22132D01*
X777830Y21907D01*
G37*
%LPC*%
G36*
X755037Y47902D02*
X769563Y47902D01*
X771348Y49687D01*
X771348Y57236D01*
X771418Y57604D01*
X771635Y57938D01*
X771965Y58160D01*
X773420Y58763D01*
X779682Y65025D01*
X780533Y67078D01*
X780533Y67152D01*
X780600Y67513D01*
X780815Y67848D01*
X781143Y68073D01*
X781533Y68152D01*
X781708Y68152D01*
X783493Y69937D01*
X783493Y82463D01*
X781708Y84248D01*
X781533Y84248D01*
X781173Y84315D01*
X780837Y84530D01*
X780612Y84858D01*
X780533Y85248D01*
X780533Y85702D01*
X780600Y86063D01*
X780815Y86398D01*
X781143Y86623D01*
X781533Y86702D01*
X793418Y86702D01*
X795307Y88592D01*
X795610Y88799D01*
X795998Y88884D01*
X796390Y88811D01*
X796721Y88592D01*
X798103Y87210D01*
X803155Y87210D01*
X803155Y103290D01*
X798103Y103290D01*
X796721Y101908D01*
X796419Y101701D01*
X796030Y101616D01*
X795639Y101689D01*
X795307Y101908D01*
X793418Y103798D01*
X780898Y103798D01*
X780538Y103865D01*
X780202Y104080D01*
X779977Y104408D01*
X779898Y104798D01*
X779898Y109452D01*
X779047Y111505D01*
X775061Y115492D01*
X774844Y115816D01*
X773928Y118027D01*
X772077Y119878D01*
X769659Y120880D01*
X767041Y120880D01*
X764623Y119878D01*
X762772Y118027D01*
X761770Y115609D01*
X761770Y112991D01*
X762772Y110573D01*
X764623Y108722D01*
X766834Y107806D01*
X767158Y107589D01*
X768429Y106318D01*
X768643Y106001D01*
X768722Y105611D01*
X768722Y104298D01*
X768655Y103938D01*
X768440Y103602D01*
X768112Y103377D01*
X767722Y103298D01*
X767547Y103298D01*
X766158Y101908D01*
X765855Y101701D01*
X765467Y101616D01*
X765075Y101689D01*
X764744Y101908D01*
X763862Y102790D01*
X758310Y102790D01*
X758310Y87710D01*
X763862Y87710D01*
X764744Y88592D01*
X765046Y88799D01*
X765435Y88884D01*
X765826Y88811D01*
X766158Y88592D01*
X767547Y87202D01*
X768357Y87202D01*
X768718Y87135D01*
X769053Y86920D01*
X769278Y86592D01*
X769357Y86202D01*
X769357Y85248D01*
X769290Y84888D01*
X769075Y84552D01*
X768747Y84327D01*
X768357Y84248D01*
X768182Y84248D01*
X766793Y82858D01*
X766490Y82651D01*
X766102Y82566D01*
X765710Y82639D01*
X765379Y82858D01*
X764497Y83740D01*
X758945Y83740D01*
X758945Y68660D01*
X760018Y68660D01*
X760364Y68598D01*
X760702Y68389D01*
X760933Y68065D01*
X761018Y67676D01*
X760945Y67285D01*
X760725Y66953D01*
X757563Y63790D01*
X756712Y61737D01*
X756712Y60998D01*
X756645Y60638D01*
X756430Y60302D01*
X756102Y60077D01*
X755712Y59998D01*
X755037Y59998D01*
X753252Y58213D01*
X753252Y49687D01*
X755037Y47902D01*
G37*
G36*
X805155Y96250D02*
X811695Y96250D01*
X811695Y101802D01*
X810207Y103290D01*
X805155Y103290D01*
X805155Y96250D01*
G37*
G36*
X746100Y87710D02*
X756310Y87710D01*
X756310Y102790D01*
X746100Y102790D01*
X746100Y87710D01*
G37*
G36*
X820420Y86700D02*
X837200Y86700D01*
X837200Y95860D01*
X828559Y95860D01*
X824825Y94313D01*
X821967Y91455D01*
X820420Y87721D01*
X820420Y86700D01*
G37*
G36*
X805155Y87210D02*
X810207Y87210D01*
X811695Y88698D01*
X811695Y94250D01*
X805155Y94250D01*
X805155Y87210D01*
G37*
G36*
X828559Y75540D02*
X837200Y75540D01*
X837200Y84700D01*
X820420Y84700D01*
X820420Y83679D01*
X821967Y79945D01*
X824825Y77087D01*
X828559Y75540D01*
G37*
G36*
X746100Y68660D02*
X756945Y68660D01*
X756945Y83740D01*
X746100Y83740D01*
X746100Y68660D01*
G37*
G36*
X779360Y53950D02*
X786400Y53950D01*
X786400Y60490D01*
X780848Y60490D01*
X779360Y59002D01*
X779360Y53950D01*
G37*
G36*
X788400Y53950D02*
X795440Y53950D01*
X795440Y59002D01*
X793952Y60490D01*
X788400Y60490D01*
X788400Y53950D01*
G37*
G36*
X755037Y28902D02*
X769563Y28902D01*
X771348Y30687D01*
X771348Y39213D01*
X769563Y40998D01*
X755037Y40998D01*
X753252Y39213D01*
X753252Y30687D01*
X755037Y28902D01*
G37*
%LPD*%
G36*
X780217Y177007D02*
X779828Y176922D01*
X779437Y176995D01*
X779105Y177215D01*
X777647Y178673D01*
X776028Y178673D01*
X775668Y178740D01*
X775332Y178955D01*
X775107Y179283D01*
X775101Y179315D01*
X773788Y180627D01*
X773581Y180930D01*
X773496Y181318D01*
X773569Y181710D01*
X773788Y182041D01*
X774520Y182773D01*
X774520Y186325D01*
X763355Y186325D01*
X763355Y188325D01*
X774520Y188325D01*
X774520Y191877D01*
X773788Y192609D01*
X773581Y192911D01*
X773496Y193300D01*
X773569Y193691D01*
X773788Y194023D01*
X773910Y194144D01*
X774227Y194358D01*
X774617Y194437D01*
X779812Y194437D01*
X780173Y194370D01*
X780508Y194155D01*
X780733Y193827D01*
X780812Y193437D01*
X780812Y177922D01*
X780750Y177576D01*
X780541Y177238D01*
X780217Y177007D01*
G37*
G36*
X407002Y147002D02*
X406612Y146923D01*
X394521Y146923D01*
X394146Y146996D01*
X393814Y147216D01*
X382002Y159028D01*
X381801Y159316D01*
X381709Y159703D01*
X381776Y160096D01*
X381991Y160431D01*
X382319Y160656D01*
X382709Y160735D01*
X386105Y160735D01*
X386105Y167275D01*
X379065Y167275D01*
X379065Y164379D01*
X379003Y164033D01*
X378794Y163695D01*
X378470Y163464D01*
X378081Y163379D01*
X377690Y163452D01*
X377358Y163672D01*
X362992Y178038D01*
X288536Y178038D01*
X288191Y178100D01*
X287852Y178309D01*
X287622Y178633D01*
X287536Y179022D01*
X287609Y179413D01*
X287829Y179745D01*
X287893Y179809D01*
X288210Y180023D01*
X288600Y180102D01*
X343307Y180102D01*
X347820Y184615D01*
X348108Y184816D01*
X348495Y184908D01*
X348888Y184841D01*
X349223Y184626D01*
X349448Y184298D01*
X349527Y183908D01*
X349527Y182452D01*
X351312Y180667D01*
X365838Y180667D01*
X367545Y182374D01*
X367862Y182588D01*
X368252Y182667D01*
X375298Y182667D01*
X375674Y182594D01*
X376005Y182374D01*
X376202Y182177D01*
X384064Y182177D01*
X384439Y182104D01*
X384771Y181884D01*
X389133Y177522D01*
X389334Y177234D01*
X389426Y176847D01*
X389359Y176455D01*
X389144Y176119D01*
X388816Y175894D01*
X388426Y175815D01*
X388105Y175815D01*
X388105Y160735D01*
X393657Y160735D01*
X394539Y161617D01*
X394841Y161824D01*
X395230Y161909D01*
X395621Y161836D01*
X395953Y161617D01*
X397342Y160227D01*
X400054Y160227D01*
X400429Y160154D01*
X400761Y159934D01*
X407319Y153376D01*
X407533Y153059D01*
X407612Y152669D01*
X407612Y147923D01*
X407545Y147563D01*
X407330Y147227D01*
X407002Y147002D01*
G37*
%LPC*%
G36*
X379065Y169275D02*
X386105Y169275D01*
X386105Y175815D01*
X380553Y175815D01*
X379065Y174327D01*
X379065Y169275D01*
G37*
%LPD*%
G36*
X485816Y157721D02*
X485426Y157642D01*
X483233Y157642D01*
X482873Y157709D01*
X482537Y157924D01*
X482312Y158252D01*
X482233Y158642D01*
X482233Y164723D01*
X480448Y166508D01*
X465922Y166508D01*
X464892Y165478D01*
X464590Y165270D01*
X464201Y165185D01*
X463810Y165258D01*
X463478Y165478D01*
X462448Y166508D01*
X447673Y166508D01*
X447313Y166575D01*
X446977Y166790D01*
X446752Y167118D01*
X446673Y167508D01*
X446673Y176378D01*
X446735Y176724D01*
X446944Y177062D01*
X447268Y177293D01*
X447657Y177378D01*
X448048Y177305D01*
X448380Y177085D01*
X449884Y175581D01*
X450098Y175264D01*
X450177Y174874D01*
X450177Y170402D01*
X451962Y168617D01*
X464488Y168617D01*
X466377Y170507D01*
X466680Y170714D01*
X467068Y170799D01*
X467460Y170726D01*
X467791Y170507D01*
X469173Y169125D01*
X474225Y169125D01*
X474225Y178165D01*
X482765Y178165D01*
X482765Y178386D01*
X482827Y178732D01*
X483036Y179070D01*
X483360Y179301D01*
X483749Y179386D01*
X484140Y179313D01*
X484472Y179093D01*
X486133Y177432D01*
X486347Y177115D01*
X486426Y176725D01*
X486426Y158642D01*
X486359Y158282D01*
X486144Y157946D01*
X485816Y157721D01*
G37*
%LPC*%
G36*
X476225Y169125D02*
X481277Y169125D01*
X482765Y170613D01*
X482765Y176165D01*
X476225Y176165D01*
X476225Y169125D01*
G37*
%LPD*%
G36*
X555377Y113719D02*
X554990Y113627D01*
X554598Y113694D01*
X554262Y113909D01*
X554037Y114237D01*
X553958Y114627D01*
X553958Y138879D01*
X554031Y139254D01*
X554251Y139586D01*
X565221Y150556D01*
X565509Y150757D01*
X565896Y150849D01*
X566289Y150782D01*
X566624Y150567D01*
X566849Y150239D01*
X566928Y149849D01*
X566928Y131743D01*
X567143Y131528D01*
X567357Y131211D01*
X567436Y130821D01*
X567436Y128800D01*
X577326Y128800D01*
X577326Y126800D01*
X567436Y126800D01*
X567436Y124779D01*
X567363Y124403D01*
X567143Y124072D01*
X566928Y123857D01*
X566928Y118327D01*
X566864Y117974D01*
X566652Y117637D01*
X566325Y117409D01*
X565936Y117327D01*
X565545Y117403D01*
X563284Y118340D01*
X560666Y118340D01*
X558248Y117338D01*
X556397Y115487D01*
X555882Y114244D01*
X555698Y113954D01*
X555377Y113719D01*
G37*
G36*
X333813Y29527D02*
X333423Y29448D01*
X317686Y29448D01*
X317311Y29521D01*
X316979Y29741D01*
X289698Y57022D01*
X289484Y57339D01*
X289405Y57729D01*
X289405Y59779D01*
X288365Y62289D01*
X286444Y64210D01*
X285023Y64799D01*
X284728Y64988D01*
X284495Y65311D01*
X284406Y65699D01*
X284476Y66090D01*
X284693Y66424D01*
X285023Y66646D01*
X286444Y67235D01*
X287893Y68684D01*
X288210Y68898D01*
X288600Y68977D01*
X316462Y68977D01*
X316823Y68910D01*
X317158Y68695D01*
X317383Y68367D01*
X317462Y67977D01*
X317462Y66237D01*
X319247Y64452D01*
X331773Y64452D01*
X333303Y65982D01*
X333605Y66190D01*
X333994Y66275D01*
X334385Y66202D01*
X334717Y65982D01*
X336247Y64452D01*
X348773Y64452D01*
X350558Y66237D01*
X350558Y67428D01*
X350625Y67789D01*
X350840Y68124D01*
X351168Y68349D01*
X351558Y68428D01*
X352507Y68428D01*
X352883Y68355D01*
X353214Y68135D01*
X354352Y66998D01*
X354559Y66695D01*
X354644Y66307D01*
X354571Y65915D01*
X354352Y65584D01*
X353620Y64852D01*
X353620Y61300D01*
X374200Y61300D01*
X374200Y64852D01*
X373468Y65584D01*
X373261Y65886D01*
X373176Y66275D01*
X373249Y66666D01*
X373468Y66998D01*
X374708Y68237D01*
X374708Y77763D01*
X373828Y78643D01*
X373620Y78945D01*
X373535Y79334D01*
X373608Y79725D01*
X373828Y80057D01*
X374708Y80937D01*
X374708Y90463D01*
X373828Y91343D01*
X373620Y91645D01*
X373535Y92034D01*
X373608Y92425D01*
X373828Y92757D01*
X374708Y93637D01*
X374708Y103163D01*
X373828Y104043D01*
X373620Y104345D01*
X373535Y104734D01*
X373608Y105125D01*
X373828Y105457D01*
X374708Y106337D01*
X374708Y115863D01*
X373828Y116743D01*
X373620Y117045D01*
X373535Y117434D01*
X373608Y117825D01*
X373828Y118157D01*
X374708Y119037D01*
X374708Y128563D01*
X373828Y129443D01*
X373620Y129745D01*
X373535Y130134D01*
X373608Y130525D01*
X373828Y130857D01*
X374708Y131737D01*
X374708Y141263D01*
X373828Y142143D01*
X373620Y142445D01*
X373535Y142834D01*
X373608Y143225D01*
X373828Y143557D01*
X374708Y144437D01*
X374708Y146743D01*
X374770Y147089D01*
X374979Y147427D01*
X375303Y147658D01*
X375692Y147743D01*
X376083Y147670D01*
X376415Y147450D01*
X391413Y132452D01*
X406612Y132452D01*
X406973Y132385D01*
X407308Y132170D01*
X407533Y131842D01*
X407539Y131810D01*
X408492Y130857D01*
X408700Y130555D01*
X408785Y130166D01*
X408712Y129775D01*
X408492Y129443D01*
X408414Y129365D01*
X408104Y129154D01*
X407715Y129072D01*
X407324Y129148D01*
X405219Y130020D01*
X402501Y130020D01*
X399991Y128980D01*
X398070Y127059D01*
X397030Y124549D01*
X397030Y121831D01*
X398070Y119321D01*
X399991Y117400D01*
X402501Y116360D01*
X405219Y116360D01*
X406737Y116989D01*
X407088Y117065D01*
X407481Y116998D01*
X407816Y116783D01*
X408041Y116455D01*
X408120Y116065D01*
X408120Y112100D01*
X428700Y112100D01*
X428700Y115652D01*
X427968Y116384D01*
X427761Y116686D01*
X427676Y117075D01*
X427749Y117466D01*
X427968Y117798D01*
X429208Y119037D01*
X429208Y128563D01*
X428328Y129443D01*
X428120Y129745D01*
X428035Y130134D01*
X428108Y130525D01*
X428328Y130857D01*
X429208Y131737D01*
X429208Y136693D01*
X429270Y137039D01*
X429479Y137377D01*
X429803Y137608D01*
X430192Y137693D01*
X430583Y137620D01*
X430915Y137400D01*
X431904Y136411D01*
X432118Y136094D01*
X432197Y135704D01*
X432197Y115163D01*
X439648Y107712D01*
X477398Y107712D01*
X477744Y107650D01*
X478082Y107441D01*
X478313Y107117D01*
X478398Y106728D01*
X478325Y106337D01*
X478105Y106005D01*
X473432Y101332D01*
X473144Y101131D01*
X472757Y101039D01*
X472365Y101106D01*
X472029Y101321D01*
X471804Y101649D01*
X471725Y102039D01*
X471725Y103952D01*
X470237Y105440D01*
X465185Y105440D01*
X465185Y96400D01*
X456645Y96400D01*
X456645Y93948D01*
X456578Y93588D01*
X456363Y93252D01*
X456035Y93027D01*
X455645Y92948D01*
X453040Y92948D01*
X452680Y93015D01*
X452344Y93230D01*
X452119Y93558D01*
X452040Y93948D01*
X452040Y96400D01*
X436960Y96400D01*
X436960Y90848D01*
X437842Y89966D01*
X438049Y89664D01*
X438134Y89275D01*
X438061Y88884D01*
X437842Y88552D01*
X436452Y87163D01*
X436452Y74097D01*
X436379Y73721D01*
X436159Y73390D01*
X435952Y73183D01*
X435952Y63468D01*
X435885Y63108D01*
X435670Y62772D01*
X435342Y62547D01*
X434952Y62468D01*
X434568Y62468D01*
X430915Y58815D01*
X430627Y58614D01*
X430240Y58522D01*
X429848Y58589D01*
X429512Y58804D01*
X429287Y59132D01*
X429208Y59522D01*
X429208Y65063D01*
X428328Y65943D01*
X428120Y66245D01*
X428035Y66634D01*
X428108Y67025D01*
X428328Y67357D01*
X429208Y68237D01*
X429208Y77763D01*
X428328Y78643D01*
X428120Y78945D01*
X428035Y79334D01*
X428108Y79725D01*
X428328Y80057D01*
X429208Y80937D01*
X429208Y90463D01*
X428328Y91343D01*
X428120Y91645D01*
X428035Y92034D01*
X428108Y92425D01*
X428328Y92757D01*
X429208Y93637D01*
X429208Y103163D01*
X427968Y104402D01*
X427761Y104705D01*
X427676Y105093D01*
X427749Y105485D01*
X427968Y105816D01*
X428700Y106548D01*
X428700Y110100D01*
X408120Y110100D01*
X408120Y106548D01*
X408852Y105816D01*
X409059Y105514D01*
X409144Y105125D01*
X409071Y104734D01*
X408852Y104402D01*
X407612Y103163D01*
X407612Y97221D01*
X407550Y96876D01*
X407341Y96537D01*
X407017Y96307D01*
X406628Y96221D01*
X406237Y96294D01*
X405905Y96514D01*
X405824Y96595D01*
X403314Y97635D01*
X400596Y97635D01*
X398086Y96595D01*
X396165Y94674D01*
X395125Y92164D01*
X395125Y89446D01*
X396165Y86936D01*
X397939Y85162D01*
X398146Y84860D01*
X398232Y84471D01*
X398159Y84080D01*
X397939Y83748D01*
X396165Y81974D01*
X395125Y79464D01*
X395125Y76746D01*
X396165Y74236D01*
X398086Y72315D01*
X400596Y71275D01*
X402646Y71275D01*
X403021Y71202D01*
X403353Y70982D01*
X405383Y68952D01*
X406612Y68952D01*
X406973Y68885D01*
X407308Y68670D01*
X407533Y68342D01*
X407539Y68310D01*
X408492Y67357D01*
X408700Y67055D01*
X408785Y66666D01*
X408712Y66275D01*
X408492Y65943D01*
X407612Y65063D01*
X407612Y55537D01*
X407864Y55285D01*
X408065Y54997D01*
X408157Y54610D01*
X408090Y54218D01*
X407876Y53882D01*
X407547Y53657D01*
X407157Y53578D01*
X374444Y53578D01*
X374099Y53640D01*
X373760Y53849D01*
X373530Y54173D01*
X373444Y54562D01*
X373517Y54953D01*
X373737Y55285D01*
X374200Y55748D01*
X374200Y59300D01*
X353620Y59300D01*
X353620Y55748D01*
X355108Y54260D01*
X358541Y54260D01*
X358887Y54198D01*
X359225Y53989D01*
X359456Y53665D01*
X359541Y53276D01*
X359468Y52885D01*
X359248Y52553D01*
X349647Y42952D01*
X349647Y32448D01*
X349580Y32088D01*
X349365Y31752D01*
X349037Y31527D01*
X348647Y31448D01*
X335837Y31448D01*
X334130Y29741D01*
X333813Y29527D01*
G37*
%LPC*%
G36*
X445500Y98400D02*
X452040Y98400D01*
X452040Y103952D01*
X450552Y105440D01*
X445500Y105440D01*
X445500Y98400D01*
G37*
G36*
X436960Y98400D02*
X443500Y98400D01*
X443500Y105440D01*
X438448Y105440D01*
X436960Y103952D01*
X436960Y98400D01*
G37*
G36*
X456645Y98400D02*
X463185Y98400D01*
X463185Y105440D01*
X458133Y105440D01*
X456645Y103952D01*
X456645Y98400D01*
G37*
%LPD*%
G36*
X578479Y69941D02*
X578092Y69849D01*
X577700Y69916D01*
X577364Y70131D01*
X577139Y70459D01*
X577060Y70849D01*
X577060Y72479D01*
X576020Y74989D01*
X574571Y76438D01*
X574357Y76755D01*
X574278Y77145D01*
X574278Y79782D01*
X569138Y84922D01*
X568242Y84922D01*
X567882Y84989D01*
X567546Y85204D01*
X567321Y85532D01*
X567242Y85922D01*
X567242Y88487D01*
X565684Y90045D01*
X565483Y90333D01*
X565391Y90720D01*
X565458Y91113D01*
X565672Y91448D01*
X566001Y91673D01*
X566391Y91752D01*
X566505Y91752D01*
X566881Y91679D01*
X567212Y91459D01*
X568713Y89958D01*
X583939Y89958D01*
X585724Y91743D01*
X585724Y107857D01*
X585509Y108072D01*
X585295Y108389D01*
X585216Y108779D01*
X585216Y110800D01*
X575326Y110800D01*
X575326Y112800D01*
X585216Y112800D01*
X585216Y114752D01*
X585283Y115113D01*
X585498Y115448D01*
X585826Y115673D01*
X586216Y115752D01*
X590282Y115752D01*
X590643Y115685D01*
X590978Y115470D01*
X591203Y115142D01*
X591282Y114752D01*
X591282Y109942D01*
X593067Y108157D01*
X606593Y108157D01*
X607982Y109547D01*
X608285Y109754D01*
X608673Y109839D01*
X609065Y109766D01*
X609396Y109547D01*
X610278Y108665D01*
X615830Y108665D01*
X615830Y117205D01*
X624870Y117205D01*
X624870Y122257D01*
X623977Y123150D01*
X623776Y123438D01*
X623685Y123825D01*
X623752Y124218D01*
X623966Y124553D01*
X624294Y124778D01*
X624684Y124857D01*
X644932Y124857D01*
X664954Y144879D01*
X665256Y145087D01*
X665645Y145172D01*
X666036Y145099D01*
X666368Y144879D01*
X669935Y141313D01*
X671988Y140462D01*
X689421Y140462D01*
X689796Y140389D01*
X690128Y140169D01*
X701817Y128481D01*
X702014Y128200D01*
X702109Y127813D01*
X702045Y127421D01*
X701833Y127084D01*
X701507Y126856D01*
X701118Y126774D01*
X700727Y126850D01*
X700016Y127144D01*
X699692Y127361D01*
X696585Y130467D01*
X694532Y131318D01*
X693688Y131318D01*
X693328Y131385D01*
X692992Y131600D01*
X692799Y131882D01*
X690903Y133778D01*
X677377Y133778D01*
X675988Y132388D01*
X675685Y132181D01*
X675297Y132096D01*
X674905Y132169D01*
X674574Y132388D01*
X673692Y133270D01*
X668140Y133270D01*
X668140Y118190D01*
X673692Y118190D01*
X674574Y119072D01*
X674876Y119279D01*
X675265Y119364D01*
X675656Y119291D01*
X675988Y119072D01*
X677377Y117682D01*
X679092Y117682D01*
X679453Y117615D01*
X679788Y117400D01*
X680013Y117072D01*
X680092Y116682D01*
X680092Y86791D01*
X680019Y86416D01*
X679799Y86084D01*
X668541Y74826D01*
X668224Y74612D01*
X667834Y74533D01*
X663682Y74533D01*
X663306Y74606D01*
X662975Y74826D01*
X661673Y76128D01*
X661465Y76430D01*
X661380Y76819D01*
X661453Y77210D01*
X661673Y77542D01*
X663053Y78922D01*
X663053Y87448D01*
X661673Y88828D01*
X661465Y89130D01*
X661380Y89519D01*
X661453Y89910D01*
X661673Y90242D01*
X663053Y91622D01*
X663053Y100148D01*
X661313Y101887D01*
X661106Y102190D01*
X661021Y102578D01*
X661094Y102970D01*
X661313Y103301D01*
X662545Y104533D01*
X662545Y107585D01*
X635465Y107585D01*
X635465Y104533D01*
X636697Y103301D01*
X636904Y102999D01*
X636989Y102610D01*
X636916Y102219D01*
X636697Y101887D01*
X635035Y100226D01*
X634718Y100012D01*
X634328Y99933D01*
X625878Y99933D01*
X625518Y100000D01*
X625182Y100215D01*
X624957Y100543D01*
X624878Y100933D01*
X624878Y102648D01*
X623093Y104433D01*
X610567Y104433D01*
X609037Y102903D01*
X608735Y102695D01*
X608346Y102610D01*
X607955Y102683D01*
X607623Y102903D01*
X606093Y104433D01*
X593567Y104433D01*
X591782Y102648D01*
X591782Y89122D01*
X593567Y87337D01*
X602647Y87337D01*
X603008Y87270D01*
X603343Y87055D01*
X603568Y86727D01*
X603647Y86337D01*
X603647Y85748D01*
X603580Y85388D01*
X603365Y85052D01*
X603037Y84827D01*
X602647Y84748D01*
X593567Y84748D01*
X591782Y82963D01*
X591782Y81248D01*
X591715Y80888D01*
X591500Y80552D01*
X591172Y80327D01*
X590782Y80248D01*
X588873Y80248D01*
X578767Y70142D01*
X578479Y69941D01*
G37*
%LPC*%
G36*
X659100Y126730D02*
X666140Y126730D01*
X666140Y133270D01*
X660588Y133270D01*
X659100Y131782D01*
X659100Y126730D01*
G37*
G36*
X660588Y118190D02*
X666140Y118190D01*
X666140Y124730D01*
X659100Y124730D01*
X659100Y119678D01*
X660588Y118190D01*
G37*
G36*
X617830Y108665D02*
X623382Y108665D01*
X624870Y110153D01*
X624870Y115205D01*
X617830Y115205D01*
X617830Y108665D01*
G37*
G36*
X650005Y109585D02*
X662545Y109585D01*
X662545Y112637D01*
X661057Y114125D01*
X650005Y114125D01*
X650005Y109585D01*
G37*
G36*
X635465Y109585D02*
X648005Y109585D01*
X648005Y114125D01*
X636953Y114125D01*
X635465Y112637D01*
X635465Y109585D01*
G37*
%LPD*%
G36*
X445875Y115887D02*
X445485Y115808D01*
X443416Y115808D01*
X443041Y115881D01*
X442709Y116101D01*
X440586Y118224D01*
X440372Y118541D01*
X440293Y118931D01*
X440293Y135768D01*
X440355Y136114D01*
X440564Y136452D01*
X440888Y136683D01*
X441277Y136768D01*
X441668Y136695D01*
X442000Y136475D01*
X443848Y134627D01*
X444977Y134627D01*
X445338Y134560D01*
X445673Y134345D01*
X445898Y134017D01*
X445977Y133627D01*
X445977Y131912D01*
X447367Y130523D01*
X447574Y130220D01*
X447659Y129832D01*
X447586Y129440D01*
X447367Y129109D01*
X446485Y128227D01*
X446485Y122675D01*
X461565Y122675D01*
X461565Y125127D01*
X461632Y125488D01*
X461847Y125823D01*
X462175Y126048D01*
X462565Y126127D01*
X465170Y126127D01*
X465531Y126060D01*
X465866Y125845D01*
X466091Y125517D01*
X466170Y125127D01*
X466170Y122675D01*
X474710Y122675D01*
X474710Y120675D01*
X466170Y120675D01*
X466170Y116808D01*
X466103Y116448D01*
X465888Y116112D01*
X465560Y115887D01*
X465170Y115808D01*
X462565Y115808D01*
X462205Y115875D01*
X461869Y116090D01*
X461644Y116418D01*
X461565Y116808D01*
X461565Y120675D01*
X446485Y120675D01*
X446485Y116808D01*
X446418Y116448D01*
X446203Y116112D01*
X445875Y115887D01*
G37*
G36*
X474152Y64963D02*
X473765Y64871D01*
X473373Y64938D01*
X473037Y65153D01*
X472812Y65481D01*
X472733Y65871D01*
X472733Y73183D01*
X472526Y73390D01*
X472312Y73707D01*
X472233Y74097D01*
X472233Y75352D01*
X472300Y75713D01*
X472515Y76048D01*
X472843Y76273D01*
X473233Y76352D01*
X476751Y76352D01*
X490064Y89665D01*
X490381Y89879D01*
X490771Y89958D01*
X498087Y89958D01*
X499872Y91743D01*
X499872Y115857D01*
X499657Y116072D01*
X499443Y116389D01*
X499364Y116779D01*
X499364Y118800D01*
X489474Y118800D01*
X489474Y120800D01*
X499364Y120800D01*
X499364Y122821D01*
X499437Y123197D01*
X499657Y123528D01*
X500028Y123899D01*
X500330Y124106D01*
X500719Y124192D01*
X501110Y124119D01*
X501442Y123899D01*
X501754Y123587D01*
X501968Y123270D01*
X502047Y122880D01*
X502047Y106908D01*
X516976Y91979D01*
X517177Y91691D01*
X517269Y91304D01*
X517202Y90912D01*
X516987Y90576D01*
X516659Y90351D01*
X516269Y90272D01*
X501343Y90272D01*
X499558Y88487D01*
X499558Y85922D01*
X499491Y85562D01*
X499276Y85226D01*
X498948Y85001D01*
X498558Y84922D01*
X494198Y84922D01*
X474440Y65164D01*
X474152Y64963D01*
G37*
G36*
X444069Y12382D02*
X443679Y12303D01*
X416455Y12303D01*
X416095Y12370D01*
X415759Y12585D01*
X415534Y12913D01*
X415455Y13303D01*
X415455Y16145D01*
X406915Y16145D01*
X406915Y25185D01*
X401863Y25185D01*
X400481Y23803D01*
X400179Y23596D01*
X399790Y23511D01*
X399399Y23584D01*
X399067Y23803D01*
X397178Y25693D01*
X384652Y25693D01*
X382867Y23908D01*
X382867Y22193D01*
X382800Y21833D01*
X382585Y21497D01*
X382257Y21272D01*
X381867Y21193D01*
X376532Y21193D01*
X376156Y21266D01*
X375825Y21486D01*
X375363Y21948D01*
X362553Y21948D01*
X362193Y22015D01*
X361857Y22230D01*
X361632Y22558D01*
X361553Y22948D01*
X361553Y28360D01*
X361620Y28721D01*
X361835Y29056D01*
X362163Y29281D01*
X362553Y29360D01*
X367100Y29360D01*
X367100Y35900D01*
X376640Y35900D01*
X376640Y38952D01*
X375627Y39965D01*
X375426Y40253D01*
X375335Y40640D01*
X375402Y41033D01*
X375616Y41368D01*
X375944Y41593D01*
X376334Y41672D01*
X442022Y41672D01*
X442201Y41793D01*
X442591Y41872D01*
X451263Y41872D01*
X453048Y43657D01*
X453048Y53372D01*
X453115Y53733D01*
X453330Y54068D01*
X453658Y54293D01*
X454048Y54372D01*
X454637Y54372D01*
X454998Y54305D01*
X455333Y54090D01*
X455558Y53762D01*
X455637Y53372D01*
X455637Y43657D01*
X457422Y41872D01*
X465533Y41872D01*
X465879Y41810D01*
X466217Y41601D01*
X466448Y41277D01*
X466533Y40888D01*
X466460Y40497D01*
X466240Y40165D01*
X455181Y29106D01*
X454864Y28892D01*
X454474Y28813D01*
X439730Y28813D01*
X439355Y28886D01*
X439023Y29106D01*
X437574Y30555D01*
X435064Y31595D01*
X432346Y31595D01*
X429836Y30555D01*
X427915Y28634D01*
X426875Y26124D01*
X426875Y23406D01*
X427915Y20896D01*
X429836Y18975D01*
X432346Y17935D01*
X435064Y17935D01*
X437574Y18975D01*
X439023Y20424D01*
X439340Y20638D01*
X439730Y20717D01*
X450093Y20717D01*
X450439Y20655D01*
X450777Y20446D01*
X451008Y20122D01*
X451093Y19733D01*
X451020Y19342D01*
X450800Y19010D01*
X444386Y12596D01*
X444069Y12382D01*
G37*
%LPC*%
G36*
X369100Y29360D02*
X375152Y29360D01*
X376640Y30848D01*
X376640Y33900D01*
X369100Y33900D01*
X369100Y29360D01*
G37*
G36*
X408915Y18145D02*
X415455Y18145D01*
X415455Y23697D01*
X413967Y25185D01*
X408915Y25185D01*
X408915Y18145D01*
G37*
%LPD*%
G36*
X606274Y8127D02*
X605884Y8048D01*
X453702Y8048D01*
X453356Y8110D01*
X453018Y8319D01*
X452787Y8643D01*
X452702Y9032D01*
X452775Y9423D01*
X452995Y9755D01*
X477845Y34605D01*
X478133Y34806D01*
X478520Y34898D01*
X478913Y34831D01*
X479248Y34616D01*
X479473Y34288D01*
X479552Y33898D01*
X479552Y24791D01*
X485801Y18542D01*
X494639Y18542D01*
X500888Y24791D01*
X500888Y33629D01*
X494639Y39878D01*
X485532Y39878D01*
X485186Y39940D01*
X484848Y40149D01*
X484617Y40473D01*
X484532Y40862D01*
X484605Y41253D01*
X484825Y41585D01*
X486841Y43602D01*
X487158Y43815D01*
X487548Y43895D01*
X527057Y43895D01*
X527433Y43821D01*
X527764Y43602D01*
X529214Y42152D01*
X531724Y41113D01*
X534441Y41113D01*
X536027Y41770D01*
X536378Y41845D01*
X536771Y41778D01*
X537106Y41564D01*
X537331Y41236D01*
X537410Y40846D01*
X537410Y37198D01*
X538898Y35710D01*
X541950Y35710D01*
X541950Y45250D01*
X548490Y45250D01*
X548490Y51467D01*
X548557Y51828D01*
X548772Y52163D01*
X549100Y52388D01*
X549490Y52467D01*
X554902Y52467D01*
X555263Y52400D01*
X555598Y52185D01*
X555823Y51857D01*
X555902Y51467D01*
X555902Y36987D01*
X557687Y35202D01*
X566213Y35202D01*
X567998Y36987D01*
X567998Y39202D01*
X568065Y39563D01*
X568280Y39898D01*
X568608Y40123D01*
X568998Y40202D01*
X573382Y40202D01*
X573743Y40135D01*
X574078Y39920D01*
X574303Y39592D01*
X574382Y39202D01*
X574382Y33987D01*
X576272Y32098D01*
X576479Y31795D01*
X576564Y31407D01*
X576491Y31015D01*
X576272Y30684D01*
X574890Y29302D01*
X574890Y24250D01*
X590970Y24250D01*
X590970Y28465D01*
X591032Y28811D01*
X591241Y29149D01*
X591565Y29380D01*
X591954Y29465D01*
X592345Y29392D01*
X592677Y29172D01*
X593067Y28782D01*
X603282Y28782D01*
X603643Y28715D01*
X603978Y28500D01*
X604203Y28172D01*
X604282Y27782D01*
X604282Y22535D01*
X604209Y22160D01*
X603989Y21828D01*
X602540Y20379D01*
X601500Y17869D01*
X601500Y15151D01*
X602540Y12641D01*
X604461Y10720D01*
X606267Y9972D01*
X606557Y9788D01*
X606792Y9467D01*
X606884Y9080D01*
X606817Y8688D01*
X606602Y8352D01*
X606274Y8127D01*
G37*
%LPC*%
G36*
X543950Y35710D02*
X547002Y35710D01*
X548490Y37198D01*
X548490Y43250D01*
X543950Y43250D01*
X543950Y35710D01*
G37*
G36*
X548187Y10202D02*
X556713Y10202D01*
X558498Y11987D01*
X558498Y26513D01*
X556713Y28298D01*
X548187Y28298D01*
X546402Y26513D01*
X546402Y25838D01*
X546335Y25478D01*
X546120Y25142D01*
X545792Y24917D01*
X545402Y24838D01*
X527288Y24838D01*
X526928Y24905D01*
X526592Y25120D01*
X526367Y25448D01*
X526288Y25838D01*
X526288Y33629D01*
X520039Y39878D01*
X511201Y39878D01*
X504952Y33629D01*
X504952Y24791D01*
X511201Y18542D01*
X514161Y18542D01*
X514536Y18469D01*
X514868Y18249D01*
X518605Y14513D01*
X520658Y13662D01*
X545402Y13662D01*
X545763Y13595D01*
X546098Y13380D01*
X546323Y13052D01*
X546402Y12662D01*
X546402Y11987D01*
X548187Y10202D01*
G37*
G36*
X583930Y15710D02*
X589482Y15710D01*
X590970Y17198D01*
X590970Y22250D01*
X583930Y22250D01*
X583930Y15710D01*
G37*
G36*
X576378Y15710D02*
X581930Y15710D01*
X581930Y22250D01*
X574890Y22250D01*
X574890Y17198D01*
X576378Y15710D01*
G37*
%LPD*%
D10*
X576326Y95800D03*
X576326Y103800D03*
X576326Y111800D03*
X576326Y119800D03*
X576326Y127800D03*
X576326Y135800D03*
X576326Y143800D03*
X576326Y151800D03*
D11*
X561400Y166726D03*
X553400Y166726D03*
X545400Y166726D03*
X537400Y166726D03*
X529400Y166726D03*
X521400Y166726D03*
X513400Y166726D03*
X505400Y166726D03*
D10*
X490474Y151800D03*
X490474Y143800D03*
X490474Y135800D03*
X490474Y127800D03*
X490474Y119800D03*
X490474Y111800D03*
X490474Y103800D03*
X490474Y95800D03*
D11*
X505400Y80874D03*
X513400Y80874D03*
X521400Y80874D03*
X529400Y80874D03*
X537400Y80874D03*
X545400Y80874D03*
X553400Y80874D03*
X561400Y80874D03*
D12*
X624450Y147750D03*
X624450Y169750D03*
X607450Y169750D03*
X607450Y147750D03*
D13*
X642620Y147710D03*
X642620Y164710D03*
D14*
X607450Y190500D03*
X624450Y190500D03*
X599830Y116205D03*
X616830Y116205D03*
D13*
X454025Y121675D03*
X454025Y138675D03*
X473710Y121675D03*
X473710Y138675D03*
D15*
X455185Y156210D03*
X473185Y156210D03*
D13*
X599830Y56515D03*
X616830Y56515D03*
D14*
X616830Y36830D03*
X599830Y36830D03*
D13*
X616830Y95885D03*
X599830Y95885D03*
X616830Y76200D03*
X599830Y76200D03*
X293760Y161900D03*
X310760Y161900D03*
X325510Y149200D03*
X342510Y149200D03*
X293760Y136500D03*
X310760Y136500D03*
X325510Y123800D03*
X342510Y123800D03*
X293760Y111100D03*
X310760Y111100D03*
X325510Y98400D03*
X342510Y98400D03*
X293760Y85700D03*
X310760Y85700D03*
X325510Y73000D03*
X342510Y73000D03*
D16*
X444300Y187350D03*
X444300Y206350D03*
X419300Y196850D03*
X368100Y15900D03*
X368100Y34900D03*
X343100Y25400D03*
D17*
X363910Y149200D03*
X363910Y136500D03*
X363910Y123800D03*
X363910Y111100D03*
X363910Y98400D03*
X363910Y85700D03*
X363910Y73000D03*
X363910Y60300D03*
X418410Y60300D03*
X418410Y73000D03*
X418410Y85700D03*
X418410Y98400D03*
X418410Y111100D03*
X418410Y123800D03*
X418410Y136500D03*
X418410Y149200D03*
D14*
X404105Y168275D03*
X387105Y168275D03*
X230750Y89535D03*
X213750Y89535D03*
D16*
X736300Y53950D03*
X736300Y44450D03*
X736300Y34950D03*
X762300Y34950D03*
X762300Y53950D03*
D14*
X728100Y76200D03*
X745100Y76200D03*
X774945Y76200D03*
X757945Y76200D03*
X728100Y95250D03*
X745100Y95250D03*
X774310Y95250D03*
X757310Y95250D03*
D18*
X756990Y16510D03*
X733990Y16510D03*
D19*
X561950Y44250D03*
X542950Y44250D03*
X552450Y19250D03*
D20*
X649005Y95885D03*
X701005Y70485D03*
X649005Y108585D03*
X649005Y83185D03*
X649005Y70485D03*
X701005Y83185D03*
X701005Y57785D03*
X701005Y45085D03*
X649005Y45085D03*
X701005Y19685D03*
X649005Y57785D03*
X649005Y32385D03*
X701005Y32385D03*
X649005Y19685D03*
X701005Y95885D03*
X701005Y108585D03*
D14*
X684140Y125730D03*
X667140Y125730D03*
D21*
X764355Y161925D03*
X764355Y174625D03*
X764355Y187325D03*
X764355Y200025D03*
X710115Y200025D03*
X710115Y187325D03*
X710115Y174625D03*
X710115Y161925D03*
D22*
X737235Y180975D03*
D13*
X728735Y142875D03*
X745735Y142875D03*
D23*
X686435Y216875D03*
X686435Y195875D03*
D14*
X686435Y176775D03*
X686435Y159775D03*
X400050Y224400D03*
X400050Y207400D03*
X380365Y207400D03*
X380365Y224400D03*
X582930Y23250D03*
X582930Y40250D03*
D13*
X407915Y17145D03*
X390915Y17145D03*
X475225Y177165D03*
X458225Y177165D03*
D24*
X830580Y85700D02*
X845820Y85700D01*
X845820Y111100D02*
X830580Y111100D01*
X830580Y136500D02*
X845820Y136500D01*
X845820Y161900D02*
X830580Y161900D01*
X622300Y214630D02*
X622300Y229870D01*
X596900Y229870D02*
X596900Y214630D01*
D25*
X488775Y213200D03*
X488775Y208200D03*
X488775Y203200D03*
X488775Y198200D03*
X488775Y193200D03*
D26*
X496650Y190450D03*
X501650Y190450D03*
X506650Y190450D03*
D25*
X514525Y193200D03*
X514525Y198200D03*
X514525Y203200D03*
X514525Y208200D03*
X514525Y213200D03*
D26*
X506650Y215950D03*
X501650Y215950D03*
X496650Y215950D03*
D13*
X469900Y194700D03*
X469900Y211700D03*
D14*
X213750Y69850D03*
X230750Y69850D03*
X709685Y219075D03*
X726685Y219075D03*
X764785Y219075D03*
X747785Y219075D03*
D18*
X782250Y16510D03*
X805250Y16510D03*
D14*
X787400Y52950D03*
X787400Y35950D03*
X806450Y35950D03*
X806450Y52950D03*
D27*
X120500Y200920D03*
X120500Y219920D03*
X99500Y210420D03*
X120500Y23730D03*
X120500Y42730D03*
X99500Y33230D03*
D13*
X80645Y38980D03*
X80645Y21980D03*
X80645Y211210D03*
X80645Y228210D03*
D27*
X160500Y23730D03*
X160500Y42730D03*
X139500Y33230D03*
X160500Y200920D03*
X160500Y219920D03*
X139500Y210420D03*
D15*
X437625Y168275D03*
X419625Y168275D03*
D16*
X358575Y186715D03*
X358575Y205715D03*
X333575Y196215D03*
D13*
X464185Y80400D03*
X464185Y97400D03*
X444500Y80400D03*
X444500Y97400D03*
D14*
X464185Y49920D03*
X464185Y66920D03*
X444500Y49920D03*
X444500Y66920D03*
D13*
X804155Y95250D03*
X787155Y95250D03*
D18*
X404565Y187325D03*
X381565Y187325D03*
D28*
X523240Y59690D03*
D29*
X490220Y29210D03*
X515620Y29210D03*
D30*
X181530Y168300D03*
X181530Y155600D03*
X181530Y142900D03*
X181530Y130200D03*
X181530Y117500D03*
X181530Y104800D03*
X181530Y92100D03*
X181530Y79400D03*
D31*
X58830Y51850D03*
X78830Y195850D03*
D32*
X577850Y203200D02*
X615950Y203200D01*
X622300Y209550D01*
X622300Y222250D01*
D33*
X710115Y218645D02*
X710115Y200025D01*
X710115Y218645D02*
X709685Y219075D01*
X728100Y95250D02*
X728100Y76200D01*
X736300Y60625D02*
X736300Y53950D01*
X728100Y68825D02*
X728100Y76200D01*
X728100Y68825D02*
X736300Y60625D01*
X673100Y146050D02*
X666750Y152400D01*
X728100Y110100D02*
X728100Y95250D01*
X692150Y146050D02*
X673100Y146050D01*
X692150Y146050D02*
X728100Y110100D01*
X709685Y219075D02*
X700160Y228600D01*
X660400Y228600D02*
X654050Y222250D01*
X622300Y222250D01*
X660400Y228600D02*
X700160Y228600D01*
X666750Y209550D02*
X654050Y222250D01*
X666750Y209550D02*
X666750Y152400D01*
D34*
X725170Y53975D03*
D33*
X736275Y53975D01*
X736300Y53950D01*
D32*
X590550Y119800D02*
X576326Y119800D01*
X590550Y131445D02*
X586195Y135800D01*
X590550Y131445D02*
X590550Y119800D01*
X586195Y135800D02*
X576326Y135800D01*
X590550Y119800D02*
X596235Y119800D01*
X599830Y116205D01*
X400050Y224400D02*
X400050Y227850D01*
X405245Y233045D01*
X548005Y233045D01*
X577850Y203200D01*
X612530Y128905D02*
X599830Y116205D01*
X643255Y128905D02*
X666750Y152400D01*
X643255Y128905D02*
X612530Y128905D01*
X616830Y56515D02*
X608330Y48015D01*
D35*
X608330Y16510D03*
D32*
X608330Y48015D01*
X455185Y156210D02*
X451375Y152400D01*
X445770Y152400D01*
D35*
X445770Y152400D03*
X412750Y213388D03*
D32*
X401738Y224400D01*
X400050Y224400D01*
X624450Y190500D02*
X624450Y169750D01*
X629490Y164710D01*
X642620Y164710D01*
X473710Y121675D02*
X454025Y121675D01*
X496650Y208200D02*
X496650Y215950D01*
X496650Y208200D02*
X501650Y203200D01*
X514525Y208200D02*
X514525Y213200D01*
X514525Y208200D02*
X506650Y208200D01*
X501650Y203200D01*
D34*
X501650Y203200D03*
X597290Y151560D03*
D32*
X737235Y184785D02*
X739775Y187325D01*
X737235Y184785D02*
X737235Y180975D01*
X737235Y171450D01*
D33*
X736300Y44450D02*
X746760Y44450D01*
X745100Y95250D02*
X751205Y95250D01*
X757310Y95250D01*
X751205Y76200D02*
X745100Y76200D01*
X751205Y76200D02*
X757945Y76200D01*
X751205Y76200D02*
X751205Y95250D01*
X751205Y76200D02*
X751205Y48895D01*
X746760Y44450D01*
X726685Y219075D02*
X727320Y219710D01*
X737235Y219710D01*
X747150Y219710D01*
X747785Y219075D01*
X737235Y219710D02*
X737235Y180975D01*
D34*
X390525Y61595D03*
X382270Y127000D03*
X642620Y177165D03*
X292735Y208915D03*
X262255Y199390D03*
X306070Y198755D03*
X729615Y193675D03*
X744855Y193675D03*
X744855Y168910D03*
X729615Y168275D03*
X737235Y180340D03*
X751205Y103505D03*
X749300Y37465D03*
X673100Y103505D03*
X652780Y125730D03*
X464185Y121285D03*
X631825Y118110D03*
X737235Y226695D03*
X473075Y186055D03*
X455295Y205740D03*
X468630Y11430D03*
X600075Y24765D03*
X566420Y24130D03*
X675640Y34925D03*
X745490Y12065D03*
X551815Y44450D03*
X417830Y184150D03*
X402590Y150495D03*
D32*
X739775Y187325D02*
X764355Y187325D01*
X473075Y191525D02*
X469900Y194700D01*
X473075Y191525D02*
X473075Y186055D01*
X473075Y179315D02*
X475225Y177165D01*
X473075Y179315D02*
X473075Y186055D01*
D34*
X563245Y123190D03*
X556260Y186055D03*
X577215Y170180D03*
X533400Y191135D03*
X535940Y203835D03*
X593725Y194945D03*
X584200Y195580D03*
X563245Y139700D03*
X782320Y118110D03*
X796925Y133985D03*
X796925Y179705D03*
X791845Y110490D03*
X735330Y122555D03*
X756285Y121920D03*
X739775Y104775D03*
X761365Y104775D03*
X749300Y52070D03*
X803910Y155575D03*
X789940Y227965D03*
X574040Y232410D03*
X645160Y202565D03*
X805180Y73660D03*
X811530Y181610D03*
X830580Y219710D03*
X849630Y200660D03*
X855980Y232410D03*
X830580Y16510D03*
X843280Y35560D03*
X365760Y214630D03*
X374015Y172720D03*
X419735Y15240D03*
X297180Y61595D03*
X339090Y59055D03*
X384175Y77470D03*
X381635Y104140D03*
X96520Y237490D03*
X164465Y237490D03*
X234315Y238760D03*
X311150Y238760D03*
X367665Y238760D03*
X424815Y239395D03*
X494030Y239395D03*
X560070Y239395D03*
D32*
X490474Y119800D02*
X475585Y119800D01*
X473710Y121675D01*
D34*
X532765Y11430D03*
X682625Y40005D03*
X174625Y194945D03*
X209550Y196215D03*
X129540Y189230D03*
X108585Y189865D03*
X95885Y12065D03*
X148590Y11430D03*
X96520Y53975D03*
X85090Y60960D03*
X222250Y11430D03*
X433070Y73660D03*
X433705Y108585D03*
X443865Y122555D03*
X752475Y238760D03*
X644525Y238125D03*
X769620Y10795D03*
X589280Y106045D03*
X503555Y11430D03*
D36*
X81500Y51850D02*
X58830Y51850D01*
X81500Y51850D02*
X82550Y50800D01*
D34*
X8890Y22860D03*
X8890Y219710D03*
X40640Y207010D03*
X40640Y41910D03*
X27940Y124460D03*
D32*
X506650Y215950D02*
X506650Y222965D01*
X504190Y225425D01*
X471400Y213200D02*
X469900Y211700D01*
X471400Y213200D02*
X478790Y213200D01*
X488775Y213200D01*
X488775Y222075D01*
X492125Y225425D01*
X504190Y225425D01*
X684140Y108585D02*
X684140Y84700D01*
X684140Y108585D02*
X684140Y125730D01*
X684140Y84700D02*
X669925Y70485D01*
X684140Y108585D02*
X701005Y108585D01*
D33*
X774310Y95250D02*
X774945Y94615D01*
X774945Y76200D01*
D32*
X669925Y70485D02*
X649005Y70485D01*
D33*
X762300Y60625D02*
X762300Y53950D01*
X762300Y60625D02*
X765175Y63500D01*
X770255Y63500D01*
X774945Y68190D02*
X774945Y76200D01*
X774945Y68190D02*
X770255Y63500D01*
D34*
X768350Y114300D03*
D33*
X774310Y108340D01*
X774310Y95250D01*
D34*
X698500Y120650D03*
D33*
X693420Y125730D01*
X684140Y125730D01*
D34*
X478790Y213200D03*
D32*
X145040Y200920D02*
X120500Y200920D01*
X145040Y200920D02*
X151765Y207645D01*
D33*
X213995Y89290D02*
X213995Y79375D01*
X213995Y89290D02*
X213750Y89535D01*
X213750Y79130D02*
X213750Y69850D01*
X213750Y79130D02*
X213995Y79375D01*
D32*
X90935Y200920D02*
X80645Y211210D01*
X90935Y200920D02*
X120500Y200920D01*
X120500Y23730D02*
X118750Y21980D01*
X80645Y21980D01*
X120500Y23730D02*
X120500Y27455D01*
X107315Y40640D02*
X107315Y60960D01*
D35*
X107315Y60960D03*
X213360Y57785D03*
D32*
X213360Y69460D01*
X213750Y69850D01*
X120500Y27455D02*
X107315Y40640D01*
D35*
X184150Y205105D03*
D33*
X213750Y175505D02*
X213750Y89535D01*
X213750Y175505D02*
X184150Y205105D01*
D32*
X181610Y207645D02*
X151765Y207645D01*
X181610Y207645D02*
X184150Y205105D01*
X407060Y73000D02*
X418410Y73000D01*
X407060Y73000D02*
X401955Y78105D01*
D35*
X401955Y78105D03*
X428625Y155575D03*
D32*
X422250Y149200D01*
X418410Y149200D01*
D37*
X774310Y95250D02*
X787155Y95250D01*
D32*
X380955Y186715D02*
X358575Y186715D01*
X380955Y186715D02*
X381565Y187325D01*
X385055Y187325D01*
X404105Y168275D01*
X404105Y162315D01*
X417220Y149200D02*
X418410Y149200D01*
X417220Y149200D02*
X404105Y162315D01*
D36*
X213480Y79400D02*
X181530Y79400D01*
X213480Y79400D02*
X213750Y79130D01*
D32*
X478835Y143800D02*
X490474Y143800D01*
X478835Y143800D02*
X473710Y138675D01*
X473185Y139200D02*
X473185Y156210D01*
X473185Y139200D02*
X473710Y138675D01*
X599830Y56515D02*
X599830Y36830D01*
X599830Y56515D02*
X537845Y56515D01*
X537400Y57150D02*
X537400Y80874D01*
X537400Y56960D02*
X537400Y56515D01*
X537400Y56960D02*
X537400Y57150D01*
X537400Y56960D02*
X537845Y56515D01*
X537400Y56515D02*
X523240Y56515D01*
X523240Y59690D01*
X616830Y76200D02*
X623815Y83185D01*
X649005Y83185D01*
X649005Y95885D02*
X616830Y95885D01*
X545400Y80874D02*
X545400Y69915D01*
X599830Y95640D02*
X599830Y95885D01*
X554990Y60325D02*
X545400Y69915D01*
X586740Y60325D02*
X592455Y66040D01*
X606425Y66040D01*
X607695Y67310D01*
X607695Y93980D01*
X606035Y95640D02*
X599830Y95640D01*
X586740Y60325D02*
X554990Y60325D01*
X606035Y95640D02*
X607695Y93980D01*
X553400Y80874D02*
X553400Y70170D01*
X590550Y76200D02*
X599830Y76200D01*
X559435Y64135D02*
X553400Y70170D01*
X559435Y64135D02*
X578485Y64135D01*
X590550Y76200D01*
X624450Y147750D02*
X642580Y147750D01*
X642620Y147710D01*
X589625Y143800D02*
X576326Y143800D01*
X589625Y143800D02*
X597535Y135890D01*
X617855Y135890D01*
X624450Y142485D02*
X624450Y147750D01*
X624450Y142485D02*
X617855Y135890D01*
X607450Y169750D02*
X607450Y190500D01*
X582515Y151800D02*
X576326Y151800D01*
X600465Y169750D02*
X607450Y169750D01*
X600465Y169750D02*
X582515Y151800D01*
D35*
X282575Y161925D03*
D32*
X282600Y161900D01*
X293760Y161900D01*
D35*
X282575Y149225D03*
D32*
X325485Y149225D01*
X325510Y149200D01*
D35*
X282575Y136525D03*
D32*
X293735Y136525D01*
X293760Y136500D01*
X282600Y123800D02*
X325510Y123800D01*
X282600Y123800D02*
X282575Y123825D01*
D35*
X282575Y123825D03*
X282575Y111125D03*
D32*
X293735Y111125D01*
X293760Y111100D01*
D35*
X282575Y98425D03*
D32*
X325485Y98425D01*
X325510Y98400D01*
D35*
X282575Y85725D03*
D32*
X293735Y85725D01*
X293760Y85700D01*
D35*
X282575Y73025D03*
D32*
X325485Y73025D01*
X325510Y73000D01*
D35*
X282575Y184150D03*
D32*
X354330Y196850D02*
X419300Y196850D01*
X341630Y184150D02*
X282575Y184150D01*
X341630Y184150D02*
X354330Y196850D01*
D35*
X282575Y58420D03*
D32*
X315595Y25400D01*
X343100Y25400D01*
X368100Y15900D02*
X369345Y17145D01*
X390915Y17145D01*
X553400Y150175D02*
X553400Y166726D01*
X546100Y111125D02*
X540385Y105410D01*
X540385Y96520D01*
X541020Y95885D01*
D35*
X541020Y95885D03*
D32*
X546100Y142875D02*
X553400Y150175D01*
X546100Y142875D02*
X546100Y111125D01*
D35*
X533083Y47943D03*
D32*
X485458Y47943D01*
X399805Y8255D02*
X390915Y17145D01*
X399805Y8255D02*
X445770Y8255D01*
X485458Y47943D01*
D38*
X363910Y149200D02*
X342510Y149200D01*
X363910Y136500D02*
X310760Y136500D01*
X342510Y123800D02*
X363910Y123800D01*
X363910Y111100D02*
X310760Y111100D01*
X342510Y98400D02*
X363910Y98400D01*
X363910Y85700D02*
X310760Y85700D01*
X342510Y73000D02*
X363910Y73000D01*
D32*
X367690Y161900D02*
X310760Y161900D01*
X393090Y136500D02*
X418410Y136500D01*
X393090Y136500D02*
X367690Y161900D01*
X404470Y123800D02*
X418410Y123800D01*
D35*
X403860Y123190D03*
X507365Y127635D03*
D32*
X506095Y126365D01*
X521400Y93280D02*
X521400Y80874D01*
X404470Y123800D02*
X403860Y123190D01*
X506095Y126365D02*
X506095Y108585D01*
X521400Y93280D01*
X418410Y98400D02*
X418410Y85700D01*
X407060Y85700D01*
D35*
X401955Y90805D03*
X513715Y118745D03*
D32*
X407060Y85700D02*
X401955Y90805D01*
X513715Y118745D02*
X529400Y103060D01*
X529400Y80874D01*
X501650Y181610D02*
X501650Y190450D01*
X505400Y177860D02*
X505400Y166726D01*
X505400Y177860D02*
X501650Y181610D01*
D34*
X505400Y177860D03*
D32*
X157505Y142900D02*
X143510Y128905D01*
X143510Y75924D01*
X161363Y58071D01*
X176879Y58071D01*
X256540Y29210D02*
X257175Y29845D01*
D35*
X257175Y29845D03*
D32*
X205740Y29210D02*
X176879Y58071D01*
X205740Y29210D02*
X256540Y29210D01*
X181530Y142900D02*
X157505Y142900D01*
X480775Y198200D02*
X488775Y198200D01*
X480775Y198200D02*
X478790Y196215D01*
X478790Y190500D01*
X490474Y178816D02*
X490474Y151800D01*
X490474Y178816D02*
X478790Y190500D01*
X490474Y151800D02*
X497840Y151800D01*
D34*
X537845Y128270D03*
D32*
X521370Y128270D01*
X497840Y151800D01*
X160680Y117500D02*
X151130Y107950D01*
X151130Y76835D01*
X163830Y64135D01*
X180975Y64135D01*
X208280Y36830D01*
X246380Y36830D02*
X257175Y47625D01*
D35*
X257175Y47625D03*
D32*
X246380Y36830D02*
X208280Y36830D01*
X181530Y117500D02*
X160680Y117500D01*
X496650Y160575D02*
X496650Y190450D01*
X504190Y153035D02*
X513080Y153035D01*
X513400Y153355D01*
X513400Y166726D01*
X504190Y153035D02*
X496650Y160575D01*
D34*
X513080Y153035D03*
D32*
X161950Y130200D02*
X147320Y115570D01*
X147320Y76200D01*
X162560Y60960D01*
X179070Y60960D01*
X207010Y33020D01*
D35*
X257175Y38735D03*
D32*
X251460Y33020D02*
X207010Y33020D01*
X251460Y33020D02*
X257175Y38735D01*
X181530Y130200D02*
X161950Y130200D01*
X161950Y92100D02*
X158750Y88900D01*
X158750Y78740D01*
X167005Y70485D01*
X185420Y70485D01*
X210820Y45085D01*
X236855Y45085D01*
D35*
X257175Y65405D03*
D32*
X236855Y45085D01*
D35*
X521335Y143510D03*
D32*
X521335Y166661D01*
X521400Y166726D01*
X181530Y92100D02*
X161950Y92100D01*
X154940Y97790D02*
X161925Y104775D01*
X154940Y97790D02*
X154940Y77470D01*
X165100Y67310D01*
X183515Y67310D01*
X210185Y40640D01*
X241300Y40640D02*
X257175Y56515D01*
D35*
X257175Y56515D03*
D32*
X241300Y40640D02*
X210185Y40640D01*
D35*
X528955Y135255D03*
D32*
X528955Y166281D01*
X529400Y166726D01*
X161950Y104800D02*
X161925Y104775D01*
X161950Y104800D02*
X181530Y104800D01*
X736300Y34950D02*
X738550Y34950D01*
X756990Y16510D01*
X758260Y17780D02*
X780980Y17780D01*
X758260Y17780D02*
X756990Y16510D01*
X780980Y17780D02*
X782250Y16510D01*
D37*
X787400Y27305D02*
X787400Y35950D01*
X782250Y22155D02*
X782250Y16510D01*
X782250Y22155D02*
X787400Y27305D01*
D34*
X561975Y111760D03*
D32*
X733990Y21660D02*
X733990Y16510D01*
X733990Y21660D02*
X717550Y38100D01*
D34*
X717550Y38100D03*
D32*
X569935Y103800D02*
X561975Y111760D01*
X569935Y103800D02*
X576326Y103800D01*
X561400Y152460D02*
X561400Y166726D01*
X549910Y97155D02*
X551180Y95885D01*
D35*
X551180Y95885D03*
D32*
X549910Y140970D02*
X561400Y152460D01*
X549910Y140970D02*
X549910Y97155D01*
D35*
X579120Y49530D03*
D32*
X582930Y45720D01*
X582930Y40250D01*
X573840Y44250D02*
X561950Y44250D01*
X573840Y44250D02*
X579120Y49530D01*
X687705Y70485D02*
X701005Y70485D01*
X687705Y70485D02*
X681355Y64135D01*
X681355Y52070D01*
X630555Y36830D02*
X616830Y36830D01*
X630555Y36830D02*
X631825Y38100D01*
X667385Y38100D01*
X681355Y52070D01*
X649005Y57785D02*
X632460Y57785D01*
X629920Y60325D01*
D34*
X629920Y60325D03*
D32*
X633730Y45085D02*
X649005Y45085D01*
X633730Y45085D02*
X629920Y48895D01*
D34*
X629920Y48895D03*
D32*
X686435Y159775D02*
X707965Y159775D01*
X710115Y161925D01*
D33*
X764355Y200025D02*
X764785Y200455D01*
X764785Y219075D01*
X764355Y200025D02*
X784860Y200025D01*
D32*
X710115Y161925D02*
X710115Y143325D01*
X723265Y130175D01*
X770890Y130175D01*
X784860Y144145D01*
X784860Y200025D01*
X806450Y52950D02*
X846700Y52950D01*
X858520Y64770D01*
X858520Y157480D01*
X854100Y161900D02*
X838200Y161900D01*
X854100Y161900D02*
X858520Y157480D01*
D33*
X838200Y161900D02*
X838200Y184150D01*
X822325Y200025D02*
X784860Y200025D01*
X822325Y200025D02*
X838200Y184150D01*
D32*
X775970Y174625D02*
X764355Y174625D01*
X775970Y174625D02*
X779780Y170815D01*
X779780Y152400D01*
X770255Y142875D02*
X745735Y142875D01*
X770255Y142875D02*
X779780Y152400D01*
X686435Y176775D02*
X686435Y195875D01*
X701040Y174625D02*
X710115Y174625D01*
X697230Y178435D02*
X697230Y212725D01*
X697230Y178435D02*
X701040Y174625D01*
X693080Y216875D02*
X686435Y216875D01*
X693080Y216875D02*
X697230Y212725D01*
D33*
X552450Y19250D02*
X521770Y19250D01*
X515620Y25400D01*
X515620Y29210D01*
D34*
X421640Y206375D03*
X501015Y135890D03*
D32*
X500925Y135800D01*
X490474Y135800D01*
X400050Y207400D02*
X380365Y207400D01*
X401075Y206375D02*
X421640Y206375D01*
X401075Y206375D02*
X400050Y207400D01*
X436030Y195620D02*
X444300Y187350D01*
X436030Y195620D02*
X436030Y210290D01*
X447990Y222250D01*
X482600Y222250D02*
X490220Y229870D01*
X523240Y229870D01*
X545400Y207710D02*
X545400Y166726D01*
X482600Y222250D02*
X447990Y222250D01*
X523240Y229870D02*
X545400Y207710D01*
X444300Y187350D02*
X444300Y186890D01*
X454025Y177165D01*
X458225Y177165D01*
X506650Y188040D02*
X506650Y190450D01*
X506650Y188040D02*
X514350Y180340D01*
X533400Y180340D01*
X537400Y176340D02*
X537400Y166726D01*
X537400Y176340D02*
X533400Y180340D01*
X523875Y203200D02*
X514525Y203200D01*
D34*
X523875Y203200D03*
D35*
X561975Y99060D03*
D32*
X565235Y95800D02*
X576326Y95800D01*
X565235Y95800D02*
X561975Y99060D01*
X806450Y35950D02*
X806450Y17710D01*
X805250Y16510D01*
X179070Y26035D02*
X176765Y23730D01*
X160500Y23730D01*
D35*
X179070Y26035D03*
X134620Y58420D03*
D32*
X134620Y167005D01*
X160655Y193040D01*
X160655Y200765D01*
X160500Y200920D01*
D35*
X433705Y24765D03*
D32*
X513400Y72710D02*
X513400Y80874D01*
X456565Y24765D02*
X433705Y24765D01*
X456565Y24765D02*
X483870Y52070D01*
X506095Y52070D01*
X511810Y57785D01*
X511810Y71120D01*
X513400Y72710D01*
X181425Y42730D02*
X160500Y42730D01*
X495875Y80874D02*
X505400Y80874D01*
X495875Y80874D02*
X473421Y58420D01*
X202565Y21590D02*
X181425Y42730D01*
X202565Y21590D02*
X235585Y21590D01*
X243205Y13970D01*
X436245Y58420D02*
X473421Y58420D01*
X353695Y22860D02*
X344805Y13970D01*
X353695Y22860D02*
X353695Y41275D01*
X344805Y13970D02*
X243205Y13970D01*
X353695Y41275D02*
X361950Y49530D01*
X427355Y49530D02*
X436245Y58420D01*
X427355Y49530D02*
X361950Y49530D01*
X216960Y219920D02*
X160500Y219920D01*
X216960Y219920D02*
X262890Y173990D01*
X431165Y142875D02*
X436245Y137795D01*
X436245Y116840D01*
X441325Y111760D01*
X490434Y111760D01*
X490474Y111800D01*
X361315Y173990D02*
X262890Y173990D01*
X361315Y173990D02*
X392430Y142875D01*
X431165Y142875D01*
X454025Y138675D02*
X462525Y130175D01*
X484975Y127800D02*
X490474Y127800D01*
X482600Y130175D02*
X462525Y130175D01*
X482600Y130175D02*
X484975Y127800D01*
X437625Y146575D02*
X437625Y168275D01*
X445525Y138675D02*
X454025Y138675D01*
X445525Y138675D02*
X437625Y146575D01*
X361760Y224400D02*
X333575Y196215D01*
X361760Y224400D02*
X380365Y224400D01*
X464185Y80400D02*
X475074Y80400D01*
X490474Y95800D01*
X464185Y80400D02*
X464185Y66920D01*
X444500Y80400D02*
X453000Y88900D01*
X473075Y88900D02*
X476885Y92710D01*
X476885Y99060D01*
X481625Y103800D02*
X490474Y103800D01*
X473075Y88900D02*
X453000Y88900D01*
X476885Y99060D02*
X481625Y103800D01*
X444500Y80400D02*
X444500Y66920D01*
X145230Y42730D02*
X120500Y42730D01*
X145230Y42730D02*
X155575Y32385D01*
X186055Y32385D01*
X440300Y45720D02*
X444500Y49920D01*
X200660Y17780D02*
X186055Y32385D01*
X200660Y17780D02*
X234315Y17780D01*
X242570Y9525D01*
X346075Y9525D02*
X357505Y20955D01*
X357505Y40005D01*
X363220Y45720D01*
X346075Y9525D02*
X242570Y9525D01*
X363220Y45720D02*
X440300Y45720D01*
X145205Y219920D02*
X120500Y219920D01*
X145205Y219920D02*
X151765Y213360D01*
X231775Y189865D02*
X231775Y128270D01*
X269875Y90170D01*
X208280Y213360D02*
X151765Y213360D01*
X208280Y213360D02*
X231775Y189865D01*
X269875Y41275D02*
X290830Y20320D01*
D35*
X290830Y20320D03*
X504825Y62865D03*
D32*
X269875Y41275D02*
X269875Y90170D01*
X464185Y49920D02*
X472830Y49920D01*
X485775Y62865D02*
X504825Y62865D01*
X485775Y62865D02*
X472830Y49920D01*
X161950Y155600D02*
X139700Y133350D01*
X139700Y75649D01*
X160167Y55182D01*
X174688Y55182D01*
X204470Y25400D01*
X252730Y25400D02*
X257175Y20955D01*
D35*
X257175Y20955D03*
D32*
X252730Y25400D02*
X204470Y25400D01*
D35*
X570230Y71120D03*
D32*
X570230Y78105D01*
X567461Y80874D02*
X561400Y80874D01*
X567461Y80874D02*
X570230Y78105D01*
X181530Y155600D02*
X161950Y155600D01*
X404565Y184715D02*
X404565Y187325D01*
X419625Y169655D02*
X419625Y168275D01*
X419625Y169655D02*
X404565Y184715D01*
M02*
