G04 EAGLE Gerber RS-274X export*
G75*
%MOMM*%
%FSLAX34Y34*%
%LPD*%
%INSilkscreen Bottom*%
%IPPOS*%
%AMOC8*
5,1,8,0,0,1.08239X$1,22.5*%
G01*
G04 Define Apertures*
%ADD10C,0.127000*%
D10*
X198100Y188500D02*
X198100Y61500D01*
X223500Y61500D01*
X223500Y188500D01*
X198100Y188500D01*
X96500Y188500D02*
X96500Y61500D01*
X121900Y61500D01*
X121900Y188500D01*
X96500Y188500D01*
X83800Y192000D02*
X134600Y192000D01*
X134600Y58000D01*
X83800Y58000D01*
X83800Y192000D01*
X185400Y192000D02*
X236200Y192000D01*
X236200Y58000D01*
X185400Y58000D01*
X185400Y192000D01*
X71100Y201200D02*
X71100Y48800D01*
X248900Y48800D01*
X248900Y201200D01*
X71100Y201200D01*
X160000Y74200D02*
X172700Y74200D01*
X160000Y74200D02*
X147300Y74200D01*
X147300Y99600D01*
X160000Y99600D01*
X172700Y99600D01*
X172700Y74200D01*
X172700Y150400D02*
X160000Y150400D01*
X147300Y150400D01*
X147300Y175800D01*
X160000Y175800D01*
X172700Y175800D01*
X172700Y150400D01*
X172700Y137700D02*
X172700Y136430D01*
X172700Y61500D02*
X172700Y60230D01*
X160000Y150400D02*
X160000Y175800D01*
X160000Y99600D02*
X160000Y74200D01*
M02*
